SplineFontDB: 3.0
FontName: Estedad-regular
FullName: Estedad regular
FamilyName: Estedad
Weight: Regular
Copyright: Copyright (c) 2017, Amin (www.instagram.com/aminabedi68---aminabedi68@gmail.com),\nwith Reserved Font Name Estedad.\n\nThis Font Software is licensed under the SIL Open Font License, Version 1.1.
Version: 0.7(Beta10)
ItalicAngle: 0
UnderlinePosition: -204
UnderlineWidth: 102
Ascent: 1638
Descent: 410
InvalidEm: 0
LayerCount: 2
Layer: 0 0 "Back" 1
Layer: 1 0 "Fore" 0
XUID: [1021 89 1101065813 28845]
StyleMap: 0x0000
FSType: 0
OS2Version: 0
OS2_WeightWidthSlopeOnly: 0
OS2_UseTypoMetrics: 1
CreationTime: 1496828874
ModificationTime: 1502380495
PfmFamily: 17
TTFWeight: 400
TTFWidth: 5
LineGap: 0
VLineGap: 184
OS2TypoAscent: 500
OS2TypoAOffset: 1
OS2TypoDescent: -500
OS2TypoDOffset: 1
OS2TypoLinegap: 0
OS2WinAscent: 0
OS2WinAOffset: 1
OS2WinDescent: 0
OS2WinDOffset: 1
HheadAscent: 0
HheadAOffset: 1
HheadDescent: 0
HheadDOffset: 1
OS2Vendor: 'PfEd'
Lookup: 1 0 0 "'aalt' Access All Alternates in Arabic lookup 0" { "'aalt' Access All Alternates in Arabic lookup 0 subtable"  } ['aalt' ('DFLT' <'dflt' > 'arab' <'KUR ' 'SND ' 'URD ' 'dflt' > ) ]
Lookup: 1 0 0 "'ss01' Style Set 1 in Arabic lookup 0" { "'ss01' Style Set 1 in Arabic lookup 0 subtable"  } ['ss01' ('DFLT' <'dflt' > 'arab' <'KUR ' 'SND ' 'URD ' 'dflt' > ) ]
Lookup: 1 0 0 "single substitution 0" { "single substitution 0 subtable"  } []
Lookup: 5 9 0 "'calt' Contextual Alternates in Arabic lookup 6" { "'calt' Contextual Alternates in Arabic lookup 6 subtable 1"  "'calt' Contextual Alternates in Arabic lookup 6 subtable"  } ['calt' ('DFLT' <'dflt' > 'arab' <'KUR ' 'SND ' 'URD ' 'dflt' > ) ]
Lookup: 1 9 0 "'fina' Terminal Forms in Arabic lookup 1" { "'fina' Terminal Forms in Arabic lookup 1 subtable"  } ['fina' ('arab' <'KUR ' 'SND ' 'URD ' 'dflt' > ) ]

StartChar: period
Encoding: 46 46 0
Width: 360
VWidth: 1600
Flags: MW
LayerCount: 2
Fore
SplineSet
53 90 m 1
 180 217 l 1
 307 90 l 1
 180 -37 l 1
 53 90 l 1
EndSplineSet
Validated: 1
EndChar

StartChar: slash
Encoding: 47 47 1
Width: 700
VWidth: 1600
Flags: MW
LayerCount: 2
Fore
SplineSet
476 1217 m 1
 610 1217 l 1
 223 0 l 1
 90 0 l 1
 476 1217 l 1
EndSplineSet
Validated: 1
EndChar

StartChar: asterisk
Encoding: 42 42 2
Width: 786
VWidth: 1600
Flags: MW
LayerCount: 2
Fore
SplineSet
358 948 m 1
 428 948 l 1
 428 730 l 1
 583 884 l 1
 632 835 l 1
 478 680 l 1
 696 680 l 1
 696 610 l 1
 478 610 l 1
 632 456 l 1
 583 406 l 1
 428 561 l 1
 428 342 l 1
 358 342 l 1
 358 561 l 1
 204 406 l 1
 154 456 l 1
 309 610 l 1
 90 610 l 1
 90 680 l 1
 309 680 l 1
 154 835 l 1
 204 884 l 1
 358 730 l 1
 358 948 l 1
EndSplineSet
Validated: 1
EndChar

StartChar: parenleft
Encoding: 40 40 3
Width: 440
VWidth: 1600
Flags: MW
LayerCount: 2
Fore
SplineSet
234 1243 m 1
 363 1243 l 1
 267 1047 219 835 219 622 c 0
 219 409 267 196 363 0 c 1
 234 0 l 1
 138 196 90 409 90 622 c 0
 90 835 138 1047 234 1243 c 1
EndSplineSet
Validated: 1
EndChar

StartChar: uni0660
Encoding: 1632 1632 5
Width: 656
VWidth: 1600
Flags: MW
LayerCount: 2
Fore
SplineSet
328 540 m 4
 459 540 566 433 566 302 c 4
 566 171 459 64 328 64 c 4
 197 64 90 171 90 302 c 4
 90 433 197 540 328 540 c 4
328 430 m 4
 256 430 200 374 200 302 c 4
 200 230 256 174 328 174 c 4
 400 174 456 230 456 302 c 4
 456 374 400 430 328 430 c 4
EndSplineSet
Validated: 1
EndChar

StartChar: uni0661
Encoding: 1633 1633 6
Width: 490
VWidth: 1600
Flags: MW
LayerCount: 2
Fore
SplineSet
214 1234 m 1
 325 818 400 417 400 0 c 1
 271 0 l 1
 271 401 200 790 90 1200 c 1
 214 1234 l 1
EndSplineSet
Validated: 1
EndChar

StartChar: uni0662
Encoding: 1634 1634 7
Width: 914
VWidth: 1600
Flags: MW
LayerCount: 2
Fore
SplineSet
344 730 m 1
 380 486 401 251 401 0 c 1
 272 0 l 1
 272 399 225 831 90 1201 c 1
 209 1252 l 1
 250 1153 283 1012 331 918 c 0
 362 855 409 823 476 823 c 4
 671 823 671 1019 671 1244 c 1
 799 1244 l 1
 799 921 766 694 476 694 c 0
 429 694 388 705 344 730 c 1
EndSplineSet
Validated: 1
EndChar

StartChar: uni0663
Encoding: 1635 1635 8
Width: 1182
VWidth: 1600
Flags: MW
LayerCount: 2
Fore
SplineSet
845 645 m 0
 764 645 668 705 626 781 c 1
 586 701 518 647 438 647 c 0
 409 647 369 654 341 669 c 1
 379 447 400 226 400 0 c 1
 271 0 l 1
 271 399 189 824 90 1200 c 1
 214 1234 l 1
 255 1078 295 774 423 774 c 0
 546 774 585 939 585 1110 c 0
 585 1146 584 1182 582 1217 c 1
 712 1223 l 1
 723 1024 702 774 845 774 c 0
 965 774 1007 861 1007 1021 c 0
 1007 1077 1002 1143 993 1217 c 1
 1122 1217 l 1
 1128 1160 1130 1107 1130 1057 c 0
 1130 800 1052 645 845 645 c 0
EndSplineSet
Validated: 1
EndChar

StartChar: uni0664
Encoding: 1636 1636 9
Width: 815
VWidth: 1600
Flags: MW
LayerCount: 2
Fore
SplineSet
611 1197 m 1
 611 1068 l 1
 380 1068 325 993 325 917 c 0
 325 798 430 775 610 775 c 1
 610 646 l 1
 380 646 218 492 218 324 c 0
 218 187 328 129 499 129 c 2
 725 129 l 1
 725 0 l 1
 499 0 l 2
 269 0 90 111 90 326 c 0
 90 495 189 621 325 700 c 1
 240 742 196 836 196 917 c 0
 196 1076 310 1197 611 1197 c 1
EndSplineSet
Validated: 1
EndChar

StartChar: uni0665
Encoding: 1637 1637 10
Width: 999
VWidth: 1600
Flags: MW
LayerCount: 2
Fore
SplineSet
425 1256 m 1
 732 949 909 660 909 382 c 0
 909 141 740 6 494 6 c 0
 245 6 90 154 90 395 c 0
 90 635 214 877 407 1088 c 1
 384 1113 359 1138 333 1164 c 1
 425 1256 l 1
492 990 m 1
 322 799 219 583 219 393 c 0
 219 221 308 135 494 135 c 0
 679 135 781 208 781 378 c 0
 781 561 681 759 492 990 c 1
EndSplineSet
Validated: 1
EndChar

StartChar: uni0666
Encoding: 1638 1638 11
Width: 917
VWidth: 1600
Flags: MW
LayerCount: 2
Fore
SplineSet
827 13 m 1
 701 -13 l 1
 605 345 595 738 592 1076 c 1
 544 1073 495 1071 446 1071 c 0
 319 1071 193 1083 90 1108 c 1
 108 1235 l 1
 201 1210 321 1202 444 1202 c 0
 539 1202 636 1207 721 1214 c 1
 721 823 725 404 827 13 c 1
EndSplineSet
Validated: 1
EndChar

StartChar: uni0667
Encoding: 1639 1639 12
Width: 1078
VWidth: 1600
Flags: MW
LayerCount: 2
Fore
SplineSet
201 1218 m 1
 361 947 470 671 539 378 c 1
 608 671 717 947 877 1218 c 1
 988 1152 l 1
 775 789 657 426 603 9 c 1
 475 9 l 1
 421 426 303 789 90 1152 c 1
 201 1218 l 1
EndSplineSet
Validated: 1
EndChar

StartChar: uni0669
Encoding: 1641 1641 14
Width: 862
VWidth: 1600
Flags: MW
LayerCount: 2
Fore
SplineSet
417 1217 m 0
 654 1217 673 985 673 749 c 2
 673 657 l 2
 673 449 679 226 772 65 c 1
 661 0 l 1
 556 182 544 400 544 594 c 1
 511 586 475 581 437 581 c 0
 217 581 90 725 90 881 c 0
 90 1060 241 1217 417 1217 c 0
417 1088 m 0
 324 1088 220 982 220 879 c 0
 220 797 273 710 437 710 c 0
 477 710 514 717 545 729 c 1
 545 896 544 1088 417 1088 c 0
EndSplineSet
Validated: 1
EndChar

StartChar: uni06F4
Encoding: 1780 1780 19
Width: 977
VWidth: 1600
Flags: MW
LayerCount: 2
Fore
SplineSet
298 993 m 1
 351 1132 482 1231 664 1231 c 0
 717 1231 765 1226 816 1210 c 1
 791 1083 l 1
 750 1098 712 1102 668 1102 c 0
 495 1102 402 975 402 849 c 0
 402 715 541 696 688 696 c 0
 743 696 800 699 851 699 c 1
 847 579 l 1
 785 579 722 577 662 577 c 0
 528 577 409 589 340 668 c 1
 378 447 400 226 400 0 c 1
 271 0 l 1
 271 401 215 792 90 1200 c 1
 214 1234 l 1
 247 1144 267 1062 298 993 c 1
EndSplineSet
Validated: 1
EndChar

StartChar: uni06F5
Encoding: 1781 1781 20
Width: 999
VWidth: 1600
Flags: MW
LayerCount: 2
Fore
SplineSet
425 1249 m 1
 742 932 910 623 910 377 c 0
 910 188 814 0 639 0 c 0
 586 0 540 15 501 39 c 1
 462 15 415 0 362 0 c 0
 183 0 90 197 90 390 c 0
 90 609 210 866 407 1081 c 1
 384 1106 359 1132 333 1158 c 1
 425 1249 l 1
500 983 m 1
 317 787 219 548 219 381 c 0
 219 276 260 133 388 133 c 0
 425 133 464 151 500 196 c 1
 536 151 575 133 612 133 c 0
 740 133 781 276 781 381 c 0
 781 548 683 787 500 983 c 1
EndSplineSet
Validated: 1
EndChar

StartChar: uni06F6
Encoding: 1782 1782 21
Width: 917
VWidth: 1600
Flags: MW
LayerCount: 2
Fore
SplineSet
471 1218 m 0
 505 1218 540 1212 573 1200 c 1
 528 1079 l 1
 509 1086 488 1090 468 1090 c 0
 342 1090 239 969 239 859 c 0
 239 761 312 709 416 709 c 0
 531 709 647 772 733 858 c 1
 827 770 l 1
 557 473 417 283 267 0 c 1
 155 63 l 1
 263 253 349 410 489 586 c 1
 464 582 440 581 416 581 c 0
 245 581 110 688 110 859 c 0
 110 1047 268 1218 471 1218 c 0
EndSplineSet
Validated: 1
EndChar

StartChar: uni0654
Encoding: 1620 1620 25
Width: 0
VWidth: 1600
Flags: MW
AnchorPoint: "Anchor-5" 0 1350 mark 0
AnchorPoint: "Anchor-4" 0 1350 mark 0
AnchorPoint: "Anchor-1" 0 1350 mark 0
AnchorPoint: "Anchor-1" 0 1807 basemark 0
LayerCount: 2
Fore
SplineSet
135 1538 m 1
 165 1475 l 1
 -176 1316 l 1
 -205 1379 l 1
 -66 1444 l 1
 -147 1453 -199 1506 -199 1587 c 0
 -199 1694 -107 1779 10 1779 c 0
 27 1779 45 1777 63 1773 c 1
 46 1705 l 1
 35 1708 23 1709 12 1709 c 0
 -66 1709 -129 1652 -129 1587 c 0
 -129 1536 -77 1512 -19 1512 c 0
 32 1512 87 1521 135 1538 c 1
EndSplineSet
Validated: 1
EndChar

StartChar: uni0653
Encoding: 1619 1619 27
Width: 0
VWidth: 1600
Flags: MW
AnchorPoint: "Anchor-5" 0 1320 mark 0
AnchorPoint: "Anchor-4" 0 1320 mark 0
AnchorPoint: "Anchor-1" 0 1320 mark 0
AnchorPoint: "Anchor-1" 0 1472 basemark 0
LayerCount: 2
Fore
SplineSet
165 1466 m 1
 227 1433 l 1
 200 1382 146 1324 72 1324 c 0
 41 1324 9 1337 -18 1363 c 0
 -34 1378 -47 1382 -60 1382 c 0
 -91 1382 -134 1343 -152 1310 c 1
 -214 1343 l 1
 -187 1394 -134 1452 -60 1452 c 0
 -29 1452 3 1439 30 1413 c 0
 46 1398 59 1394 72 1394 c 0
 103 1394 147 1433 165 1466 c 1
EndSplineSet
Validated: 1
EndChar

StartChar: uni0652
Encoding: 1618 1618 28
Width: 0
VWidth: 1600
Flags: MW
AnchorPoint: "Anchor-5" 0 1243 mark 0
AnchorPoint: "Anchor-4" 0 1243 mark 0
AnchorPoint: "Anchor-1" 0 1243 mark 0
AnchorPoint: "Anchor-1" 0 1679 basemark 0
LayerCount: 2
Fore
SplineSet
0 1632 m 0
 92 1632 168 1557 168 1465 c 0
 168 1373 92 1298 0 1298 c 0
 -92 1298 -167 1373 -167 1465 c 0
 -167 1557 -92 1632 0 1632 c 0
0 1563 m 0
 -54 1563 -97 1519 -97 1465 c 0
 -97 1411 -54 1367 0 1367 c 0
 54 1367 98 1411 98 1465 c 0
 98 1519 54 1563 0 1563 c 0
EndSplineSet
Validated: 1
EndChar

StartChar: uni0651
Encoding: 1617 1617 29
Width: 0
VWidth: 1600
Flags: HMW
AnchorPoint: "Anchor-1" 0 1621 basemark 0
AnchorPoint: "Anchor-1" 0 1339 mark 0
AnchorPoint: "Anchor-4" 0 1339 mark 0
AnchorPoint: "Anchor-5" 0 1339 mark 0
LayerCount: 2
Fore
SplineSet
-127 1318 m 3
 -229 1318 -281 1387 -281 1483 c 0
 -281 1529 -271 1583 -256 1622 c 1
 -191 1596 l 1
 -204 1566 -212 1518 -212 1478 c 0
 -212 1422 -183 1389 -126 1389 c 3
 -78 1389 -56 1412 -45 1445 c 1
 -36 1474 -35 1513 -35 1561 c 2
 -35 1596 l 1
 35 1596 l 1
 35 1561 l 2
 35 1513 36 1474 45 1445 c 1
 56 1412 77 1389 125 1389 c 3
 182 1389 211 1422 211 1478 c 0
 211 1518 203 1566 190 1596 c 1
 256 1622 l 1
 271 1583 280 1529 280 1483 c 0
 280 1387 228 1318 126 1318 c 3
 67 1318 25 1347 0 1381 c 1
 -25 1347 -68 1318 -127 1318 c 3
EndSplineSet
Validated: 1
EndChar

StartChar: uni064E
Encoding: 1614 1614 30
Width: 0
VWidth: 1600
Flags: MW
AnchorPoint: "Anchor-5" 0 1399 mark 0
AnchorPoint: "Anchor-4" 0 1399 mark 0
AnchorPoint: "Anchor-1" 0 1399 mark 0
AnchorPoint: "Anchor-1" 0 1561 basemark 0
LayerCount: 2
Fore
SplineSet
201 1616 m 1
 230 1553 l 1
 -183 1360 l 1
 -212 1423 l 1
 201 1616 l 1
EndSplineSet
Validated: 1
EndChar

StartChar: uni064F
Encoding: 1615 1615 31
Width: 0
VWidth: 1600
Flags: MW
AnchorPoint: "Anchor-5" 0 1230 mark 0
AnchorPoint: "Anchor-4" 0 1230 mark 0
AnchorPoint: "Anchor-1" 0 1230 mark 0
AnchorPoint: "Anchor-1" 0 1831 basemark 0
LayerCount: 2
Fore
SplineSet
5 1695 m 0
 -45 1695 -122 1646 -122 1579 c 0
 -122 1515 -33 1482 32 1472 c 1
 49 1509 61 1562 61 1608 c 0
 61 1661 50 1695 5 1695 c 0
-178 1307 m 1
 -108 1320 -47 1350 -3 1406 c 1
 -109 1425 -193 1486 -193 1578 c 0
 -193 1686 -83 1766 5 1766 c 0
 97 1766 132 1691 132 1607 c 0
 132 1414 13 1273 -162 1237 c 1
 -178 1307 l 1
EndSplineSet
Validated: 1
EndChar

StartChar: uni064C
Encoding: 1612 1612 34
Width: 0
VWidth: 1600
Flags: MW
AnchorPoint: "Anchor-5" 0 1199 mark 0
AnchorPoint: "Anchor-4" 0 1199 mark 0
AnchorPoint: "Anchor-1" 0 1199 mark 0
AnchorPoint: "Anchor-1" 0 1949 basemark 0
LayerCount: 2
Fore
SplineSet
61 1707 m 0
 11 1707 -66 1658 -66 1591 c 0
 -66 1527 23 1494 87 1484 c 1
 105 1521 117 1573 117 1620 c 0
 117 1673 106 1707 61 1707 c 0
-122 1318 m 1
 -53 1332 9 1362 53 1418 c 1
 -53 1436 -137 1498 -137 1590 c 0
 -137 1698 -27 1778 61 1778 c 0
 153 1778 188 1703 188 1618 c 0
 188 1426 69 1285 -106 1249 c 1
 -122 1318 l 1
37 1827 m 1
 -89 1827 -191 1725 -191 1599 c 0
 -191 1549 -175 1503 -148 1465 c 1
 -213 1436 l 1
 -243 1483 -261 1539 -261 1599 c 0
 -261 1764 -128 1897 37 1897 c 1
 37 1827 l 1
EndSplineSet
Validated: 1
EndChar

StartChar: topthreedots
Encoding: 1114120 -1 44
Width: 575
VWidth: 1600
Flags: MW
LayerCount: 2
Fore
SplineSet
711 489 m 1
 838 616 l 1
 941 513 l 1
 1044 616 l 1
 1171 489 l 1
 1044 362 l 1
 941 465 l 1
 838 362 l 1
 711 489 l 1
1059 701 m 1
 942 584 l 1
 825 701 l 1
 942 818 l 1
 1059 701 l 1
EndSplineSet
Validated: 1
EndChar

StartChar: twodots
Encoding: 1114121 -1 45
Width: 540
VWidth: 1600
Flags: MW
LayerCount: 2
Fore
SplineSet
721 471 m 5
 848 598 l 5
 951 495 l 5
 1054 598 l 5
 1181 471 l 5
 1054 344 l 5
 951 447 l 5
 848 344 l 5
 721 471 l 5
EndSplineSet
Validated: 1
EndChar

StartChar: GAFbar
Encoding: 1114122 -1 46
Width: 938
VWidth: 1600
Flags: MW
LayerCount: 2
Fore
SplineSet
86 1200 m 1
 575 1515 l 1
 575 1411 l 1
 86 1096 l 1
 86 1200 l 1
EndSplineSet
Validated: 1
EndChar

StartChar: dotlessfinalBEH
Encoding: 1114123 -1 47
Width: 1750
VWidth: 1600
Flags: MW
AnchorPoint: "Anchor-5" 814 710 basechar 0
AnchorPoint: "Anchor-3" 796 -436 basechar 0
LayerCount: 2
Fore
SplineSet
832 129 m 0
 1035 129 1216 136 1323 178 c 0
 1392 206 1444 248 1444 344 c 0
 1444 374 1439 406 1433 436 c 2
 1419 499 l 1
 1545 526 l 1
 1559 463 l 2
 1578 374 1577 327 1594 230 c 0
 1609 142 1677 128 1750 128 c 2
 1764 128 l 1
 1764 -1 l 1
 1750 -1 l 2
 1630 -1 1540 36 1495 141 c 1
 1458 102 1413 75 1371 58 c 0
 1227 1 1036 0 832 0 c 0
 628 0 436 1 292 58 c 0
 198 96 90 181 90 344 c 0
 90 388 97 429 104 463 c 2
 118 526 l 1
 244 499 l 1
 230 436 l 2
 224 406 219 374 219 344 c 0
 219 248 271 206 340 178 c 0
 447 136 629 129 832 129 c 0
EndSplineSet
Validated: 1
EndChar

StartChar: dotlessinitialFEH
Encoding: 1114124 -1 48
Width: 764
VWidth: 1600
Flags: MW
AnchorPoint: "Anchor-5" 370 1196 basechar 0
AnchorPoint: "Anchor-3" 359 -246 basechar 0
LayerCount: 2
Fore
SplineSet
-14 0 m 1
 -14 129 l 1
 275 129 l 2
 392 129 464 199 491 255 c 1
 455 246 418 241 381 241 c 0
 322 241 260 252 204 282 c 0
 128 324 60 401 60 516 c 0
 60 603 94 668 128 724 c 0
 172 796 249 886 364 888 c 1
 504 888 575 772 616 674 c 0
 648 597 674 510 674 420 c 0
 674 209 537 0 299 0 c 2
 -14 0 l 1
368 759 m 3
 317 759 265 705 238 656 c 0
 213 611 190 574 190 515 c 0
 190 455 222 419 266 396 c 0
 299 378 339 370 381 370 c 0
 438 370 495 385 545 413 c 1
 545 483 526 554 497 625 c 0
 472 683 437 759 368 759 c 3
EndSplineSet
Validated: 1
EndChar

StartChar: dotlessfinalFEH
Encoding: 1114125 -1 49
Width: 1608
Flags: MW
AnchorPoint: "Anchor-5" 1259 1190 basechar 0
AnchorPoint: "Anchor-3" 632 -264 basechar 0
LayerCount: 2
Fore
SplineSet
832 0 m 1
 628 0 436 1 292 58 c 0
 198 96 90 181 90 344 c 0
 90 388 97 428 104 463 c 2
 118 526 l 1
 244 499 l 1
 230 436 l 2
 224 406 219 374 219 344 c 0
 219 248 271 206 340 178 c 0
 447 136 629 129 832 129 c 1
 1002 129 l 17
 996 137 989 145 983 154 c 0
 960 192 950 234 950 273 c 0
 950 327 964 370 980 411 c 0
 1000 464 1028 520 1074 565 c 0
 1120 611 1183 645 1256 645 c 0
 1372 645 1457 562 1501 481 c 0
 1533 424 1562 347 1562 273 c 3
 1562 234 1552 192 1529 154 c 0
 1523 145 1517 137 1511 129 c 9
 1642 129 l 1
 1642 0 l 1
 1487 0 l 2
 1410 0 1332 7 1256 20 c 1
 1180 7 1102 0 1025 0 c 2
 832 0 l 1
1093 222 m 0
 1120 179 1191 160 1256 151 c 1
 1323 161 1392 178 1419 222 c 0
 1427 236 1432 256 1432 278 c 0
 1432 327 1406 386 1385 422 c 0
 1361 466 1312 516 1256 516 c 0
 1226 516 1191 499 1165 473 c 0
 1138 446 1117 408 1100 365 c 0
 1088 334 1080 307 1080 278 c 0
 1080 256 1085 236 1093 222 c 0
EndSplineSet
Validated: 1
EndChar

StartChar: dotlessmedialFEH
Encoding: 1114126 -1 50
Width: 743
VWidth: 1614
Flags: MW
AnchorPoint: "Anchor-5" 361 1146 basechar 0
AnchorPoint: "Anchor-3" 376 -331 basechar 0
LayerCount: 2
Fore
SplineSet
677 273 m 3
 677 234 667 192 644 154 c 0
 638 145 632 137 626 129 c 9
 757 129 l 1
 757 0 l 1
 602 0 l 2
 525 0 447 7 371 20 c 1
 295 7 217 0 140 0 c 2
 -14 0 l 1
 -14 129 l 1
 117 129 l 17
 111 137 104 145 98 154 c 0
 75 192 65 234 65 273 c 0
 65 327 79 370 95 411 c 0
 115 464 143 520 189 565 c 0
 235 611 298 645 371 645 c 0
 487 645 572 562 616 481 c 0
 648 424 677 347 677 273 c 3
208 222 m 0
 235 179 306 160 371 151 c 1
 438 161 507 178 534 222 c 0
 542 236 547 256 547 278 c 0
 547 327 521 386 500 422 c 0
 476 466 427 516 371 516 c 0
 341 516 306 499 280 473 c 0
 253 446 232 408 215 365 c 0
 203 334 195 307 195 278 c 0
 195 256 200 236 208 222 c 0
EndSplineSet
Validated: 1
EndChar

StartChar: dotlessfinalQAF
Encoding: 1114127 -1 51
Width: 1454
VWidth: 1600
Flags: MW
AnchorPoint: "Anchor-5" 1085 1114 basechar 0
AnchorPoint: "Anchor-3" 681 -857 basechar 0
LayerCount: 2
Fore
SplineSet
686 -580 m 0
 393 -580 90 -412 90 -107 c 0
 90 102 247 326 582 489 c 1
 637 373 l 1
 330 224 219 41 219 -107 c 0
 219 -326 440 -451 686 -451 c 0
 913 -451 1242 -264 1262 0 c 1
 1095 0 l 2
 905 0 780 109 780 278 c 0
 780 456 921 645 1092 645 c 0
 1281 645 1387 362 1397 129 c 1
 1464 129 l 1
 1478 129 l 1
 1478 0 l 1
 1449 0 1420 0 1391 0 c 1
 1337 -400 944 -580 686 -580 c 0
1092 516 m 0
 1002 516 908 394 908 281 c 0
 908 169 994 130 1099 130 c 2
 1263 130 l 1
 1263 141 1263 152 1263 163 c 0
 1263 300 1178 516 1092 516 c 0
EndSplineSet
Validated: 1
EndChar

StartChar: dotlessinitialNOON
Encoding: 1114128 -1 52
Width: 1572
VWidth: 1600
Flags: MW
AnchorPoint: "Anchor-5" 800 706 basechar 0
AnchorPoint: "Anchor-3" 686 -664 basechar 0
LayerCount: 2
Fore
SplineSet
1403 52 m 1
 1396 -48 1370 -143 1324 -222 c 0
 1198 -441 931 -580 686 -580 c 0
 356 -580 90 -396 90 -107 c 0
 90 110 260 344 623 508 c 1
 676 391 l 1
 340 239 219 47 219 -107 c 0
 219 -307 405 -451 686 -451 c 0
 879 -451 1115 -326 1212 -158 c 0
 1253 -86 1275 9 1275 113 c 0
 1275 213 1255 321 1211 424 c 1
 1196 457 l 1
 1315 508 l 1
 1329 475 l 2
 1361 399 1384 291 1417 224 c 0
 1448 161 1475 129 1582 129 c 2
 1596 129 l 1
 1596 0 l 1
 1582 0 l 2
 1509 0 1450 21 1403 52 c 1
EndSplineSet
Validated: 1
EndChar

StartChar: uniFEFB
Encoding: 65275 65275 54
Width: 971
VWidth: 1600
Flags: MW
AnchorPoint: "Anchor-4" 212 1364 baselig 1
AnchorPoint: "Anchor-4" 805 1390 baselig 0
AnchorPoint: "Anchor-2" 403 -190 baselig 1
AnchorPoint: "Anchor-2" 760 -195 baselig 0
LayerCount: 2
Fore
SplineSet
871 344 m 0
 871 181 763 81 669 43 c 0
 594 13 497 0 396 0 c 0
 293 0 184 14 90 38 c 1
 90 167 l 1
 178 143 287 130 390 130 c 0
 479 130 563 140 621 163 c 0
 690 191 742 248 742 344 c 0
 742 1217 l 1
 871 1217 l 1
 871 344 l 0
293 288 m 1
 295 327 298 386 298 446 c 0
 298 695 250 944 153 1156 c 1
 265 1215 l 1
 373 991 426 722 426 451 c 0
 426 390 423 329 421 288 c 1
 293 288 l 1
EndSplineSet
Validated: 1
PairPos2: "'kern' Horizontal Kerning lookup 6 subtable 1" uni0686 dx=-310 dy=0 dh=-310 dv=0 dx=0 dy=0 dh=0 dv=0
PairPos2: "'kern' Horizontal Kerning lookup 6 subtable 1" uni062C dx=-310 dy=0 dh=-310 dv=0 dx=0 dy=0 dh=0 dv=0
PairPos2: "'kern' Horizontal Kerning lookup 6 subtable 1" uni062E dx=-310 dy=0 dh=-310 dv=0 dx=0 dy=0 dh=0 dv=0
PairPos2: "'kern' Horizontal Kerning lookup 6 subtable 1" uni062D dx=-310 dy=0 dh=-310 dv=0 dx=0 dy=0 dh=0 dv=0
LCarets2: 1 0
PairPos2: "'kern' Horizontal Kerning lookup 6 subtable 1" uni063A dx=-350 dy=0 dh=-350 dv=0 dx=0 dy=0 dh=0 dv=0
PairPos2: "'kern' Horizontal Kerning lookup 6 subtable 1" uni0639 dx=-350 dy=0 dh=-350 dv=0 dx=0 dy=0 dh=0 dv=0
Ligature2: "'rlig' Required Ligatures in Arabic lookup 1 subtable" uniFEDF uniFE8E
EndChar

StartChar: uniFEFC
Encoding: 65276 65276 55
Width: 1086
VWidth: 1600
Flags: MW
AnchorPoint: "Anchor-4" 200 1364 baselig 1
AnchorPoint: "Anchor-4" 783 1369 baselig 0
AnchorPoint: "Anchor-2" 404 -176 baselig 1
AnchorPoint: "Anchor-2" 797 -175 baselig 0
LayerCount: 2
Fore
SplineSet
293 288 m 1
 295 327 298 386 298 446 c 0
 298 695 250 944 153 1156 c 1
 265 1215 l 1
 373 991 426 722 426 451 c 0
 426 390 423 329 421 288 c 1
 293 288 l 1
871 444 m 2
 871 357 871 285 889 232 c 0
 910 166 960 129 1066 129 c 2
 1100 129 l 1
 1100 0 l 1
 1066 0 l 2
 948 0 857 47 807 115 c 2
 794 133 l 1
 757 90 712 60 669 43 c 0
 594 13 497 0 396 0 c 0
 293 0 184 14 90 38 c 1
 90 167 l 1
 178 143 287 130 390 130 c 0
 479 130 563 140 621 163 c 0
 690 191 742 248 742 344 c 2
 742 1217 l 1
 871 1217 l 1
 871 444 l 2
EndSplineSet
Validated: 1
PairPos2: "'kern' Horizontal Kerning lookup 6 subtable 1" uni0686 dx=-310 dy=0 dh=-310 dv=0 dx=0 dy=0 dh=0 dv=0
PairPos2: "'kern' Horizontal Kerning lookup 6 subtable 1" uni062C dx=-310 dy=0 dh=-310 dv=0 dx=0 dy=0 dh=0 dv=0
PairPos2: "'kern' Horizontal Kerning lookup 6 subtable 1" uni062E dx=-310 dy=0 dh=-310 dv=0 dx=0 dy=0 dh=0 dv=0
PairPos2: "'kern' Horizontal Kerning lookup 6 subtable 1" uni062D dx=-310 dy=0 dh=-310 dv=0 dx=0 dy=0 dh=0 dv=0
LCarets2: 1 0
PairPos2: "'kern' Horizontal Kerning lookup 6 subtable 1" uni063A dx=-350 dy=0 dh=-350 dv=0 dx=0 dy=0 dh=0 dv=0
PairPos2: "'kern' Horizontal Kerning lookup 6 subtable 1" uni0639 dx=-350 dy=0 dh=-350 dv=0 dx=0 dy=0 dh=0 dv=0
Ligature2: "'rlig' Required Ligatures in Arabic lookup 1 subtable" uniFEE0 uniFE8E
EndChar

StartChar: uni060C
Encoding: 1548 1548 62
Width: 523
VWidth: 1600
Flags: MW
LayerCount: 2
Fore
SplineSet
253 458 m 1
 260 467 270 474 282 474 c 0
 301 474 317 457 317 438 c 0
 317 431 315 425 311 419 c 1
 212 271 l 2
 207 264 205 258 205 253 c 0
 205 207 433 274 433 171 c 3
 433 82 360 0 262 0 c 3
 163 0 90 82 90 173 c 3
 90 211 100 241 121 271 c 2
 253 458 l 1
EndSplineSet
Validated: 1
EndChar

StartChar: uni0615
Encoding: 1557 1557 64
Width: 0
VWidth: 1600
Flags: MW
AnchorPoint: "Anchor-5" 142 1042 mark 0
AnchorPoint: "Anchor-4" 142 1042 mark 0
AnchorPoint: "Anchor-1" 142 1042 mark 0
AnchorPoint: "Anchor-1" 124 1675 basemark 0
LayerCount: 2
Fore
SplineSet
462 1311 m 3
 462 1175 296 1147 176 1147 c 2
 20 1147 l 1
 20 1217 l 1
 96 1217 l 1
 92 1584 l 1
 162 1585 l 1
 165 1296 l 1
 190 1355 254 1430 338 1430 c 3
 410 1430 462 1385 462 1311 c 3
338 1360 m 3
 265 1360 225 1267 201 1218 c 1
 268 1222 392 1231 392 1311 c 3
 392 1340 367 1360 338 1360 c 3
EndSplineSet
Validated: 1
EndChar

StartChar: less
Encoding: 60 60 66
Width: 619
VWidth: 1600
Flags: MW
LayerCount: 2
Fore
SplineSet
438 876 m 1
 529 785 l 1
 272 528 l 1
 529 272 l 1
 438 180 l 1
 90 528 l 1
 438 876 l 1
EndSplineSet
Validated: 1
EndChar

StartChar: equal
Encoding: 61 61 67
Width: 696
VWidth: 1600
Flags: MW
LayerCount: 2
Fore
SplineSet
90 560 m 1
 606 560 l 1
 606 431 l 1
 90 431 l 1
 90 560 l 1
90 302 m 1
 606 302 l 1
 606 174 l 1
 90 174 l 1
 90 302 l 1
EndSplineSet
Validated: 1
EndChar

StartChar: braceleft
Encoding: 123 123 69
Width: 554
VWidth: 1600
Flags: MW
LayerCount: 2
Fore
SplineSet
226 640 m 1
 264 607 330 541 330 478 c 0
 330 233 l 0
 330 155 358 129 397 129 c 1
 464 129 l 1
 464 0 l 1
 397 0 l 1
 282 0 199 85 199 231 c 0
 201 471 l 0
 201 529 150 587 104 618 c 1
 94 624 90 632 90 640 c 0
 90 648 94 656 104 662 c 1
 150 693 201 751 201 809 c 0
 199 1049 l 0
 199 1195 282 1280 397 1280 c 1
 464 1280 l 1
 464 1151 l 1
 397 1151 l 1
 358 1151 330 1125 330 1047 c 0
 330 802 l 0
 330 739 264 673 226 640 c 1
EndSplineSet
Validated: 1
EndChar

StartChar: uni061F
Encoding: 1567 1567 73
Width: 930
VWidth: 1600
Flags: MW
LayerCount: 2
Fore
SplineSet
463 1217 m 0
 686 1217 840 1039 840 841 c 1
 711 841 l 1
 711 971 610 1088 464 1088 c 0
 339 1088 219 990 219 841 c 0
 219 755 264 673 342 628 c 0
 458 561 529 436 529 302 c 1
 401 302 l 1
 401 390 353 472 277 516 c 0
 158 585 90 711 90 842 c 0
 90 1068 275 1216 463 1217 c 0
EndSplineSet
Refer: 0 46 N 1 0 0 1 295 0 2
Validated: 1
EndChar

StartChar: uni0621
Encoding: 1569 1569 74
Width: 668
VWidth: 1600
Flags: MW
AnchorPoint: "Anchor-5" 321 865 basechar 0
AnchorPoint: "Anchor-3" 337 -88 basechar 0
LayerCount: 2
Fore
SplineSet
362 645 m 3
 388 645 414 641 443 634 c 1
 409 510 l 1
 392 515 375 517 360 517 c 3
 275 517 212 473 212 388 c 3
 212 337 260 296 338 296 c 3
 403 296 479 315 514 336 c 1
 578 224 l 1
 186 0 l 1
 122 112 l 1
 241 180 l 1
 162 204 83 291 83 388 c 3
 83 540 201 645 362 645 c 3
EndSplineSet
Validated: 1
EndChar

StartChar: uni0627
Encoding: 1575 1575 75
Width: 329
VWidth: 1600
Flags: MW
AnchorPoint: "Anchor-5" 165 1354 basechar 0
AnchorPoint: "Anchor-3" 170 -130 basechar 0
LayerCount: 2
Fore
SplineSet
100 1217 m 1
 229 1217 l 1
 229 0 l 1
 100 0 l 1
 100 1217 l 1
EndSplineSet
Validated: 1
PairPos2: "'kern' Horizontal Kerning lookup 6 subtable 3" uni063A dx=-293 dy=0 dh=-293 dv=0 dx=0 dy=0 dh=0 dv=0
PairPos2: "'kern' Horizontal Kerning lookup 6 subtable 3" uni0639 dx=-293 dy=0 dh=-293 dv=0 dx=0 dy=0 dh=0 dv=0
Substitution2: "'medi' Medial Forms in Arabic lookup 1 subtable" uniFE8E
Substitution2: "'fina' Terminal Forms in Arabic lookup 1 subtable" uniFE8E
EndChar

StartChar: uni062D
Encoding: 1581 1581 76
Width: 1258
VWidth: 1600
Flags: MW
AnchorPoint: "Anchor-5" 435 934 basechar 0
AnchorPoint: "Anchor-3" 647 -1229 basechar 0
LayerCount: 2
Fore
SplineSet
437 644 m 0
 637 644 895 545 1062 512 c 1
 1067 392 l 1
 794 270 218 6 218 -391 c 0
 218 -628 437 -741 656 -741 c 0
 826 -741 965 -673 1069 -542 c 1
 1168 -625 l 1
 1030 -789 879 -870 656 -870 c 0
 411 -870 90 -737 90 -394 c 0
 90 17 568 293 848 434 c 1
 728 459 574 515 437 515 c 0
 352 515 271 457 271 373 c 0
 271 334 295 291 319 256 c 1
 212 185 l 1
 173 244 150 294 144 373 c 1
 146 533 281 644 437 644 c 0
EndSplineSet
Validated: 1
Substitution2: "'init' Initial Forms in Arabic lookup 1 subtable" uniFEA3
Substitution2: "'medi' Medial Forms in Arabic lookup 1 subtable" uniFEA4
Substitution2: "'fina' Terminal Forms in Arabic lookup 1 subtable" uniFEA2
EndChar

StartChar: uni062F
Encoding: 1583 1583 77
Width: 795
VWidth: 1600
Flags: MW
AnchorPoint: "Anchor-5" 406 1036 basechar 0
AnchorPoint: "Anchor-3" 361 -277 basechar 0
LayerCount: 2
Fore
SplineSet
395 775 m 1
 538 626 705 436 705 234 c 0
 705 46 489 -14 264 -14 c 0
 206 -14 147 -9 90 -0 c 1
 90 134 l 1
 145 123 206 118 265 118 c 0
 421 118 576 145 576 231 c 0
 576 383 430 551 304 684 c 1
 395 775 l 1
EndSplineSet
Validated: 1
PairPos2: "'kern' Horizontal Kerning lookup 6 subtable 3" uni063A dx=-457 dy=0 dh=-457 dv=0 dx=0 dy=0 dh=0 dv=0
PairPos2: "'kern' Horizontal Kerning lookup 6 subtable 3" uni0639 dx=-457 dy=0 dh=-457 dv=0 dx=0 dy=0 dh=0 dv=0
Substitution2: "'fina' Terminal Forms in Arabic lookup 1 subtable" uniFEAA
EndChar

StartChar: uni0631
Encoding: 1585 1585 78
Width: 481
VWidth: 1600
Flags: MW
AnchorPoint: "Anchor-3" 139 -682 basechar 0
AnchorPoint: "Anchor-5" 254 694 basechar 0
LayerCount: 2
Fore
SplineSet
318 475 m 1
 360 377 391 253 391 134 c 0
 391 -175 187 -391 -124 -512 c 1
 -170 -391 l 1
 68 -297 263 -137 263 130 c 0
 263 229 238 326 200 424 c 1
 318 475 l 1
EndSplineSet
Validated: 1
PairPos2: "'kern' Horizontal Kerning lookup 6 subtable 1" uni062E dx=-260 dy=0 dh=-260 dv=0 dx=0 dy=0 dh=0 dv=0
PairPos2: "'kern' Horizontal Kerning lookup 6 subtable 4" uniE004 dx=100 dy=0 dh=100 dv=0 dx=0 dy=0 dh=0 dv=0
PairPos2: "'kern' Horizontal Kerning lookup 6 subtable 4" uniE002 dx=100 dy=0 dh=100 dv=0 dx=0 dy=0 dh=0 dv=0
PairPos2: "'kern' Horizontal Kerning lookup 6 subtable 4" uniE000 dx=100 dy=0 dh=100 dv=0 dx=0 dy=0 dh=0 dv=0
PairPos2: "'kern' Horizontal Kerning lookup 6 subtable 1" uni062D dx=-260 dy=0 dh=-260 dv=0 dx=0 dy=0 dh=0 dv=0
PairPos2: "'kern' Horizontal Kerning lookup 6 subtable 1" uni063A dx=-280 dy=0 dh=-280 dv=0 dx=0 dy=0 dh=0 dv=0
PairPos2: "'kern' Horizontal Kerning lookup 6 subtable 1" uni0639 dx=-280 dy=0 dh=-280 dv=0 dx=0 dy=0 dh=0 dv=0
PairPos2: "'kern' Horizontal Kerning lookup 6 subtable 1" uni06CC dx=120 dy=0 dh=120 dv=0 dx=0 dy=0 dh=0 dv=0
PairPos2: "'kern' Horizontal Kerning lookup 6 subtable 1" uni0644 dx=120 dy=0 dh=120 dv=0 dx=0 dy=0 dh=0 dv=0
PairPos2: "'kern' Horizontal Kerning lookup 6 subtable 1" uni0649 dx=120 dy=0 dh=120 dv=0 dx=0 dy=0 dh=0 dv=0
Substitution2: "'fina' Terminal Forms in Arabic lookup 1 subtable" uniFEAE
EndChar

StartChar: uni0633
Encoding: 1587 1587 79
Width: 2396
VWidth: 1600
Flags: HMW
AnchorPoint: "Anchor-5" 1838 801 basechar 0
AnchorPoint: "Anchor-3" 681 -865 basechar 0
LayerCount: 2
Back
Refer: 119 65203 N 1 0 0 1 996 0 2
Refer: 119 65203 N 1 0 0 1 996 0 2
Fore
SplineSet
1314 508 m 1
 1347 415 1377 303 1417 224 c 0
 1448 161 1495 129 1562 129 c 1
 1650 129 1691 172 1711 232 c 1
 1728 285 1729 357 1729 444 c 2
 1729 508 l 1
 1857 508 l 1
 1857 444 l 2
 1857 357 1858 285 1875 232 c 1
 1895 172 1934 129 2022 129 c 3
 2127 129 2180 190 2180 293 c 0
 2180 367 2164 454 2141 508 c 1
 2261 555 l 1
 2288 483 2306 386 2306 301 c 0
 2306 125 2211 0 2024 0 c 3
 1917 0 1839 52 1793 115 c 1
 1747 52 1669 0 1562 0 c 1
 1509 0 1450 21 1403 52 c 1
 1396 -48 1370 -143 1324 -222 c 0
 1198 -441 931 -580 686 -580 c 0
 356 -580 90 -396 90 -107 c 0
 90 110 260 344 623 508 c 1
 676 391 l 1
 340 239 219 47 219 -107 c 0
 219 -307 405 -451 686 -451 c 0
 879 -451 1115 -326 1212 -158 c 0
 1253 -86 1275 9 1275 113 c 0
 1275 228 1237 352 1196 458 c 1
 1314 508 l 1
EndSplineSet
Validated: 1
Substitution2: "'init' Initial Forms in Arabic lookup 1 subtable" uniFEB3
Substitution2: "'medi' Medial Forms in Arabic lookup 1 subtable" uniFEB4
Substitution2: "'fina' Terminal Forms in Arabic lookup 1 subtable" uniFEB2
EndChar

StartChar: uni0635
Encoding: 1589 1589 80
Width: 2357
VWidth: 1600
Flags: MW
AnchorPoint: "Anchor-5" 1968 920 basechar 0
AnchorPoint: "Anchor-3" 679 -849 basechar 0
LayerCount: 2
Fore
SplineSet
1473 184 m 1
 1568 386 1766 664 1993 664 c 3
 2168 664 2267 527 2267 378 c 3
 2267 163 2037 0 1698 0 c 0
 1591 0 1492 33 1404 76 c 1
 1404 76 1403 64 1402 52 c 0
 1394 -48 1370 -142 1324 -222 c 0
 1198 -441 931 -580 686 -580 c 0
 356 -580 90 -396 90 -107 c 0
 90 110 260 344 623 508 c 1
 676 391 l 1
 340 239 219 47 219 -107 c 0
 219 -307 405 -451 686 -451 c 0
 879 -451 1115 -325 1212 -157 c 0
 1253 -85 1276 9 1276 113 c 0
 1276 213 1255 321 1211 424 c 1
 1196 457 l 1
 1315 508 l 1
 1329 475 l 2
 1380 356 1410 210 1473 184 c 1
1993 535 m 3
 1838 535 1662 279 1598 141 c 1
 1631 133 1665 129 1698 129 c 3
 1973 129 2138 237 2138 378 c 3
 2138 461 2097 535 1993 535 c 3
EndSplineSet
Validated: 1
Substitution2: "'init' Initial Forms in Arabic lookup 1 subtable" uniFEBB
Substitution2: "'medi' Medial Forms in Arabic lookup 1 subtable" uniFEBC
Substitution2: "'fina' Terminal Forms in Arabic lookup 1 subtable" uniFEBA
EndChar

StartChar: uni0637
Encoding: 1591 1591 81
Width: 1174
VWidth: 1600
Flags: MW
AnchorPoint: "Anchor-5" 817 1043 basechar 0
AnchorPoint: "Anchor-3" 542 -237 basechar 0
LayerCount: 2
Fore
SplineSet
946 389 m 0
 946 478 885 536 801 536 c 0
 640 536 462 262 400 127 c 1
 691 128 946 179 946 389 c 0
90 0 m 1
 90 127 l 1
 253 127 l 1
 253 1217 l 1
 382 1217 l 1
 382 363 l 1
 486 517 635 665 801 665 c 0
 957 665 1075 545 1075 389 c 0
 1075 89 766 0 382 0 c 2
 90 0 l 1
EndSplineSet
Validated: 1
Substitution2: "'init' Initial Forms in Arabic lookup 1 subtable" uniFEC3
Substitution2: "'medi' Medial Forms in Arabic lookup 1 subtable" uniFEC4
Substitution2: "'fina' Terminal Forms in Arabic lookup 1 subtable" uniFEC2
EndChar

StartChar: uni0639
Encoding: 1593 1593 82
Width: 1224
VWidth: 1600
Flags: MW
AnchorPoint: "Anchor-5" 572 1196 basechar 0
AnchorPoint: "Anchor-3" 716 -1065 basechar 0
LayerCount: 2
Fore
SplineSet
593 910 m 0
 646 910 694 905 745 889 c 1
 720 762 l 1
 679 777 641 781 597 781 c 0
 424 781 331 654 331 528 c 0
 331 426 424 379 534 379 c 0
 627 379 768 414 836 435 c 1
 877 312 l 1
 813 297 759 279 701 259 c 1
 528 196 388 89 305 -40 c 0
 249 -126 218 -222 218 -326 c 0
 218 -377 226 -430 242 -485 c 0
 266 -565 325 -627 411 -672 c 0
 497 -717 606 -741 717 -741 c 0
 856 -741 975 -697 1076 -645 c 1
 1134 -760 l 1
 1014 -821 871 -870 717 -870 c 0
 588 -870 459 -844 351 -787 c 0
 243 -730 153 -641 118 -522 c 0
 99 -457 90 -393 90 -330 c 0
 90 -199 129 -76 197 30 c 0
 254 119 330 196 421 259 c 1
 304 279 202 396 202 528 c 0
 202 736 353 910 593 910 c 0
EndSplineSet
Validated: 1
Substitution2: "'init' Initial Forms in Arabic lookup 1 subtable" uniFECB
Substitution2: "'medi' Medial Forms in Arabic lookup 1 subtable" uniFECC
Substitution2: "'fina' Terminal Forms in Arabic lookup 1 subtable" uniFECA
EndChar

StartChar: uni0640
Encoding: 1600 1600 83
Width: 488
VWidth: 1600
Flags: MW
AnchorPoint: "Anchor-5" 115 1035 basechar 0
AnchorPoint: "Anchor-3" 109 -643 basechar 0
LayerCount: 2
Fore
SplineSet
502 0 m 1
 -14 0 l 1
 -14 129 l 1
 502 129 l 1
 502 0 l 1
EndSplineSet
Validated: 1
EndChar

StartChar: uni0644
Encoding: 1604 1604 84
Width: 1484
VWidth: 1600
Flags: MW
AnchorPoint: "Anchor-5" 612 782 basechar 0
AnchorPoint: "Anchor-3" 686 -810 basechar 0
LayerCount: 2
Fore
SplineSet
1266 1217 m 1
 1394 1217 l 1
 1394 25 l 2
 1394 -329 1003 -580 686 -580 c 0
 393 -580 90 -412 90 -107 c 0
 90 110 260 344 623 508 c 1
 676 391 l 1
 340 239 219 47 219 -107 c 0
 219 -326 440 -451 686 -451 c 0
 920 -451 1266 -253 1266 25 c 2
 1266 1217 l 1
EndSplineSet
Validated: 1
Substitution2: "'init' Initial Forms in Arabic lookup 1 subtable" uniFEDF
Substitution2: "'medi' Medial Forms in Arabic lookup 1 subtable" uniFEE0
Substitution2: "'fina' Terminal Forms in Arabic lookup 1 subtable" uniFEDE
EndChar

StartChar: uni0645
Encoding: 1605 1605 85
Width: 1076
Flags: MW
AnchorPoint: "Anchor-5" 659 898 basechar 0
AnchorPoint: "Anchor-3" 664 -415 basechar 0
LayerCount: 2
Fore
SplineSet
668 618 m 0
 758 618 838 570 894 504 c 0
 950 438 986 350 986 258 c 0
 986 202 972 138 928 86 c 0
 884 34 812 0 720 0 c 0
 608 0 496 18 410 18 c 0
 339 18 288 5 258 -34 c 0
 236 -62 218 -110 218 -198 c 0
 220 -842 l 1
 90 -842 l 1
 90 -196 l 1
 90 -92 112 -12 156 46 c 0
 198 102 280 144 342 144 c 1
 356 246 l 2
 372 360 408 452 462 516 c 0
 516 580 592 618 668 618 c 0
668 490 m 0
 632 490 596 476 562 434 c 0
 528 392 498 324 484 228 c 2
 472 148 l 1
 556 144 644 130 720 130 c 0
 784 130 812 148 830 170 c 0
 848 192 856 224 856 258 c 0
 856 316 832 376 794 420 c 0
 756 464 710 490 668 490 c 0
EndSplineSet
Validated: 1
Substitution2: "'init' Initial Forms in Arabic lookup 1 subtable" uniFEE3
Substitution2: "'medi' Medial Forms in Arabic lookup 1 subtable" uniFEE4
Substitution2: "'fina' Terminal Forms in Arabic lookup 1 subtable" uniFEE2
EndChar

StartChar: uni0647
Encoding: 1607 1607 86
Width: 759
VWidth: 1600
Flags: MW
AnchorPoint: "Anchor-5" 367 995 basechar 0
AnchorPoint: "Anchor-3" 377 -221 basechar 0
LayerCount: 2
Fore
SplineSet
277 758 m 1
 462 672 669 482 669 258 c 0
 669 93 551 0 379 0 c 0
 207 0 90 93 90 258 c 0
 90 388 166 529 266 618 c 1
 215 645 l 1
 277 758 l 1
379 543 m 1
 307 471 219 367 219 258 c 0
 219 177 273 129 379 129 c 0
 485 129 540 177 540 258 c 0
 540 367 451 471 379 543 c 1
EndSplineSet
Validated: 1
Substitution2: "'init' Initial Forms in Arabic lookup 1 subtable" uniFEEB
Substitution2: "'medi' Medial Forms in Arabic lookup 1 subtable" uniFEEC
Substitution2: "'fina' Terminal Forms in Arabic lookup 1 subtable" uniFEEA
EndChar

StartChar: uni0648
Encoding: 1608 1608 87
Width: 785
VWidth: 1600
Flags: MW
AnchorPoint: "Anchor-5" 408 890 basechar 0
AnchorPoint: "Anchor-3" 378 -704 basechar 0
LayerCount: 2
Fore
SplineSet
395 517 m 0
 305 517 211 395 211 282 c 0
 211 170 296 131 401 131 c 0
 452 131 509 140 562 155 c 1
 562 158 562 162 562 165 c 0
 562 302 481 517 395 517 c 0
555 20 m 1
 508 10 446 0 397 0 c 0
 207 0 82 110 82 279 c 0
 82 457 224 646 395 646 c 0
 593 646 691 336 691 165 c 0
 691 -206 491 -391 180 -512 c 1
 134 -391 l 1
 338 -311 509 -182 555 20 c 1
EndSplineSet
Validated: 1
PairPos2: "'kern' Horizontal Kerning lookup 6 subtable 3" uni063A dx=-299 dy=0 dh=-299 dv=0 dx=0 dy=0 dh=0 dv=0
PairPos2: "'kern' Horizontal Kerning lookup 6 subtable 3" uni0639 dx=-299 dy=0 dh=-299 dv=0 dx=0 dy=0 dh=0 dv=0
Substitution2: "'fina' Terminal Forms in Arabic lookup 1 subtable" uniFEEE
EndChar

StartChar: uni065A
Encoding: 1626 1626 89
Width: 0
VWidth: 1600
Flags: MW
AnchorPoint: "Anchor-5" 0 1271 mark 0
AnchorPoint: "Anchor-4" 0 1271 mark 0
AnchorPoint: "Anchor-1" 0 1271 mark 0
AnchorPoint: "Anchor-1" 0 1637 basemark 0
LayerCount: 2
Fore
SplineSet
226 1587 m 1
 31 1309 l 1
 -26 1309 l 1
 -221 1587 l 1
 -136 1587 l 1
 2 1390 l 1
 140 1587 l 1
 226 1587 l 1
EndSplineSet
Validated: 1
EndChar

StartChar: uni066A
Encoding: 1642 1642 90
Width: 1108
VWidth: 1600
Flags: MW
LayerCount: 2
Fore
SplineSet
292 1217 m 4
 403 1217 494 1126 494 1015 c 4
 494 904 403 813 292 813 c 4
 181 813 90 904 90 1015 c 4
 90 1126 181 1217 292 1217 c 4
807 1217 m 1
 948 1217 l 1
 301 0 l 1
 160 0 l 1
 807 1217 l 1
292 1124 m 4
 231 1124 183 1076 183 1015 c 4
 183 954 231 906 292 906 c 4
 353 906 401 954 401 1015 c 4
 401 1076 353 1124 292 1124 c 4
816 404 m 0
 927 404 1018 313 1018 202 c 0
 1018 91 927 0 816 0 c 0
 705 0 614 91 614 202 c 0
 614 313 705 404 816 404 c 0
816 311 m 0
 755 311 707 263 707 202 c 0
 707 141 755 93 816 93 c 0
 877 93 925 141 925 202 c 0
 925 263 877 311 816 311 c 0
EndSplineSet
Validated: 1
EndChar

StartChar: uni066C
Encoding: 1644 1644 91
Width: 439
VWidth: 1600
Flags: MW
LayerCount: 2
Fore
SplineSet
186 781 m 1
 179 772 169 765 157 765 c 0
 138 765 122 782 122 801 c 0
 122 808 124 814 128 820 c 1
 215 951 l 17
 162 951 90 982 90 1068 c 3
 90 1127 149 1199 217 1199 c 3
 286 1199 349 1137 349 1066 c 3
 349 1028 339 998 318 968 c 2
 186 781 l 1
EndSplineSet
Validated: 1
EndChar

StartChar: uni066D
Encoding: 1645 1645 92
Width: 786
VWidth: 1600
Flags: MW
LayerCount: 2
Fore
SplineSet
358 948 m 1
 428 948 l 1
 428 730 l 1
 583 884 l 1
 632 835 l 1
 478 680 l 1
 696 680 l 1
 696 610 l 1
 478 610 l 1
 632 456 l 1
 583 406 l 1
 428 561 l 1
 428 342 l 1
 358 342 l 1
 358 561 l 1
 204 406 l 1
 154 456 l 1
 309 610 l 1
 90 610 l 1
 90 680 l 1
 309 680 l 1
 154 835 l 1
 204 884 l 1
 358 730 l 1
 358 948 l 1
EndSplineSet
Validated: 1
EndChar

StartChar: uni066E
Encoding: 1646 1646 93
Width: 1663
VWidth: 1600
Flags: MW
AnchorPoint: "Anchor-5" 837 742 basechar 0
AnchorPoint: "Anchor-3" 835 -416 basechar 0
LayerCount: 2
Fore
SplineSet
832 129 m 0
 1035 129 1216 136 1323 178 c 0
 1392 206 1444 248 1444 344 c 0
 1444 374 1439 406 1433 436 c 2
 1419 499 l 1
 1545 526 l 1
 1559 463 l 2
 1566 428 1573 388 1573 344 c 0
 1573 181 1465 96 1371 58 c 0
 1227 1 1035 0 832 0 c 0
 628 0 436 1 292 58 c 0
 198 96 90 181 90 344 c 0
 90 388 97 428 104 463 c 2
 118 526 l 1
 244 499 l 1
 230 436 l 2
 224 406 219 374 219 344 c 0
 219 248 271 206 340 178 c 0
 447 136 629 129 832 129 c 0
EndSplineSet
Validated: 1
Substitution2: "'fina' Terminal Forms in Arabic lookup 1 subtable" dotlessfinalBEH
Substitution2: "'medi' Medial Forms in Arabic lookup 1 subtable" uniFBE9
Substitution2: "'init' Initial Forms in Arabic lookup 1 subtable" uniFBE8
EndChar

StartChar: uni066F
Encoding: 1647 1647 94
Width: 1488
VWidth: 1600
Flags: MW
AnchorPoint: "Anchor-5" 1100 971 basechar 0
AnchorPoint: "Anchor-3" 682 -858 basechar 0
LayerCount: 2
Fore
SplineSet
637 373 m 1
 330 224 219 41 219 -107 c 0
 219 -326 440 -451 686 -451 c 0
 920 -451 1266 -253 1266 25 c 1
 1210 12 l 1
 1170 4 1131 0 1095 0 c 0
 905 0 780 109 780 278 c 0
 780 456 921 645 1092 645 c 0
 1290 645 1398 333 1398 95 c 0
 1398 -372 964 -580 686 -580 c 0
 393 -580 90 -412 90 -107 c 0
 90 102 247 326 582 489 c 1
 637 373 l 1
1092 516 m 0
 1002 516 908 394 908 281 c 0
 908 169 994 130 1099 130 c 0
 1150 130 1207 139 1260 154 c 1
 1260 157 1260 161 1260 164 c 0
 1260 301 1178 516 1092 516 c 0
EndSplineSet
Validated: 1
Substitution2: "'init' Initial Forms in Arabic lookup 1 subtable" dotlessinitialFEH
Substitution2: "'medi' Medial Forms in Arabic lookup 1 subtable" dotlessmedialFEH
Substitution2: "'fina' Terminal Forms in Arabic lookup 1 subtable" dotlessfinalQAF
EndChar

StartChar: uni0670
Encoding: 1648 1648 95
Width: 0
VWidth: 1600
Flags: MW
AnchorPoint: "Anchor-5" 0 1235 mark 0
AnchorPoint: "Anchor-4" 0 1235 mark 0
AnchorPoint: "Anchor-1" 0 1235 mark 0
AnchorPoint: "Anchor-1" 0 1751 basemark 0
LayerCount: 2
Fore
SplineSet
-32 1686 m 1
 38 1686 l 1
 38 1298 l 1
 -32 1298 l 1
 -32 1686 l 1
EndSplineSet
Validated: 1
EndChar

StartChar: uni06A1
Encoding: 1697 1697 96
Width: 1667
VWidth: 1600
Flags: MW
AnchorPoint: "Anchor-5" 1280 1184 basechar 0
AnchorPoint: "Anchor-3" 681 -300 basechar 0
LayerCount: 2
Fore
SplineSet
832 0 m 1
 628 0 436 1 292 58 c 0
 198 96 90 181 90 344 c 0
 90 388 97 429 104 463 c 2
 118 526 l 1
 244 499 l 1
 230 436 l 2
 224 406 219 374 219 344 c 0
 219 248 271 206 340 178 c 0
 447 136 629 129 832 129 c 3
 1021 129 1168 137 1286 182 c 0
 1336 201 1372 225 1398 255 c 1
 1358 247 1319 243 1283 243 c 0
 1093 243 968 352 968 521 c 0
 968 699 1110 888 1281 888 c 0
 1479 888 1577 578 1577 407 c 0
 1577 244 1498 127 1331 62 c 0
 1183 5 1024 0 832 0 c 1
1281 759 m 0
 1191 759 1097 637 1097 524 c 0
 1097 412 1182 373 1287 373 c 0
 1338 373 1395 382 1448 397 c 1
 1448 400 1448 404 1448 407 c 0
 1448 544 1367 759 1281 759 c 0
EndSplineSet
Validated: 1
Substitution2: "'init' Initial Forms in Arabic lookup 1 subtable" dotlessinitialFEH
Substitution2: "'medi' Medial Forms in Arabic lookup 1 subtable" dotlessmedialFEH
Substitution2: "'fina' Terminal Forms in Arabic lookup 1 subtable" dotlessfinalFEH
EndChar

StartChar: uni06A9
Encoding: 1705 1705 97
Width: 1663
VWidth: 1600
Flags: MW
AnchorPoint: "Anchor-5" 709 1192 basechar 0
AnchorPoint: "Anchor-3" 844 -364 basechar 0
LayerCount: 2
Fore
SplineSet
1573 344 m 0
 1573 181 1465 96 1371 58 c 0
 1227 1 1035 0 832 0 c 0
 628 0 436 1 292 58 c 0
 198 96 90 181 90 344 c 0
 90 388 97 428 104 463 c 2
 118 526 l 1
 244 499 l 1
 230 436 l 2
 224 406 219 374 219 344 c 0
 219 248 271 206 340 178 c 0
 447 136 629 129 832 129 c 0
 1035 129 1216 136 1323 178 c 0
 1392 206 1444 248 1444 344 c 0
 1444 522 1143 671 858 737 c 1
 858 910 l 1
 1573 1371 l 1
 1573 1217 l 1
 982 835 l 1
 1308 741 1573 588 1573 344 c 0
EndSplineSet
Validated: 1
Substitution2: "'init' Initial Forms in Arabic lookup 1 subtable" uniFB90
Substitution2: "'medi' Medial Forms in Arabic lookup 1 subtable" uniFB91
Substitution2: "'fina' Terminal Forms in Arabic lookup 1 subtable" uniFB8F
EndChar

StartChar: uni06BA
Encoding: 1722 1722 98
Width: 1496
VWidth: 1600
Flags: MW
AnchorPoint: "Anchor-5" 786 745 basechar 0
AnchorPoint: "Anchor-3" 687 -831 basechar 0
LayerCount: 2
Fore
SplineSet
623 508 m 1
 676 391 l 1
 340 239 219 47 219 -107 c 0
 219 -307 405 -451 686 -451 c 0
 879 -451 1115 -326 1212 -158 c 0
 1253 -86 1275 9 1275 113 c 0
 1275 213 1255 321 1211 424 c 1
 1196 457 l 1
 1315 508 l 1
 1329 475 l 2
 1380 355 1406 230 1406 111 c 0
 1406 -11 1379 -127 1324 -222 c 0
 1198 -441 931 -580 686 -580 c 0
 356 -580 90 -396 90 -107 c 0
 90 110 260 344 623 508 c 1
EndSplineSet
Validated: 1
Substitution2: "'init' Initial Forms in Arabic lookup 1 subtable" uniFBE8
Substitution2: "'medi' Medial Forms in Arabic lookup 1 subtable" uniFBE9
Substitution2: "'fina' Terminal Forms in Arabic lookup 1 subtable" dotlessinitialNOON
EndChar

StartChar: uni06CC
Encoding: 1740 1740 99
Width: 1366
VWidth: 1600
Flags: MW
AnchorPoint: "Anchor-3" 689 -736 basechar 0
AnchorPoint: "Anchor-5" 476 665 basechar 0
LayerCount: 2
Fore
SplineSet
1182 599 m 1
 1140 619 1095 626 1046 626 c 0
 922 626 753 519 753 376 c 0
 753 195 1276 382 1276 -46 c 0
 1276 -300 999 -512 686 -512 c 0
 356 -512 90 -328 90 -39 c 0
 90 111 172 268 342 406 c 1
 425 310 l 1
 277 193 219 68 219 -39 c 0
 219 -239 405 -383 686 -383 c 0
 933 -383 1148 -226 1148 -48 c 0
 1148 245 623 44 623 366 c 0
 623 578 837 750 1041 755 c 0
 1109 755 1180 746 1238 714 c 1
 1182 599 l 1
EndSplineSet
Validated: 1
Substitution2: "'init' Initial Forms in Arabic lookup 1 subtable" uniFEF3
Substitution2: "'medi' Medial Forms in Arabic lookup 1 subtable" uniFEF4
Substitution2: "'fina' Terminal Forms in Arabic lookup 1 subtable" uniFBFD
EndChar

StartChar: uniFBE8
Encoding: 64488 64488 103
Width: 473
VWidth: 1600
Flags: MW
AnchorPoint: "Anchor-5" 202 864 basechar 0
AnchorPoint: "Anchor-3" 202 -225 basechar 0
LayerCount: 2
Fore
SplineSet
0 0 m 2
 -14 0 l 1
 -14 129 l 1
 0 129 l 2
 68 129 160 142 208 194 c 0
 234 222 254 267 254 338 c 0
 254 401 239 487 198 600 c 1
 319 644 l 1
 364 522 384 421 384 338 c 0
 384 237 352 160 303 107 c 0
 213 9 81 0 0 0 c 2
EndSplineSet
Validated: 1
EndChar

StartChar: uniFBE9
Encoding: 64489 64489 104
Width: 558
VWidth: 1600
Flags: MW
AnchorPoint: "Anchor-5" 257 722 basechar 0
AnchorPoint: "Anchor-3" 234 -211 basechar 0
LayerCount: 2
Fore
SplineSet
343 508 m 1
 343 444 l 2
 343 357 343 285 361 232 c 1
 382 166 432 129 538 129 c 2
 572 129 l 1
 572 0 l 1
 538 0 l 2
 420 0 329 47 279 115 c 1
 229 47 138 0 20 0 c 2
 -14 0 l 1
 -14 129 l 1
 20 129 l 2
 126 129 176 166 197 232 c 1
 215 285 215 357 215 444 c 2
 215 508 l 1
 343 508 l 1
EndSplineSet
Validated: 1
EndChar

StartChar: uniFBFD
Encoding: 64509 64509 105
Width: 1339
VWidth: 1600
Flags: MW
AnchorPoint: "Anchor-5" 928 628 basechar 0
AnchorPoint: "Anchor-3" 683 -858 basechar 0
LayerCount: 2
Fore
SplineSet
1363 0 m 1
 1266 0 l 1
 1299 -43 1319 -97 1319 -157 c 0
 1319 -437 964 -580 686 -580 c 0
 398 -580 90 -417 90 -107 c 0
 90 110 260 344 623 508 c 1
 676 391 l 1
 340 239 219 47 219 -107 c 0
 219 -317 424 -451 686 -451 c 0
 874 -451 1191 -365 1191 -157 c 0
 1191 -41 1051 0 942 0 c 1
 942 129 l 1
 1363 129 l 1
 1363 0 l 1
EndSplineSet
Validated: 1
EndChar

StartChar: uniFE71
Encoding: 65137 65137 106
Width: 856
VWidth: 1600
Flags: MW
AnchorPoint: "Anchor-3" 430 -280 basechar 0
AnchorPoint: "Anchor-5" 370 1901 basechar 0
LayerCount: 2
Back
Refer: 30 1614 N 1 0 0 1 464.5 0 2
Refer: 30 1614 N 1 0 0 1 373.5 109 2
Fore
SplineSet
-4 129 m 1
 861 129 l 1
 861 0 l 1
 -4 0 l 1
 -4 129 l 1
EndSplineSet
Refer: 30 1614 N 1 0 0 1 464 0 2
Refer: 30 1614 N 1 0 0 1 374 109 2
Validated: 1
LCarets2: 1 0
Ligature2: "'liga' Standard Ligatures in Arabic lookup 5 subtable" uni0640 uni064B
EndChar

StartChar: uniFE77
Encoding: 65143 65143 107
Width: 856
VWidth: 1600
Flags: MW
AnchorPoint: "Anchor-3" 426 -308 basechar 0
AnchorPoint: "Anchor-5" 370 1633 basechar 0
LayerCount: 2
Back
Refer: 30 1614 N 1 0 0 1 419 0 2
Fore
SplineSet
-4 129 m 5
 861 129 l 5
 861 0 l 5
 -4 0 l 5
 -4 129 l 5
EndSplineSet
Refer: 30 1614 N 1 0 0 1 419 0 2
Validated: 1
LCarets2: 1 0
Ligature2: "'liga' Standard Ligatures in Arabic lookup 5 subtable" uni0640 uni064E
EndChar

StartChar: uniFE79
Encoding: 65145 65145 108
Width: 856
VWidth: 1600
Flags: MW
AnchorPoint: "Anchor-3" 405 -297 basechar 0
AnchorPoint: "Anchor-5" 424 1898 basechar 0
LayerCount: 2
Back
Refer: 31 1615 N 1 0 0 1 458.5 0 2
Fore
SplineSet
-4 129 m 1
 861 129 l 1
 861 0 l 1
 -4 0 l 1
 -4 129 l 1
EndSplineSet
Refer: 31 1615 N 1 0 0 1 458 0 2
Validated: 1
LCarets2: 1 0
Ligature2: "'liga' Standard Ligatures in Arabic lookup 5 subtable" uni0640 uni064F
EndChar

StartChar: uniFE7B
Encoding: 65147 65147 109
Width: 856
VWidth: 1600
Flags: MW
AnchorPoint: "Anchor-3" 386 -714 basechar 0
AnchorPoint: "Anchor-5" 398 1336 basechar 0
LayerCount: 2
Back
Refer: 30 1614 N 1 0 0 1 419 -1877 2
Refer: 30 1614 N 1 0 0 1 419 -1877 2
Fore
SplineSet
-4 129 m 1
 861 129 l 1
 861 0 l 1
 -4 0 l 1
 -4 129 l 1
EndSplineSet
Refer: 30 1614 N 1 0 0 1 419 -1877 2
Validated: 1
LCarets2: 1 0
Ligature2: "'liga' Standard Ligatures in Arabic lookup 5 subtable" uni0640 uni0650
EndChar

StartChar: uniFE7D
Encoding: 65149 65149 110
Width: 856
VWidth: 1600
Flags: HMW
AnchorPoint: "Anchor-3" 405 -294 basechar 0
AnchorPoint: "Anchor-5" 426 1678 basechar 0
LayerCount: 2
Back
Refer: 29 1617 N 1 0 0 1 428.5 0 2
Fore
SplineSet
-4 129 m 1
 861 129 l 1
 861 0 l 1
 -4 0 l 1
 -4 129 l 1
EndSplineSet
Refer: 29 1617 N 1 0 0 1 428 0 2
Validated: 1
LCarets2: 1 0
Ligature2: "'liga' Standard Ligatures in Arabic lookup 5 subtable" uni0640 uni0651
EndChar

StartChar: uniFE7F
Encoding: 65151 65151 111
Width: 856
VWidth: 1600
Flags: MW
AnchorPoint: "Anchor-3" 424 -272 basechar 0
AnchorPoint: "Anchor-5" 427 1770 basechar 0
LayerCount: 2
Back
Refer: 28 1618 S 1 0 0 1 427.5 0 2
Fore
SplineSet
-4 129 m 1
 861 129 l 1
 861 0 l 1
 -4 0 l 1
 -4 129 l 1
EndSplineSet
Refer: 28 1618 N 1 0 0 1 428 0 2
Validated: 1
LCarets2: 1 0
Ligature2: "'liga' Standard Ligatures in Arabic lookup 5 subtable" uni0640 uni0652
EndChar

StartChar: uniFE8E
Encoding: 65166 65166 112
Width: 425
VWidth: 1600
Flags: MW
AnchorPoint: "Anchor-5" 164 1389 basechar 0
AnchorPoint: "Anchor-3" 328 -201 basechar 0
LayerCount: 2
Fore
SplineSet
425 129 m 2
 439 129 l 1
 439 0 l 1
 425 0 l 2
 281 0 182 63 141 154 c 0
 101 243 100 347 100 449 c 2
 100 1219 l 1
 229 1219 l 1
 229 449 l 2
 229 347 235 258 258 207 c 0
 281 156 312 129 425 129 c 2
EndSplineSet
Validated: 1
PairPos2: "'kern' Horizontal Kerning lookup 6 subtable 3" uni063A dx=-293 dy=0 dh=-293 dv=0 dx=0 dy=0 dh=0 dv=0
PairPos2: "'kern' Horizontal Kerning lookup 6 subtable 3" uni0639 dx=-293 dy=0 dh=-293 dv=0 dx=0 dy=0 dh=0 dv=0
PairPos2: "'kern' Horizontal Kerning lookup 6 subtable 2" uni0622 dx=277 dy=0 dh=277 dv=0 dx=0 dy=0 dh=0 dv=0
EndChar

StartChar: uniFEA2
Encoding: 65186 65186 113
Width: 1169
VWidth: 1600
Flags: MW
AnchorPoint: "Anchor-5" 436 892 basechar 0
AnchorPoint: "Anchor-3" 658 -1147 basechar 0
LayerCount: 2
Fore
SplineSet
1179 0 m 0
 1006 0 856 104 769 242 c 1
 643 169 523 84 402 -28 c 1
 289 -142 218 -262 218 -391 c 0
 218 -628 437 -741 656 -741 c 0
 826 -741 965 -673 1069 -542 c 1
 1168 -625 l 1
 1030 -789 879 -870 656 -870 c 0
 411 -870 90 -737 90 -394 c 0
 90 -222 184 -65 310 63 c 0
 464 219 670 344 848 434 c 1
 728 459 574 515 437 515 c 0
 352 515 271 457 271 373 c 0
 271 334 295 291 319 256 c 1
 212 185 l 1
 173 244 150 294 144 373 c 1
 146 533 281 644 437 644 c 0
 637 644 895 545 1062 512 c 1
 1067 392 l 1
 1003 363 942 335 882 304 c 1
 949 203 1063 129 1179 129 c 3
 1179 0 l 0
EndSplineSet
Validated: 1
EndChar

StartChar: uniFEA3
Encoding: 65187 65187 114
Width: 1150
VWidth: 1614
Flags: MW
AnchorPoint: "Anchor-5" 341 895 basechar 0
AnchorPoint: "Anchor-3" 296 -291 basechar 0
LayerCount: 2
Fore
SplineSet
391 647 m 0
 465 647 524 629 581 605 c 0
 679 563 758 503 837 463 c 0
 907 428 982 404 1059 392 c 1
 1060 264 l 1
 1013 256 966 241 923 220 c 0
 845 181 768 112 665 65 c 0
 572 23 474 10 380 4 c 0
 324 0 269 0 214 -0 c 2
 -14 0 l 1
 -14 129 l 1
 183 129 l 2
 247 129 310 129 372 133 c 0
 458 138 541 151 612 183 c 0
 683 215 750 273 836 321 c 1
 816 329 798 337 779 347 c 0
 686 394 608 452 529 486 c 0
 485 505 443 518 394 518 c 0
 362 518 330 511 305 498 c 0
 273 482 246 454 231 421 c 0
 222 401 218 379 218 357 c 0
 218 342 219 328 223 314 c 1
 98 280 l 1
 91 305 88 331 88 357 c 0
 88 397 96 436 112 473 c 0
 139 534 187 584 246 614 c 0
 293 638 343 647 391 647 c 0
EndSplineSet
Validated: 1
EndChar

StartChar: uniFEA4
Encoding: 65188 65188 115
Width: 1143
VWidth: 1600
Flags: MW
AnchorPoint: "Anchor-5" 365 897 basechar 0
AnchorPoint: "Anchor-3" 510 -231 basechar 0
LayerCount: 2
Fore
SplineSet
391 647 m 0
 465 647 524 629 581 605 c 0
 679 563 758 503 837 463 c 0
 907 428 982 404 1059 392 c 1
 1060 264 l 1
 1013 256 964 241 921 219 c 1
 945 162 992 129 1093 129 c 2
 1157 129 l 1
 1157 0 l 1
 1093 0 l 2
 947 0 864 61 812 151 c 1
 768 122 720 90 665 65 c 0
 572 23 474 10 380 4 c 0
 324 0 269 0 214 -0 c 2
 -14 0 l 1
 -14 129 l 1
 183 129 l 2
 247 129 310 129 372 133 c 0
 458 138 541 151 612 183 c 0
 683 215 750 273 836 321 c 1
 816 329 798 337 779 347 c 0
 686 394 608 452 529 486 c 0
 485 505 443 518 394 518 c 0
 362 518 330 511 305 498 c 0
 273 482 246 454 231 421 c 0
 222 401 218 379 218 357 c 0
 218 342 219 328 223 314 c 1
 98 280 l 1
 91 305 88 331 88 357 c 0
 88 397 96 436 112 473 c 0
 139 534 187 584 246 614 c 0
 293 638 343 647 391 647 c 0
EndSplineSet
Validated: 1
EndChar

StartChar: uniFEAA
Encoding: 65194 65194 116
Width: 981
VWidth: 1600
Flags: MW
AnchorPoint: "Anchor-5" 407 967 basechar 0
AnchorPoint: "Anchor-3" 405 -218 basechar 0
LayerCount: 2
Fore
SplineSet
456 780 m 1
 739 323 l 2
 809 211 880 129 981 129 c 2
 995 129 l 1
 995 0 l 1
 981 0 l 2
 854 0 755 49 684 132 c 1
 623 20 457 -14 278 -14 c 0
 219 -14 148 -9 90 0 c 1
 90 135 l 1
 146 123 219 118 279 118 c 0
 435 118 586 151 586 237 c 0
 586 314 449 543 342 703 c 1
 456 780 l 1
EndSplineSet
Validated: 1
PairPos2: "'kern' Horizontal Kerning lookup 6 subtable 3" uni063A dx=-457 dy=0 dh=-457 dv=0 dx=0 dy=0 dh=0 dv=0
PairPos2: "'kern' Horizontal Kerning lookup 6 subtable 3" uni0639 dx=-457 dy=0 dh=-457 dv=0 dx=0 dy=0 dh=0 dv=0
EndChar

StartChar: uniFEAE
Encoding: 65198 65198 117
Width: 607
VWidth: 1600
Flags: MW
AnchorPoint: "Anchor-5" 262 754 basechar 0
AnchorPoint: "Anchor-3" 139 -682 basechar 0
LayerCount: 2
Fore
SplineSet
389 80 m 1
 367 -200 168 -398 -124 -512 c 1
 -170 -391 l 1
 68 -297 263 -137 263 130 c 0
 263 229 238 326 200 424 c 1
 318 475 l 17
 387 320 409 129 617 129 c 2
 631 129 l 1
 631 0 l 1
 617 0 l 2
 522 0 446 33 389 80 c 1
EndSplineSet
Validated: 1
PairPos2: "'kern' Horizontal Kerning lookup 6 subtable 1" uni062E dx=-260 dy=0 dh=-260 dv=0 dx=0 dy=0 dh=0 dv=0
PairPos2: "'kern' Horizontal Kerning lookup 6 subtable 1" uni062D dx=-260 dy=0 dh=-260 dv=0 dx=0 dy=0 dh=0 dv=0
PairPos2: "'kern' Horizontal Kerning lookup 6 subtable 4" uniE004 dx=100 dy=0 dh=100 dv=0 dx=0 dy=0 dh=0 dv=0
PairPos2: "'kern' Horizontal Kerning lookup 6 subtable 4" uniE002 dx=100 dy=0 dh=100 dv=0 dx=0 dy=0 dh=0 dv=0
PairPos2: "'kern' Horizontal Kerning lookup 6 subtable 4" uniE000 dx=100 dy=0 dh=100 dv=0 dx=0 dy=0 dh=0 dv=0
PairPos2: "'kern' Horizontal Kerning lookup 6 subtable 1" uni063A dx=-280 dy=0 dh=-280 dv=0 dx=0 dy=0 dh=0 dv=0
PairPos2: "'kern' Horizontal Kerning lookup 6 subtable 1" uni0639 dx=-280 dy=0 dh=-280 dv=0 dx=0 dy=0 dh=0 dv=0
PairPos2: "'kern' Horizontal Kerning lookup 6 subtable 1" uni06CC dx=120 dy=0 dh=120 dv=0 dx=0 dy=0 dh=0 dv=0
PairPos2: "'kern' Horizontal Kerning lookup 6 subtable 1" uni0644 dx=120 dy=0 dh=120 dv=0 dx=0 dy=0 dh=0 dv=0
PairPos2: "'kern' Horizontal Kerning lookup 6 subtable 1" uni0649 dx=120 dy=0 dh=120 dv=0 dx=0 dy=0 dh=0 dv=0
EndChar

StartChar: uniFEB2
Encoding: 65202 65202 118
Width: 2582
VWidth: 1600
Flags: MW
AnchorPoint: "Anchor-5" 1833 749 basechar 0
AnchorPoint: "Anchor-3" 688 -857 basechar 0
LayerCount: 2
Fore
SplineSet
1342 508 m 1
 1375 415 1405 303 1445 224 c 0
 1476 161 1523 129 1590 129 c 3
 1678 129 1719 172 1739 232 c 1
 1756 285 1757 357 1757 444 c 2
 1757 508 l 1
 1885 508 l 1
 1885 444 l 2
 1885 357 1886 285 1903 232 c 1
 1923 172 1964 129 2052 129 c 1
 2140 129 2181 172 2201 232 c 1
 2218 285 2219 357 2219 444 c 2
 2219 508 l 1
 2347 508 l 1
 2347 444 l 2
 2347 357 2348 285 2365 232 c 1
 2387 166 2434 129 2542 129 c 2
 2596 129 l 1
 2596 0 l 1
 2542 0 l 2
 2421 0 2333 47 2283 115 c 1
 2237 52 2159 0 2052 0 c 1
 1945 0 1867 52 1821 115 c 1
 1775 52 1697 0 1590 0 c 3
 1537 0 1478 21 1431 52 c 1
 1424 -48 1398 -143 1352 -222 c 0
 1226 -441 959 -580 714 -580 c 0
 384 -580 118 -396 118 -107 c 0
 118 110 288 344 651 508 c 1
 704 391 l 1
 368 239 247 47 247 -107 c 0
 247 -307 433 -451 714 -451 c 0
 907 -451 1143 -326 1240 -158 c 0
 1281 -86 1303 9 1303 113 c 0
 1303 228 1266 352 1224 458 c 1
 1342 508 l 1
EndSplineSet
Validated: 1
EndChar

StartChar: uniFEB3
Encoding: 65203 65203 119
Width: 1402
VWidth: 1600
Flags: MW
AnchorPoint: "Anchor-5" 766 796 basechar 0
AnchorPoint: "Anchor-3" 758 -270 basechar 0
LayerCount: 2
Fore
SplineSet
992 0 m 3
 885 0 807 52 761 115 c 1
 715 52 637 0 530 0 c 1
 423 0 345 52 299 115 c 1
 249 47 161 0 40 0 c 2
 -14 0 l 1
 -14 129 l 1
 40 129 l 2
 148 129 195 166 217 232 c 1
 234 285 235 357 235 444 c 2
 235 508 l 1
 363 508 l 1
 363 444 l 2
 363 357 364 285 381 232 c 1
 401 172 442 129 530 129 c 1
 618 129 659 172 679 232 c 1
 696 285 697 357 697 444 c 2
 697 508 l 1
 825 508 l 1
 825 444 l 2
 825 357 826 285 843 232 c 1
 863 172 902 129 990 129 c 3
 1095 129 1148 190 1148 293 c 0
 1148 367 1132 454 1109 508 c 1
 1229 555 l 1
 1256 483 1274 386 1274 301 c 0
 1274 125 1179 0 992 0 c 3
EndSplineSet
Validated: 1
EndChar

StartChar: uniFEB4
Encoding: 65204 65204 120
Width: 1522
Flags: MW
AnchorPoint: "Anchor-5" 771 752 basechar 0
AnchorPoint: "Anchor-3" 767 -217 basechar 0
LayerCount: 2
Fore
SplineSet
825 508 m 1
 825 444 l 2
 825 357 825 285 843 232 c 1
 862 172 904 129 992 129 c 1
 1080 129 1122 172 1141 232 c 1
 1159 285 1159 357 1159 444 c 2
 1159 508 l 1
 1287 508 l 1
 1287 444 l 2
 1287 357 1287 285 1305 232 c 1
 1326 166 1374 129 1482 129 c 2
 1536 129 l 1
 1536 0 l 1
 1482 0 l 2
 1361 0 1273 47 1223 115 c 1
 1177 52 1099 0 992 0 c 1
 885 0 807 52 761 115 c 1
 715 52 637 0 530 0 c 1
 423 0 345 52 299 115 c 1
 249 47 161 0 40 0 c 2
 -14 0 l 1
 -14 129 l 1
 40 129 l 2
 148 129 196 166 217 232 c 1
 235 285 235 357 235 444 c 2
 235 508 l 1
 363 508 l 1
 363 444 l 2
 363 357 363 285 381 232 c 1
 400 172 442 129 530 129 c 1
 618 129 660 172 679 232 c 1
 697 285 697 357 697 444 c 2
 697 508 l 1
 825 508 l 1
EndSplineSet
Validated: 1
EndChar

StartChar: uniFEBA
Encoding: 65210 65210 121
Width: 2434
VWidth: 1600
Flags: MW
AnchorPoint: "Anchor-5" 1975 893 basechar 0
AnchorPoint: "Anchor-3" 684 -857 basechar 0
LayerCount: 2
Fore
SplineSet
1993 535 m 0
 1836 535 1662 279 1598 141 c 1
 1631 133 1665 129 1698 129 c 0
 1960 129 2138 227 2138 378 c 0
 2138 463 2096 535 1993 535 c 0
1211 424 m 1
 1196 457 l 1
 1315 508 l 1
 1329 475 l 2
 1380 356 1410 210 1473 184 c 1
 1568 386 1764 664 1993 664 c 0
 2167 664 2267 529 2267 378 c 0
 2267 249 2277 129 2444 129 c 2
 2458 129 l 1
 2458 0 l 1
 2444 0 l 2
 2303 0 2211 62 2160 164 c 1
 2070 59 1907 0 1698 0 c 0
 1591 0 1492 33 1404 76 c 1
 1404 76 1403 64 1402 52 c 0
 1394 -48 1370 -142 1324 -222 c 0
 1198 -441 931 -580 686 -580 c 0
 356 -580 90 -396 90 -107 c 0
 90 110 260 344 623 508 c 1
 676 391 l 1
 340 239 219 47 219 -107 c 0
 219 -307 405 -451 686 -451 c 0
 879 -451 1115 -325 1212 -157 c 0
 1253 -85 1276 9 1276 113 c 0
 1276 213 1255 321 1211 424 c 1
EndSplineSet
Validated: 1
EndChar

StartChar: uniFEBB
Encoding: 65211 65211 122
Width: 1223
VWidth: 1600
Flags: MW
AnchorPoint: "Anchor-5" 868 874 basechar 0
AnchorPoint: "Anchor-3" 598 -302 basechar 0
LayerCount: 2
Fore
SplineSet
0 129 m 3
 190 129 193 259 193 449 c 1
 321 455 l 1
 323 423 324 393 324 364 c 0
 324 285 317 220 317 185 c 0
 317 159 320 145 351 142 c 1
 427 329 639 665 889 665 c 0
 1045 665 1163 545 1163 389 c 4
 1163 89 854 0 470 0 c 0
 386 0 283 8 221 79 c 1
 169 32 96 0 0 0 c 0
 -14 0 l 25
 -14 129 l 25
 0 129 l 3
1034 389 m 4
 1034 478 973 536 889 536 c 0
 728 536 550 262 488 127 c 1
 779 128 1034 179 1034 389 c 4
EndSplineSet
Validated: 1
EndChar

StartChar: uniFEBC
Encoding: 65212 65212 123
Width: 1196
VWidth: 1600
Flags: MW
AnchorPoint: "Anchor-5" 874 900 basechar 0
AnchorPoint: "Anchor-3" 566 -251 basechar 0
LayerCount: 2
Fore
SplineSet
1034 389 m 0
 1034 478 973 536 889 536 c 0
 728 536 550 262 488 127 c 1
 779 128 1034 179 1034 389 c 0
0 129 m 2
 190 129 193 259 193 449 c 1
 321 455 l 1
 323 423 324 393 324 364 c 0
 324 285 317 220 317 185 c 0
 317 159 320 145 351 142 c 1
 427 329 639 665 889 665 c 0
 1045 665 1163 545 1163 389 c 0
 1163 269 1105 191 1023 129 c 1
 1210 129 l 1
 1210 0 l 1
 470 0 l 2
 386 0 283 8 221 79 c 1
 169 32 96 0 0 0 c 2
 -14 0 l 1
 -14 129 l 1
 0 129 l 2
EndSplineSet
Validated: 1
EndChar

StartChar: uniFEC2
Encoding: 65218 65218 124
Width: 1095
VWidth: 1600
Flags: MW
AnchorPoint: "Anchor-5" 781 1031 basechar 0
AnchorPoint: "Anchor-3" 562 -217 basechar 0
LayerCount: 2
Fore
SplineSet
1119 129 m 1
 1119 0 l 1
 345 0 l 1
 49 0 l 1
 49 127 l 1
 216 127 l 1
 216 1217 l 1
 345 1217 l 1
 345 363 l 1
 449 517 598 665 764 665 c 0
 920 665 1038 545 1038 389 c 0
 1038 273 992 189 913 129 c 1
 1119 129 l 1
909 389 m 0
 909 478 848 536 764 536 c 0
 603 536 426 263 363 128 c 1
 419 128 l 1
 686 135 909 193 909 389 c 0
EndSplineSet
Validated: 1
EndChar

StartChar: uniFEC3
Encoding: 65219 65219 125
Width: 1107
VWidth: 1600
Flags: MW
AnchorPoint: "Anchor-5" 757 963 basechar 0
AnchorPoint: "Anchor-3" 516 -243 basechar 0
LayerCount: 2
Fore
SplineSet
879 389 m 0
 879 478 818 536 734 536 c 0
 573 536 395 262 333 127 c 1
 624 128 879 179 879 389 c 0
315 363 m 1
 419 517 568 665 734 665 c 0
 890 665 1008 545 1008 389 c 0
 1008 89 699 0 315 0 c 2
 -14 0 l 1
 -14 127 l 1
 186 127 l 1
 186 1217 l 1
 315 1217 l 1
 315 363 l 1
EndSplineSet
Validated: 1
EndChar

StartChar: uniFEC4
Encoding: 65220 65220 126
Width: 1080
VWidth: 1600
Flags: MW
AnchorPoint: "Anchor-5" 745 1055 basechar 0
AnchorPoint: "Anchor-3" 510 -211 basechar 0
LayerCount: 2
Fore
SplineSet
1094 129 m 1
 1094 0 l 1
 -14 0 l 1
 -14 127 l 1
 216 127 l 1
 216 1217 l 1
 345 1217 l 1
 345 363 l 1
 449 517 598 665 764 665 c 0
 920 665 1038 545 1038 389 c 0
 1038 273 992 189 913 129 c 1
 1094 129 l 1
909 389 m 0
 909 478 848 536 764 536 c 0
 603 536 426 263 363 128 c 1
 419 128 l 1
 686 135 909 193 909 389 c 0
EndSplineSet
Validated: 1
EndChar

StartChar: uniFECA
Encoding: 65226 65226 127
Width: 952
Flags: MW
AnchorPoint: "Anchor-5" 506 879 basechar 0
AnchorPoint: "Anchor-3" 585 -1087 basechar 0
LayerCount: 2
Fore
SplineSet
505 515 m 0
 430 515 359 502 314 481 c 0
 269 460 256 442 256 412 c 0
 256 344 293 277 370 222 c 0
 381 214 394 206 407 199 c 1
 533 314 663 396 734 438 c 1
 724 448 709 460 688 471 c 0
 639 497 568 515 505 515 c 0
976 129 m 1
 976 0 l 1
 709 0 l 0
 607 0 514 16 434 45 c 1
 396 6 360 -36 329 -79 c 0
 260 -177 218 -296 218 -413 c 0
 218 -453 223 -493 234 -532 c 0
 252 -601 297 -651 359 -687 c 0
 421 -723 503 -742 585 -742 c 0
 731 -742 850 -686 933 -569 c 1
 1032 -652 l 1
 925 -795 776 -871 585 -871 c 0
 483 -871 381 -848 295 -798 c 0
 209 -748 138 -670 110 -565 c 0
 96 -514 90 -462 90 -411 c 0
 90 -265 141 -123 224 -5 c 0
 251 33 281 70 313 105 c 1
 307 109 301 113 295 117 c 0
 192 190 127 297 127 412 c 0
 127 498 188 563 259 597 c 0
 330 631 416 644 505 644 c 0
 591 644 678 623 748 586 c 0
 818 549 883 496 883 412 c 0
 883 390 868 365 849 355 c 2
 849 355 699 274 546 147 c 1
 595 136 649 129 709 129 c 0
 976 129 l 1
EndSplineSet
Validated: 1
EndChar

StartChar: uniFECB
Encoding: 65227 65227 128
Width: 762
VWidth: 1600
Flags: MW
AnchorPoint: "Anchor-5" 439 893 basechar 0
AnchorPoint: "Anchor-3" 377 -252 basechar 0
LayerCount: 2
Fore
SplineSet
568 513 m 1
 524 532 483 541 445 541 c 0
 310 541 219 428 219 289 c 0
 219 149 443 129 591 129 c 1
 672 129 l 1
 672 0 l 1
 -14 0 l 1
 -14 129 l 1
 26 129 105 129 145 129 c 1
 111 169 90 228 90 289 c 0
 90 490 227 670 437 670 c 0
 493 670 553 658 618 629 c 1
 568 513 l 1
EndSplineSet
Validated: 1
EndChar

StartChar: uniFECC
Encoding: 65228 65228 129
Width: 842
VWidth: 1599
Flags: MW
AnchorPoint: "Anchor-5" 464 871 basechar 0
AnchorPoint: "Anchor-3" 462 -246 basechar 0
LayerCount: 2
Fore
SplineSet
414 645 m 0
 503 645 589 632 660 598 c 0
 731 564 792 498 792 412 c 0
 792 306 737 209 649 137 c 1
 691 131 728 130 793 130 c 0
 856 130 l 1
 856 0 l 1
 794 -0 l 0
 730 0 673 1 620 10 c 0
 579 17 539 31 502 52 c 1
 418 19 320 0 210 0 c 2
 -14 0 l 1
 -14 129 l 1
 210 129 l 2
 274 129 331 137 383 150 c 1
 304 218 169 318 89 353 c 0
 68 362 51 389 51 412 c 0
 51 493 110 549 177 586 c 0
 244 623 328 645 414 645 c 0
414 516 m 0
 351 516 285 498 240 473 c 0
 222 463 208 453 199 443 c 1
 318 378 450 271 517 202 c 1
 528 209 539 215 549 222 c 0
 626 277 663 344 663 412 c 0
 663 442 649 461 604 482 c 0
 559 503 489 516 414 516 c 0
EndSplineSet
Validated: 1
EndChar

StartChar: uniFEDB
Encoding: 65243 65243 130
Width: 831
VWidth: 1600
Flags: MW
AnchorPoint: "Anchor-5" 305 1446 basechar 0
AnchorPoint: "Anchor-3" 340 -242 basechar 0
LayerCount: 2
Fore
SplineSet
376 129 m 2
 579 129 612 248 612 344 c 1
 612 522 311 671 26 737 c 1
 26 910 l 1
 741 1371 l 1
 741 1217 l 1
 150 835 l 1
 476 741 741 588 741 344 c 0
 741 181 640 0 377 0 c 2
 -14 0 l 1
 -14 129 l 1
 376 129 l 2
EndSplineSet
Validated: 1
Substitution2: "single substitution 0 subtable" uniE006
EndChar

StartChar: uniFEDC
Encoding: 65244 65244 131
Width: 935
VWidth: 1600
Flags: MW
AnchorPoint: "Anchor-5" 319 1446 basechar 0
AnchorPoint: "Anchor-3" 374 -202 basechar 0
LayerCount: 2
Fore
SplineSet
758 232 m 0
 779 166 829 129 935 129 c 2
 949 129 l 1
 949 0 l 1
 935 0 l 2
 809 0 722 52 669 125 c 1
 612 52 517 0 377 0 c 2
 -14 0 l 1
 -14 129 l 1
 376 129 l 2
 579 129 612 248 612 344 c 0
 612 522 311 671 26 737 c 1
 26 910 l 1
 741 1371 l 1
 741 1217 l 1
 150 835 l 1
 474 742 737 590 741 349 c 1
 741 299 746 267 758 232 c 0
EndSplineSet
Validated: 1
Substitution2: "single substitution 0 subtable" uniE007
EndChar

StartChar: uniFEDE
Encoding: 65246 65246 132
Width: 1609
VWidth: 1600
Flags: MW
AnchorPoint: "Anchor-5" 709 885 basechar 0
AnchorPoint: "Anchor-3" 682 -815 basechar 0
LayerCount: 2
Fore
SplineSet
1395 54 m 1
 1394 25 l 1
 1394 -329 1003 -580 686 -580 c 0
 393 -580 90 -412 90 -107 c 0
 90 110 260 344 623 508 c 1
 676 391 l 1
 340 239 219 47 219 -107 c 0
 219 -326 440 -451 686 -451 c 0
 920 -451 1266 -253 1266 25 c 2
 1266 1217 l 1
 1394 1217 l 1
 1394 444 l 2
 1394 357 1394 285 1412 232 c 0
 1433 166 1483 129 1589 129 c 2
 1623 129 l 1
 1623 0 l 1
 1589 0 l 2
 1511 0 1445 21 1395 54 c 1
EndSplineSet
Validated: 1
EndChar

StartChar: uniFEDF
Encoding: 65247 65247 133
Width: 415
VWidth: 1600
Flags: MW
AnchorPoint: "Anchor-5" 262 1380 basechar 0
AnchorPoint: "Anchor-3" 197 -168 basechar 0
LayerCount: 2
Fore
SplineSet
0 129 m 2
 113 129 144 156 167 207 c 0
 190 258 196 347 196 449 c 2
 196 1219 l 1
 325 1219 l 1
 325 449 l 2
 325 347 324 243 284 154 c 0
 243 63 144 0 0 0 c 2
 -14 0 l 1
 -14 129 l 1
 0 129 l 2
EndSplineSet
Validated: 1
EndChar

StartChar: uniFEE0
Encoding: 65248 65248 134
Width: 644
VWidth: 1600
Flags: MW
AnchorPoint: "Anchor-5" 323 1420 basechar 0
AnchorPoint: "Anchor-3" 322 -205 basechar 0
LayerCount: 2
Fore
SplineSet
644 0 m 2
 556 0 483 17 425 51 c 0
 378 79 346 119 322 163 c 1
 298 119 266 79 219 51 c 0
 161 17 88 0 0 0 c 2
 -14 0 l 1
 -14 129 l 1
 0 129 l 2
 126 129 188 163 222 245 c 0
 254 320 258 442 258 577 c 2
 257 1217 l 1
 386 1217 l 1
 386 577 l 2
 386 571 l 0
 386 307 387 129 644 129 c 2
 658 129 l 1
 658 0 l 1
 644 0 l 2
EndSplineSet
Validated: 1
EndChar

StartChar: uniFEE2
Encoding: 65250 65250 135
Width: 1072
Flags: MW
AnchorPoint: "Anchor-5" 552 871 basechar 0
AnchorPoint: "Anchor-3" 582 -763 basechar 0
LayerCount: 2
Fore
SplineSet
1086 0 m 1
 1072 0 l 1
 1034 0 986 8 940 40 c 0
 930 48 920 56 910 66 c 1
 866 24 800 0 720 0 c 0
 608 0 496 18 410 18 c 0
 339 18 288 5 258 -34 c 0
 236 -62 218 -110 218 -198 c 0
 220 -842 l 1
 90 -842 l 1
 90 -196 l 1
 90 -92 112 -12 156 46 c 0
 198 102 280 144 342 144 c 1
 356 246 l 2
 372 360 408 452 462 516 c 0
 516 580 592 618 668 618 c 0
 758 618 838 570 894 504 c 0
 968 416 988 330 988 200 c 0
 988 143 1026 130 1072 130 c 2
 1086 130 l 1
 1086 0 l 1
668 490 m 0
 632 490 596 476 562 434 c 0
 528 392 498 324 484 228 c 2
 472 148 l 1
 556 144 644 130 720 130 c 0
 784 130 812 148 830 170 c 0
 848 192 856 224 856 258 c 0
 856 316 832 376 794 420 c 0
 756 464 710 490 668 490 c 0
EndSplineSet
Validated: 1
EndChar

StartChar: uniFEE3
Encoding: 65251 65251 136
Width: 922
VWidth: 1600
Flags: MW
AnchorPoint: "Anchor-5" 477 931 basechar 0
AnchorPoint: "Anchor-3" 570 -266 basechar 0
LayerCount: 2
Fore
SplineSet
0 129 m 2
 99 129 142 184 179 283 c 0
 211 370 241 452 282 519 c 0
 323 586 418 645 504 645 c 0
 685 645 832 475 832 287 c 0
 832 121 719 0 555 0 c 0
 434 0 324 55 251 138 c 1
 201 50 112 0 0 0 c 2
 -14 0 l 1
 -14 129 l 1
 0 129 l 2
504 516 m 0
 471 516 422 501 392 452 c 0
 366 409 340 342 312 269 c 1
 362 181 434 129 555 129 c 0
 658 129 703 199 703 287 c 0
 703 409 605 516 504 516 c 0
EndSplineSet
Validated: 1
EndChar

StartChar: uniFEE4
Encoding: 65252 65252 137
Width: 965
VWidth: 1600
Flags: MW
AnchorPoint: "Anchor-5" 473 918 basechar 0
AnchorPoint: "Anchor-3" 538 -274 basechar 0
LayerCount: 2
Fore
SplineSet
504 516 m 0
 471 516 422 501 392 452 c 0
 366 409 340 342 312 269 c 1
 362 181 434 129 555 129 c 0
 658 129 703 199 703 287 c 0
 703 409 605 516 504 516 c 0
0 129 m 2
 99 129 142 184 179 283 c 0
 211 370 241 452 282 519 c 0
 323 586 418 645 504 645 c 0
 685 645 832 475 832 287 c 0
 833 228 846 183 867 162 c 0
 888 141 920 129 965 129 c 2
 979 129 l 1
 979 0 l 1
 965 0 l 2
 875 0 815 23 765 82 c 1
 716 29 643 0 555 0 c 0
 434 0 324 55 251 138 c 1
 201 50 112 0 0 0 c 2
 -14 0 l 1
 -14 129 l 1
 0 129 l 2
EndSplineSet
Validated: 1
EndChar

StartChar: uniFEEA
Encoding: 65258 65258 138
Width: 920
Flags: MW
AnchorPoint: "Anchor-5" 447 907 basechar 0
AnchorPoint: "Anchor-3" 436 -253 basechar 0
LayerCount: 2
Fore
SplineSet
920 0 m 1
 814 0 721 49 670 116 c 0
 665 122 661 129 657 135 c 1
 598 91 516 63 416 63 c 0
 322 63 232 90 168 149 c 0
 120 193 90 259 90 331 c 0
 90 354 93 379 100 403 c 0
 121 480 154 553 205 611 c 0
 256 669 330 710 416 710 c 0
 508 710 578 653 616 587 c 0
 654 521 673 445 695 374 c 0
 717 303 741 236 773 194 c 0
 805 152 849 129 920 129 c 1
 934 129 l 1
 934 0 l 1
 920 0 l 1
416 581 m 0
 368 581 334 562 301 525 c 0
 268 488 242 432 225 369 c 0
 221 352 218 336 218 323 c 0
 218 289 232 266 256 244 c 0
 289 214 348 192 416 192 c 0
 510 192 568 224 598 255 c 1
 588 282 580 310 572 336 c 0
 549 410 529 479 504 522 c 0
 479 565 463 581 416 581 c 0
EndSplineSet
Validated: 1
EndChar

StartChar: uniFEEB
Encoding: 65259 65259 139
Width: 1214
Flags: MW
AnchorPoint: "Anchor-5" 509 1059 basechar 0
AnchorPoint: "Anchor-3" 530 -257 basechar 0
LayerCount: 2
Fore
SplineSet
309 782 m 1
 348 710 369 668 462 638 c 0
 523 618 602 607 683 597 c 0
 764 587 848 577 923 552 c 0
 1024 518 1124 444 1124 303 c 0
 1124 234 1096 168 1051 118 c 0
 984 44 880 0 763 0 c 0
 707 0 647 10 587 32 c 1
 532 16 439 0 381 0 c 2
 50 0 l 1
 -14 0 l 1
 -14 129 l 1
 50 129 l 1
 88 129 l 1
 68 164 57 205 57 248 c 0
 57 332 87 425 140 504 c 0
 170 549 209 591 257 619 c 1
 232 649 214 686 195 722 c 1
 309 782 l 1
381 524 m 0
 333 524 285 490 247 433 c 0
 209 376 186 298 186 248 c 0
 186 217 194 198 208 182 c 0
 237 149 303 130 373 130 c 0
 413 130 468 134 499 148 c 0
 536 165 559 181 559 248 c 0
 559 301 539 378 504 435 c 0
 469 492 429 524 381 524 c 0
630 474 m 1
 668 401 688 320 688 248 c 0
 688 208 679 173 665 143 c 1
 699 134 732 129 763 129 c 0
 848 129 917 162 956 205 c 0
 982 234 997 265 997 299 c 0
 997 375 954 406 882 430 c 0
 825 449 748 459 667 469 c 0
 655 471 642 472 630 474 c 1
EndSplineSet
Validated: 1
EndChar

StartChar: uniFEEC
Encoding: 65260 65260 140
Width: 831
VWidth: 1600
Flags: MW
AnchorPoint: "Anchor-5" 387 974 basechar 0
AnchorPoint: "Anchor-3" 376 -712 basechar 0
LayerCount: 2
Fore
SplineSet
457 661 m 0
 589 661 713 562 713 403 c 0
 713 298 655 198 577 135 c 0
 467 46 333 14 205 4 c 1
 214 -74 238 -148 280 -213 c 0
 321 -276 393 -323 461 -323 c 0
 518 -323 550 -290 550 -232 c 0
 550 -199 544 -162 544 -117 c 0
 544 -54 554 3 599 56 c 0
 650 115 711 130 796 130 c 2
 844 129 l 1
 845 0 l 1
 809 0 l 2
 759 0 719 -2 697 -28 c 0
 679 -49 673 -74 673 -112 c 0
 673 -146 679 -188 679 -231 c 0
 679 -344 603 -453 457 -453 c 0
 338 -453 232 -376 172 -283 c 0
 115 -196 86 -99 76 0 c 1
 -14 0 l 1
 -14 129 l 1
 73 129 l 1
 77 200 91 271 110 337 c 0
 150 476 254 661 457 661 c 0
456 532 m 0
 335 532 265 409 234 302 c 0
 218 248 207 190 203 134 c 1
 313 144 416 171 495 235 c 0
 547 277 583 343 583 405 c 0
 583 484 525 531 456 532 c 0
EndSplineSet
Validated: 1
EndChar

StartChar: zero
Encoding: 48 48 142
Width: 1016
VWidth: 1684
GlyphClass: 2
Flags: W
LayerCount: 2
Fore
SplineSet
753 239 m 0
 786.333333333 319 803 433 803 581 c 0
 803 732.333333333 785.333333333 847.666666667 750 927 c 0
 704 1029.66666667 622.666666667 1081 506 1081 c 0
 348.666666667 1081 255.333333333 973.333333333 226 758 c 0
 218 696 214 630.333333333 214 561 c 0
 214 323.666666667 264 173.666666667 364 111 c 0
 402 87.6666666667 452.333333333 76 515 76 c 0
 628.333333333 76 707.666666667 130.333333333 753 239 c 0
166 994 m 0
 231.333333333 1122 345.666666667 1186 509 1186 c 0
 677 1186 792.666666667 1117.33333333 856 980 c 0
 902.666666667 879.333333333 926 742.333333333 926 569 c 0
 926 389 899.333333333 250.666666667 846 154 c 0
 779.333333333 32 667 -29 509 -29 c 0
 281 -29 147.333333333 97 108 349 c 0
 96 425 90 501.333333333 90 578 c 0
 90 651.333333333 95.6666666667 725.666666667 107 801 c 0
 117 873 136.666666667 937.333333333 166 994 c 0
EndSplineSet
Validated: 1
EndChar

StartChar: one
Encoding: 49 49 143
Width: 610
VWidth: 1687
GlyphClass: 2
Flags: W
LayerCount: 2
Fore
SplineSet
397 -3 m 1
 397 876 l 1
 90 876 l 1
 90 959 l 1
 199.333333333 967 270.333333333 980 303 998 c 128
 335.666666667 1016 361 1039.33333333 379 1068 c 0
 397.666666667 1096.66666667 411.333333333 1137 420 1189 c 1
 520 1189 l 1
 520 -3 l 1
 397 -3 l 1
EndSplineSet
Validated: 1
Substitution2: "Helvetica-Light-'sups' Superscript in Latin lookup 5 subtable" onesuperior
Substitution2: "Helvetica-Light-'aalt' Access All Alternates in Latin lookup 0 subtable" onesuperior
EndChar

StartChar: two
Encoding: 50 50 144
Width: 997
VWidth: 1687
GlyphClass: 2
Flags: W
LayerCount: 2
Fore
SplineSet
125 784 m 1
 125 791 l 2
 125 909 161 1005 233 1079 c 0
 304.333333333 1152.33333333 402.333333333 1189 527 1189 c 0
 647 1189 741.666666667 1156.33333333 811 1091 c 0
 875 1030.33333333 907 952 907 856 c 0
 907 720 841.666666667 608.666666667 711 522 c 0
 663.666666667 490.666666667 603 455.666666667 529 417 c 0
 431.666666667 366.333333333 367.666666667 327 337 299 c 0
 282.333333333 249.666666667 249.5 210.833333333 238.5 182.5 c 128
 227.5 154.166666667 221.333333333 127.666666667 220 103 c 1
 897 103 l 1
 897 -3 l 1
 90 -3 l 1
 91.3333333333 59 97.6666666667 113.166666667 109 159.5 c 128
 120.333333333 205.833333333 146.333333333 252 187 298 c 0
 254.333333333 373.333333333 342.333333333 442.666666667 451 506 c 0
 495.666666667 532 538 555.666666667 578 577 c 0
 662.666666667 623 720 675 750 733 c 0
 766 764.333333333 774 800.666666667 774 842 c 128
 774 883.333333333 767.666666667 918.333333333 755 947 c 0
 715 1037.66666667 634.666666667 1083 514 1083 c 0
 437.333333333 1083 373.333333333 1054 322 996 c 0
 277.333333333 944 255 881.666666667 255 809 c 0
 255 801 255.333333333 792.666666667 256 784 c 1
 125 784 l 1
EndSplineSet
Validated: 1
Substitution2: "Helvetica-Light-'sups' Superscript in Latin lookup 5 subtable" twosuperior
Substitution2: "Helvetica-Light-'aalt' Access All Alternates in Latin lookup 0 subtable" twosuperior
EndChar

StartChar: three
Encoding: 51 51 145
Width: 1016
VWidth: 1684
GlyphClass: 2
Flags: W
LayerCount: 2
Fore
SplineSet
726 627 m 1
 858.666666667 578.333333333 925.333333333 481.333333333 926 336 c 0
 926 234 892 149.333333333 824 82 c 0
 750.666666667 9.33333333333 652.666666667 -27.6666666667 530 -29 c 0
 380.666666667 -29 274.333333333 -1.66666666667 211 53 c 0
 144.333333333 110.333333333 104 210.666666667 90 354 c 1
 213 354 l 1
 213 347 l 2
 213 257.666666667 239.666666667 190.166666667 293 144.5 c 128
 346.333333333 98.8333333333 418 76 508 76 c 0
 596.666666667 76 669 102 725 154 c 0
 777 202.666666667 803.333333333 259.666666667 804 325 c 0
 804 330 804 330 804 335 c 0
 797.333333333 488.333333333 687 565 473 565 c 0
 453 565 432 564.333333333 410 563 c 1
 410 664 l 1
 417 664 l 2
 533.666666667 664 617.666666667 678.333333333 669 707 c 0
 730.333333333 742.333333333 761 800.333333333 761 881 c 0
 761 981.666666667 710 1044.33333333 608 1069 c 0
 576 1077 541.333333333 1081 504 1081 c 0
 429.333333333 1081 368.666666667 1058.33333333 322 1013 c 0
 276 967.666666667 253 910 253 840 c 2
 253 833 l 1
 131 833 l 1
 131 840 l 2
 131 946.666666667 170 1035.66666667 248 1107 c 0
 286 1140.33333333 329.666666667 1161.83333333 379 1171.5 c 128
 428.333333333 1181.16666667 478.5 1186 529.5 1186 c 128
 580.5 1186 627.333333333 1180.16666667 670 1168.5 c 128
 712.666666667 1156.83333333 749.666666667 1138.66666667 781 1114 c 0
 849 1060.66666667 883 985.333333333 883 888 c 0
 882.333333333 764 830 677 726 627 c 1
EndSplineSet
Validated: 1
Substitution2: "Helvetica-Light-'sups' Superscript in Latin lookup 5 subtable" threesuperior
Substitution2: "Helvetica-Light-'aalt' Access All Alternates in Latin lookup 0 subtable" threesuperior
EndChar

StartChar: four
Encoding: 52 52 146
Width: 1025
VWidth: 1685
GlyphClass: 2
Flags: W
LayerCount: 2
Fore
SplineSet
645 -4 m 1
 645 283 l 1
 90 283 l 1
 90 384 l 1
 659 1176 l 1
 769 1176 l 1
 769 388 l 1
 935 388 l 1
 935 283 l 1
 769 283 l 1
 769 -4 l 1
 645 -4 l 1
645 991 m 1
 216 388 l 1
 645 388 l 1
 645 991 l 1
EndSplineSet
Validated: 1
EndChar

StartChar: five
Encoding: 53 53 147
Width: 1005
VWidth: 1683
GlyphClass: 2
Flags: W
LayerCount: 2
Fore
SplineSet
234 538 m 1
 134 550 l 1
 233 1173 l 1
 850 1173 l 1
 850 1068 l 1
 334 1068 l 1
 264 696 l 1
 329.333333333 735.333333333 390.333333333 757.666666667 447 763 c 0
 469.666666667 765 502.5 766 545.5 766 c 128
 588.5 766 634 756.833333333 682 738.5 c 128
 730 720.166666667 771.333333333 694 806 660 c 0
 878.666666667 587.333333333 915 490.333333333 915 369 c 0
 915 247 876 148.666666667 798 74 c 0
 726 4.66666666667 634.666666667 -30 524 -30 c 1
 252 -30 107.666666667 83 91 309 c 2
 90 317 l 1
 212 317 l 1
 223.333333333 234.333333333 255.5 173.333333333 308.5 134 c 128
 361.5 94.6666666667 427.666666667 75 507 75 c 0
 597 75 667.333333333 103.666666667 718 161 c 0
 767.333333333 216.333333333 792.333333333 285.666666667 793 369 c 0
 793 454.333333333 766.666666667 524.666666667 714 580 c 0
 662.666666667 634 586.166666667 661 484.5 661 c 128
 382.833333333 661 299.333333333 620 234 538 c 1
EndSplineSet
Validated: 1
EndChar

StartChar: six
Encoding: 54 54 148
Width: 1007
VWidth: 1684
GlyphClass: 2
Flags: W
LayerCount: 2
Fore
SplineSet
774 880 m 1
 746 1014 671 1081 549 1081 c 0
 366.333333333 1081 260 965.333333333 230 734 c 0
 223.333333333 679.333333333 218 627.666666667 214 579 c 1
 255.333333333 631.666666667 289 667.666666667 315 687 c 0
 371.666666667 727.666666667 442 748 526 748 c 0
 652.666666667 748 749.5 713.666666667 816.5 645 c 128
 883.5 576.333333333 917 481.5 917 360.5 c 128
 917 239.5 883.166666667 144.333333333 815.5 75 c 128
 747.833333333 5.66666666667 650 -29 522 -29 c 1
 385.333333333 -29 281.666666667 13.6666666667 211 99 c 0
 130.333333333 197 90 344.333333333 90 541 c 0
 90 824.333333333 163.333333333 1018.66666667 310 1124 c 0
 368.666666667 1165.33333333 446.166666667 1186 542.5 1186 c 128
 638.833333333 1186 719.5 1160.83333333 784.5 1110.5 c 128
 849.5 1060.16666667 887.666666667 983.333333333 899 880 c 1
 774 880 l 1
795 364 m 0
 795 550.666666667 704 644 522 644 c 0
 440 644 373.333333333 615.666666667 322 559 c 0
 275.333333333 505.666666667 252 438.666666667 252 358 c 0
 252 236 300.333333333 150.666666667 397 102 c 0
 431.666666667 84.6666666667 474.333333333 76 525 76 c 0
 619.666666667 76 689.666666667 106.666666667 735 168 c 0
 775 220.666666667 795 286 795 364 c 0
EndSplineSet
Validated: 1
EndChar

StartChar: seven
Encoding: 55 55 149
Width: 967
VWidth: 1685
GlyphClass: 2
Flags: W
LayerCount: 2
Fore
SplineSet
90 1176 m 1
 877 1176 l 1
 877 1066 l 1
 724.333333333 896.666666667 600.666666667 700.333333333 506 477 c 0
 432 304.333333333 390.666666667 144 382 -4 c 1
 247 -4 l 1
 263 249.333333333 368.333333333 527 563 829 c 0
 616.333333333 911.666666667 670.333333333 986.333333333 725 1053 c 1
 90 1053 l 1
 90 1176 l 1
EndSplineSet
Validated: 1
EndChar

StartChar: eight
Encoding: 56 56 150
Width: 999
VWidth: 1684
GlyphClass: 2
Flags: W
LayerCount: 2
Fore
SplineSet
765 438 m 0
 721 526.666666667 633 571 501 571 c 0
 364.333333333 571 275 526 233 436 c 0
 219 405.333333333 212 370.333333333 212 331 c 128
 212 291.666666667 218.666666667 257 232 227 c 0
 260 165.666666667 310.333333333 122 383 96 c 0
 420.333333333 82.6666666667 460.666666667 76 504 76 c 128
 547.333333333 76 586 82.3333333333 620 95 c 128
 654 107.666666667 683.333333333 125.333333333 708 148 c 0
 760.666666667 196.666666667 787 258.333333333 787 333 c 0
 787 373.666666667 779.666666667 408.666666667 765 438 c 0
738 900 m 0
 738 1020.66666667 657.333333333 1081 496 1081 c 0
 382.666666667 1081 308 1042.66666667 272 966 c 0
 260 940.666666667 254 910.333333333 254 875 c 0
 254 810.333333333 279.333333333 760 330 724 c 0
 377.333333333 692 436.666666667 676 508 676 c 0
 616 676 687 716.333333333 721 797 c 0
 732.333333333 824.333333333 738 858.666666667 738 900 c 0
860 892 m 0
 860 770.666666667 809.333333333 682.666666667 708 628 c 1
 768 604 816.5 567 853.5 517 c 128
 890.5 467 909 409.666666667 909 345 c 0
 909 162.333333333 825 45.6666666667 657 -5 c 0
 601.666666667 -21 546.166666667 -29 490.5 -29 c 128
 434.833333333 -29 383.666666667 -21.6666666667 337 -7 c 0
 241 23.6666666667 170.333333333 82.6666666667 125 170 c 0
 101.666666667 214.666666667 90 269.5 90 334.5 c 128
 90 399.5 107.666666667 459.333333333 143 514 c 128
 178.333333333 568.666666667 227.333333333 609.333333333 290 636 c 1
 232.666666667 672 195.333333333 702.333333333 178 727 c 0
 147.333333333 770.333333333 132 819 132 873 c 128
 132 927 141.333333333 972.333333333 160 1009 c 0
 198.666666667 1084.33333333 260 1136.66666667 344 1166 c 0
 387.333333333 1180.66666667 433.666666667 1188 483 1188 c 0
 528.333333333 1188 576 1181.66666667 626 1169 c 0
 720 1145 787.666666667 1097 829 1025 c 0
 849.666666667 987.666666667 860 943.333333333 860 892 c 0
EndSplineSet
Validated: 1
EndChar

StartChar: nine
Encoding: 57 57 151
Width: 1009
VWidth: 1684
GlyphClass: 2
Flags: W
LayerCount: 2
Fore
SplineSet
796 574 m 1
 722 459.333333333 613.666666667 402 471 402 c 1
 353 402 260 437.333333333 192 508 c 0
 124 578.666666667 90 672.666666667 90 790 c 0
 90 906.666666667 122 1000.66666667 186 1072 c 0
 254 1148 354.333333333 1186 487 1186 c 0
 643 1186 757 1127 829 1009 c 0
 889 911 919 769.666666667 919 585 c 0
 919 388.333333333 877.666666667 235.666666667 795 127 c 0
 715.666666667 23 607 -29 469 -29 c 0
 311.666666667 -29 204 25.3333333333 146 134 c 0
 126.666666667 170.666666667 114.666666667 216 110 270 c 1
 233 270 l 1
 246.333333333 203.333333333 271 154.333333333 307 123 c 0
 343.666666667 91.6666666667 396.666666667 76 466 76 c 0
 642.666666667 76 747.666666667 190.333333333 781 419 c 0
 788.333333333 473.666666667 793.333333333 525.333333333 796 574 c 1
685 1005 m 0
 637.666666667 1058.33333333 571.666666667 1086 487 1088 c 1
 393.666666667 1086 324.666666667 1058.66666667 280 1006 c 0
 234.666666667 953.333333333 212 881.666666667 212 791 c 128
 212 700.333333333 235.333333333 630.333333333 282 581 c 0
 329.333333333 531.666666667 397.666666667 507 487 507 c 0
 567.666666667 507 634 535.666666667 686 593 c 0
 731.333333333 645 754 713.333333333 754 798 c 128
 754 882.666666667 731 951.666666667 685 1005 c 0
EndSplineSet
Validated: 1
EndChar

StartChar: uni0622
Encoding: 1570 1570 152
Width: 328
VWidth: 1600
Flags: MW
AnchorPoint: "Anchor-5" 163 1480 basechar 0
AnchorPoint: "Anchor-3" 154 -149 basechar 0
LayerCount: 2
Fore
SplineSet
100 946 m 1
 228 946 l 1
 228 0 l 1
 100 0 l 1
 100 946 l 1
466 1317 m 1
 548 1217 l 1
 468 1133 386 1090 254 1090 c 0
 106 1090 82 1138 18 1138 c 0
 -32 1138 -84 1074 -128 1029 c 1
 -220 1120 l 1
 -156 1184 -88 1266 16 1266 c 0
 90 1266 154 1218 252 1218 c 0
 350 1218 408 1259 466 1317 c 1
EndSplineSet
Validated: 1
PairPos2: "'kern' Horizontal Kerning lookup 6 subtable 2" uniE008 dx=200 dy=0 dh=200 dv=0 dx=0 dy=0 dh=0 dv=0
PairPos2: "'kern' Horizontal Kerning lookup 6 subtable 2" uniE006 dx=200 dy=0 dh=200 dv=0 dx=0 dy=0 dh=0 dv=0
PairPos2: "'kern' Horizontal Kerning lookup 6 subtable 2" uniFEDB dx=200 dy=0 dh=200 dv=0 dx=0 dy=0 dh=0 dv=0
PairPos2: "'kern' Horizontal Kerning lookup 6 subtable 2" uni06AF dx=200 dy=0 dh=200 dv=0 dx=0 dy=0 dh=0 dv=0
PairPos2: "'kern' Horizontal Kerning lookup 6 subtable 2" uni06A9 dx=200 dy=0 dh=200 dv=0 dx=0 dy=0 dh=0 dv=0
PairPos2: "'kern' Horizontal Kerning lookup 6 subtable 2" uniFB94 dx=200 dy=0 dh=200 dv=0 dx=0 dy=0 dh=0 dv=0
PairPos2: "'kern' Horizontal Kerning lookup 6 subtable 2" uniFB90 dx=200 dy=0 dh=200 dv=0 dx=0 dy=0 dh=0 dv=0
PairPos2: "'kern' Horizontal Kerning lookup 6 subtable 3" uni063A dx=-211 dy=0 dh=-211 dv=0 dx=0 dy=0 dh=0 dv=0
PairPos2: "'kern' Horizontal Kerning lookup 6 subtable 3" uni0639 dx=-211 dy=0 dh=-211 dv=0 dx=0 dy=0 dh=0 dv=0
PairPos2: "'kern' Horizontal Kerning lookup 6 subtable 2" uniFEFB dx=240 dy=0 dh=240 dv=0 dx=0 dy=0 dh=0 dv=0
PairPos2: "'kern' Horizontal Kerning lookup 6 subtable 2" uniFEF9 dx=240 dy=0 dh=240 dv=0 dx=0 dy=0 dh=0 dv=0
PairPos2: "'kern' Horizontal Kerning lookup 6 subtable 2" uniFEF7 dx=240 dy=0 dh=240 dv=0 dx=0 dy=0 dh=0 dv=0
PairPos2: "'kern' Horizontal Kerning lookup 6 subtable 2" uniFEF5 dx=240 dy=0 dh=240 dv=0 dx=0 dy=0 dh=0 dv=0
PairPos2: "'kern' Horizontal Kerning lookup 6 subtable 2" uniFEDF dx=222 dy=0 dh=222 dv=0 dx=0 dy=0 dh=0 dv=0
PairPos2: "'kern' Horizontal Kerning lookup 6 subtable 2" uni0644 dx=242 dy=0 dh=242 dv=0 dx=0 dy=0 dh=0 dv=0
PairPos2: "'kern' Horizontal Kerning lookup 6 subtable 2" uni0625 dx=163 dy=0 dh=163 dv=0 dx=0 dy=0 dh=0 dv=0
PairPos2: "'kern' Horizontal Kerning lookup 6 subtable 2" uni0623 dx=132 dy=0 dh=132 dv=0 dx=0 dy=0 dh=0 dv=0
PairPos2: "'kern' Horizontal Kerning lookup 6 subtable 2" uni0622 dx=475 dy=0 dh=475 dv=0 dx=0 dy=0 dh=0 dv=0
LCarets2: 1 0
Ligature2: "'liga' Standard Ligatures in Arabic lookup 5 subtable" uni0627 uni0653
Substitution2: "'fina' Terminal Forms in Arabic lookup 1 subtable" uniFE82
EndChar

StartChar: uni0643
Encoding: 1603 1603 171
Width: 1627
VWidth: 1600
Flags: HMW
AnchorPoint: "Anchor-5" 673 1192 basechar 0
AnchorPoint: "Anchor-3" 774 -356 basechar 0
LayerCount: 2
Fore
SplineSet
1408 359 m 0
 1408 647 1359 814 1243 1015 c 1
 1355 1080 l 1
 1479 865 1537 663 1537 359 c 0
 1537 272 1511 181 1446 112 c 0
 1378 40 1290 0 885 0 c 0
 671 0 474 2 324 56 c 0
 163 113 90 206 90 346 c 0
 90 415 107 463 124 528 c 1
 248 495 l 1
 235 446 218 393 218 345 c 0
 218 253 278 209 365 179 c 0
 496 135 713 129 951 129 c 0
 1221 129 1314 159 1352 200 c 0
 1390 241 1408 297 1408 359 c 0
EndSplineSet
Refer: 25 1620 N 1 0 0 1 808 -769 2
Validated: 1
Substitution2: "'init' Initial Forms in Arabic lookup 1 subtable" uniFEDB
Substitution2: "'medi' Medial Forms in Arabic lookup 1 subtable" uniFEDC
Substitution2: "'fina' Terminal Forms in Arabic lookup 1 subtable" uniFEDA
EndChar

StartChar: uniFDFC
Encoding: 65020 65020 190
Width: 2871
VWidth: 1600
Flags: HMW
LayerCount: 2
Fore
SplineSet
1882 129 m 3
 1949 129 2038 143 2085 194 c 0
 2111 222 2131 267 2131 338 c 0
 2131 401 2116 487 2075 600 c 1
 2196 644 l 1
 2241 522 2261 421 2261 338 c 0
 2261 237 2229 160 2180 107 c 0
 2092 11 1964 0 1883 0 c 3
 1741 0 1644 64 1603 154 c 0
 1563 243 1562 347 1562 449 c 2
 1562 1219 l 1
 1691 1219 l 1
 1691 449 l 2
 1691 347 1697 258 1720 207 c 0
 1743 157 1773 129 1882 129 c 3
EndSplineSet
Refer: 45 -1 N 1 0 0 1 1015 -722 2
Refer: 84 1604 N 1 0 0 1 0 0 2
Refer: 78 1585 N 1 0 0 1 2390 0 2
Validated: 1
EndChar

StartChar: uniFEEE
Encoding: 65262 65262 198
Width: 834
VWidth: 1600
Flags: MW
AnchorPoint: "Anchor-5" 398 836 basechar 0
AnchorPoint: "Anchor-3" 395 -738 basechar 0
LayerCount: 2
Fore
SplineSet
707 129 m 1
 848 129 l 1
 848 0 l 17
 682 0 l 1
 632 -238 444 -409 180 -512 c 1
 134 -391 l 1
 331 -313 498 -190 550 0 c 1
 405 0 l 2
 215 0 90 109 90 278 c 0
 90 456 232 645 403 645 c 0
 592 645 697 362 707 129 c 1
403 516 m 0
 313 516 219 394 219 281 c 0
 219 169 304 130 409 130 c 2
 573 130 l 1
 573 141 573 152 573 163 c 0
 573 300 489 516 403 516 c 0
EndSplineSet
Validated: 1
PairPos2: "'kern' Horizontal Kerning lookup 6 subtable 3" uni063A dx=-299 dy=0 dh=-299 dv=0 dx=0 dy=0 dh=0 dv=0
PairPos2: "'kern' Horizontal Kerning lookup 6 subtable 3" uni0639 dx=-299 dy=0 dh=-299 dv=0 dx=0 dy=0 dh=0 dv=0
EndChar

StartChar: uniFEDA
Encoding: 65242 65242 236
Width: 1767
VWidth: 1600
Flags: MW
AnchorPoint: "Anchor-5" 806 1249 basechar 0
AnchorPoint: "Anchor-3" 822 -267 basechar 0
LayerCount: 2
Fore
SplineSet
1444 344 m 0
 1444 632 1395 801 1279 1002 c 1
 1380 1067 l 1
 1504 852 1573 652 1573 349 c 0
 1573 299 1578 267 1590 232 c 0
 1611 166 1661 129 1767 129 c 2
 1781 129 l 1
 1781 0 l 1
 1767 0 l 2
 1649 0 1558 47 1508 115 c 2
 1492 137 l 1
 1456 100 1412 75 1371 58 c 0
 1227 1 1035 0 832 0 c 0
 628 0 436 1 292 58 c 0
 198 96 90 181 90 344 c 0
 90 388 97 428 104 463 c 2
 118 526 l 1
 244 499 l 1
 230 436 l 2
 224 406 219 374 219 344 c 0
 219 248 271 206 340 178 c 0
 447 136 629 129 832 129 c 0
 1035 129 1216 136 1323 178 c 0
 1392 206 1444 248 1444 344 c 0
EndSplineSet
Refer: 25 1620 S 1 0 0 1 839 -769 2
Validated: 1
EndChar

StartChar: uniFB8F
Encoding: 64399 64399 243
Width: 1767
VWidth: 1600
Flags: MW
AnchorPoint: "Anchor-5" 1105 1639 basechar 0
AnchorPoint: "Anchor-3" 856 -374 basechar 0
LayerCount: 2
Fore
SplineSet
1590 232 m 0
 1611 166 1661 129 1767 129 c 2
 1781 129 l 1
 1781 0 l 1
 1767 0 l 2
 1649 0 1558 47 1508 115 c 2
 1492 137 l 1
 1456 100 1412 75 1371 58 c 0
 1227 1 1035 0 832 0 c 0
 628 0 436 1 292 58 c 0
 198 96 90 181 90 344 c 0
 90 388 97 428 104 463 c 2
 118 526 l 1
 244 499 l 1
 230 436 l 2
 224 406 219 374 219 344 c 0
 219 248 271 206 340 178 c 0
 447 136 629 129 832 129 c 0
 1035 129 1216 136 1323 178 c 0
 1392 206 1444 248 1444 344 c 0
 1444 522 1143 671 858 737 c 1
 858 910 l 1
 1573 1371 l 1
 1573 1217 l 1
 982 835 l 1
 1301 743 1573 589 1573 349 c 3
 1573 299 1578 267 1590 232 c 0
EndSplineSet
Validated: 1
EndChar

StartChar: uniE006
Encoding: 57350 57350 255
Width: 688
VWidth: 1600
Flags: MW
AnchorPoint: "Anchor-5" 162 1446 basechar 0
AnchorPoint: "Anchor-3" 197 -242 basechar 0
LayerCount: 2
Fore
SplineSet
0 129 m 1
 233 129 l 0
 436 129 469 248 469 344 c 1
 469 522 168 671 -117 737 c 1
 -117 910 l 1
 598 1371 l 1
 598 1217 l 1
 7 835 l 1
 333 741 598 588 598 344 c 0
 598 181 497 0 234 0 c 0
 0 0 l 2
 -14 0 l 1
 -14 129 l 1
 0 129 l 1
EndSplineSet
Validated: 1
EndChar

StartChar: uniE007
Encoding: 57351 57351 256
Width: 812
VWidth: 1600
Flags: MW
AnchorPoint: "Anchor-5" 160 1446 basechar 0
AnchorPoint: "Anchor-3" 215 -202 basechar 0
LayerCount: 2
Fore
SplineSet
635 232 m 0
 656 166 706 129 812 129 c 2
 826 129 l 1
 826 0 l 1
 812 0 l 2
 686 0 599 52 546 125 c 1
 489 52 394 0 254 0 c 2
 -14 0 l 1
 -14 129 l 1
 253 129 l 2
 456 129 489 248 489 344 c 0
 489 522 188 671 -97 737 c 1
 -97 910 l 1
 618 1371 l 1
 618 1217 l 1
 27 835 l 1
 351 742 614 590 618 349 c 1
 618 299 623 267 635 232 c 0
EndSplineSet
Validated: 1
EndChar

StartChar: uniE00A
Encoding: 57354 57354 259
Width: 754
Flags: MW
AnchorPoint: "Anchor-5" 409 1146 basechar 0
AnchorPoint: "Anchor-3" 416 -319 basechar 0
LayerCount: 2
Fore
SplineSet
768 0 m 1
 754 0 l 1
 667 0 540 15 457 39 c 1
 443 32 430 27 415 22 c 0
 351 1 288 0 232 0 c 0
 -14 0 l 1
 -14 129 l 1
 244 129 l 1
 208 151 175 178 148 210 c 0
 110 253 78 316 78 393 c 0
 78 508 146 580 214 629 c 0
 275 673 360 719 450 719 c 0
 518 719 582 689 620 644 c 0
 660 595 679 537 679 460 c 0
 679 385 668 326 648 264 c 0
 634 221 614 179 585 141 c 1
 629 133 709 129 754 129 c 1
 768 129 l 1
 768 0 l 1
448 590 m 0
 396 590 336 557 294 527 c 0
 253 498 207 457 207 394 c 0
 207 330 244 288 285 257 c 0
 327 225 387 199 442 179 c 1
 482 208 507 250 524 302 c 0
 539 347 550 403 550 460 c 0
 550 500 542 531 525 555 c 0
 509 577 485 590 448 590 c 0
EndSplineSet
Validated: 1
LCarets2: 1 0
Ligature2: "'rlig' Required Ligatures in Arabic lookup 1 subtable" uniFEF3 uniFED6
EndChar

StartChar: uniE00D
Encoding: 57357 57357 262
Width: 1648
VWidth: 1600
Flags: MW
AnchorPoint: "Anchor-5" 1324 1316 basechar 0
AnchorPoint: "Anchor-3" 639 -264 basechar 0
LayerCount: 2
Fore
SplineSet
832 0 m 1
 628 0 436 1 292 58 c 0
 198 96 90 181 90 344 c 0
 90 388 97 428 104 463 c 2
 118 526 l 1
 244 499 l 1
 230 436 l 2
 224 406 219 374 219 344 c 0
 219 248 271 206 340 178 c 0
 447 136 629 129 832 129 c 1
 1138 129 l 1
 1102 151 1069 178 1042 210 c 0
 1004 253 972 316 972 393 c 0
 972 508 1040 580 1108 629 c 0
 1169 673 1254 719 1344 719 c 0
 1412 719 1476 689 1514 644 c 0
 1554 595 1573 537 1573 460 c 0
 1573 385 1562 326 1542 264 c 0
 1528 221 1508 179 1479 141 c 1
 1523 133 1603 129 1648 129 c 1
 1662 129 l 1
 1662 0 l 1
 1648 0 l 1
 1561 0 1434 15 1351 39 c 1
 1337 32 1324 27 1309 22 c 0
 1245 1 1182 0 1126 0 c 0
 832 0 l 1
1342 590 m 0
 1290 590 1230 557 1188 527 c 0
 1147 498 1101 457 1101 394 c 0
 1101 330 1138 288 1179 257 c 0
 1221 225 1281 199 1336 179 c 1
 1376 208 1401 250 1418 302 c 0
 1433 347 1444 403 1444 460 c 0
 1444 500 1436 531 1419 555 c 0
 1403 577 1379 590 1342 590 c 0
EndSplineSet
Refer: 0 46 N 1 0 0 1 1163 936 2
Validated: 1
LCarets2: 1 0
Ligature2: "'rlig' Required Ligatures in Arabic lookup 1 subtable" uniFE92 uniFEF2
EndChar

StartChar: exclam
Encoding: 33 33 265
Width: 329
VWidth: 1600
Flags: HMW
LayerCount: 2
Fore
SplineSet
100 1217 m 1
 229 1217 l 1
 229 330 l 1
 100 330 l 1
 100 1217 l 1
EndSplineSet
Refer: 0 46 N 1 0 0 1 -16 0 2
Validated: 1
EndChar

StartChar: uni066B
Encoding: 1643 1643 266
Width: 680
VWidth: 1600
Flags: MW
LayerCount: 2
Fore
SplineSet
476 757 m 1
 590 757 l 1
 203 -230 l 1
 90 -230 l 1
 476 757 l 1
EndSplineSet
Validated: 1
EndChar

StartChar: quotedbl
Encoding: 34 34 267
Width: 470
VWidth: 1778
GlyphClass: 2
Flags: W
LayerCount: 2
Fore
SplineSet
90 1306 m 1
 192 1306 l 1
 192 909 l 1
 90 909 l 1
 90 1306 l 1
278 1306 m 1
 380 1306 l 1
 380 909 l 1
 278 909 l 1
 278 1306 l 1
EndSplineSet
Validated: 1
EndChar

StartChar: numbersign
Encoding: 35 35 268
Width: 1058
VWidth: 1685
GlyphClass: 2
Flags: W
LayerCount: 2
Fore
SplineSet
924 374 m 1
 736 374 l 1
 680 -4 l 1
 562 -4 l 1
 616 381 l 1
 391 381 l 1
 332 -4 l 1
 218 -4 l 1
 276 374 l 1
 90 374 l 1
 90 488 l 1
 292 488 l 1
 326 710 l 1
 138 710 l 1
 138 824 l 1
 341 824 l 1
 398 1176 l 1
 518 1176 l 1
 462 817 l 1
 686 817 l 1
 739 1176 l 1
 853 1176 l 1
 801 824 l 1
 968 824 l 1
 968 710 l 1
 785 710 l 1
 753 488 l 1
 924 488 l 1
 924 374 l 1
669 710 m 1
 445 710 l 1
 409 488 l 1
 636 488 l 1
 669 710 l 1
EndSplineSet
Validated: 1
EndChar

StartChar: dollar
Encoding: 36 36 269
Width: 1022
VWidth: 1680
GlyphClass: 2
Flags: W
LayerCount: 2
Fore
SplineSet
464 666 m 1
 464 1084 l 1
 403.333333333 1082.66666667 352 1063.66666667 310 1027 c 0
 266.666666667 989 245 940 245 880 c 0
 245 788 290.666666667 725.333333333 382 692 c 0
 407.333333333 682.666666667 434.666666667 674 464 666 c 1
561 526 m 1
 561 58 l 1
 629.666666667 60 688 82.3333333333 736 125 c 0
 785.333333333 169.666666667 810 226.666666667 810 296 c 0
 810 400.666666667 759 469 657 501 c 0
 627.666666667 510.333333333 595.666666667 518.666666667 561 526 c 1
561 -170 m 1
 466 -170 l 1
 466 -42 l 1
 262 -29.3333333333 139.666666667 68.6666666667 99 252 c 0
 97.6666666667 261.333333333 96.3333333333 274.333333333 95 291 c 128
 93.6666666667 307.666666667 92 325 90 343 c 1
 215 343 l 1
 215 336 l 2
 215 261.333333333 238.166666667 198.666666667 284.5 148 c 128
 330.833333333 97.3333333333 390.666666667 69 464 63 c 1
 464 547 l 1
 354 573.666666667 278.5 602.833333333 237.5 634.5 c 128
 196.5 666.166666667 167.166666667 700.333333333 149.5 737 c 128
 131.833333333 773.666666667 123 817.333333333 123 868 c 128
 123 918.666666667 132 963.333333333 150 1002 c 0
 187.333333333 1080.66666667 249 1134.66666667 335 1164 c 0
 375.666666667 1177.33333333 419.333333333 1184 466 1184 c 1
 466 1286 l 1
 561 1286 l 1
 561 1184 l 1
 713 1182 815 1124.33333333 867 1011 c 0
 884.333333333 973 894 927.666666667 896 875 c 1
 773 875 l 1
 773 882 l 2
 773 939.333333333 752 986.666666667 710 1024 c 0
 670 1059.33333333 620.333333333 1077.66666667 561 1079 c 1
 561 646 l 1
 616.333333333 632.666666667 666.833333333 618.5 712.5 603.5 c 128
 758.166666667 588.5 797 567.666666667 829 541 c 0
 897 484.333333333 931.333333333 397.333333333 932 280 c 0
 932 186 892.333333333 107.666666667 813 45 c 0
 745.666666667 -8.33333333333 661.666666667 -37.3333333333 561 -42 c 1
 561 -170 l 1
EndSplineSet
Validated: 1
EndChar

StartChar: percent
Encoding: 37 37 270
Width: 1482
VWidth: 1684
GlyphClass: 3
Flags: W
LayerCount: 2
Fore
SplineSet
1311 71 m 128
 1257 15.6666666667 1189.66666667 -12 1109 -12 c 0
 1027 -12 957.833333333 15.6666666667 901.5 71 c 128
 845.166666667 126.333333333 817 194.333333333 817 275 c 0
 817 353 845.666666667 420.166666667 903 476.5 c 128
 960.333333333 532.833333333 1029 561 1109 561 c 128
 1189 561 1256.16666667 533.166666667 1310.5 477.5 c 128
 1364.83333333 421.833333333 1392 354 1392 274 c 128
 1392 194 1365 126.333333333 1311 71 c 128
1231 398 m 128
 1197 433.333333333 1156 451 1108 451 c 128
 1060 451 1018 433.333333333 982 398 c 128
 946 362.666666667 928 321.333333333 928 274 c 128
 928 226.666666667 946.333333333 185.5 983 150.5 c 128
 1019.66666667 115.5 1061.33333333 98 1108 98 c 128
 1154.66666667 98 1195.33333333 115.666666667 1230 151 c 128
 1264.66666667 186.333333333 1282 227.5 1282 274.5 c 128
 1282 321.5 1265 362.666666667 1231 398 c 128
669 894 m 0
 669 854.666666667 661.5 817.666666667 646.5 783 c 128
 631.5 748.333333333 610.666666667 718 584 692 c 0
 526.666666667 636 457.666666667 608 377 608 c 0
 297.666666667 608 230 636 174 692 c 128
 118 748 90 815.333333333 90 894 c 0
 90 973.333333333 118 1040.33333333 174 1095 c 0
 232.666666667 1153 300.333333333 1182 377 1182 c 0
 457.666666667 1182 526.666666667 1153.66666667 584 1097 c 0
 640.666666667 1041.66666667 669 974 669 894 c 0
309 732 m 128
 330.333333333 722.666666667 353 718 377 718 c 128
 401 718 423.666666667 722.666666667 445 732 c 0
 489 751.333333333 521.333333333 782.666666667 542 826 c 0
 552 846.666666667 557 869.166666667 557 893.5 c 128
 557 917.833333333 552.333333333 940.333333333 543 961 c 128
 533.666666667 981.666666667 520.666666667 1000.33333333 504 1017 c 128
 487.333333333 1033.66666667 468 1046.83333333 446 1056.5 c 128
 424 1066.16666667 401 1071 377 1071 c 128
 353 1071 330.333333333 1066.33333333 309 1057 c 128
 287.666666667 1047.66666667 268.833333333 1035 252.5 1019 c 128
 236.166666667 1003 223.5 984.166666667 214.5 962.5 c 128
 205.5 940.833333333 201 918 201 894 c 128
 201 870 205.5 847.5 214.5 826.5 c 128
 223.5 805.5 236.166666667 786.833333333 252.5 770.5 c 128
 268.833333333 754.166666667 287.666666667 741.333333333 309 732 c 128
448 -29 m 1
 342 -29 l 1
 1033 1186 l 1
 1139 1186 l 1
 448 -29 l 1
EndSplineSet
Validated: 1
Ligature2: "Helvetica-Light-Ligature Substitution lookup 7 subtable" zero slash zero
EndChar

StartChar: ampersand
Encoding: 38 38 271
Width: 1235
VWidth: 1686
GlyphClass: 2
Flags: W
LayerCount: 2
Fore
SplineSet
797 225 m 1
 449 628 l 1
 343.666666667 577.333333333 273 507 237 417 c 0
 225 387 219 354.166666667 219 318.5 c 128
 219 282.833333333 225.666666667 249.666666667 239 219 c 0
 282.333333333 119.666666667 366 70 490 70 c 0
 604 70 706.333333333 121.666666667 797 225 c 1
493 750 m 1
 525.666666667 770 558.666666667 791.5 592 814.5 c 128
 625.333333333 837.5 648.666666667 863.666666667 662 893 c 0
 674 919.666666667 680 944 680 966 c 0
 680 970 680 970 680 974 c 0
 678.666666667 998 671.666666667 1020 659 1040 c 0
 630.333333333 1085.33333333 586.666666667 1108 528 1108 c 0
 487.333333333 1108 454.666666667 1098.66666667 430 1080 c 0
 388.666666667 1048 368 1011.33333333 368 970 c 0
 368 925.333333333 397.666666667 866.666666667 457 794 c 0
 471 778 483 763.333333333 493 750 c 1
1024 555 m 1
 1019.33333333 421 991.666666667 314.333333333 941 235 c 1
 1145 -3 l 1
 990 -3 l 1
 874 134 l 1
 820.666666667 74 762.833333333 30.6666666667 700.5 4 c 128
 638.166666667 -22.6666666667 572.166666667 -36 502.5 -36 c 128
 432.833333333 -36 374.333333333 -27.1666666667 327 -9.5 c 128
 279.666666667 8.16666666667 238.333333333 33 203 65 c 0
 127.666666667 132.333333333 90 220.333333333 90 329 c 0
 90 490.333333333 185.666666667 615.333333333 377 704 c 1
 345.666666667 740.666666667 316.833333333 780.5 290.5 823.5 c 128
 264.166666667 866.5 251 911.666666667 251 959 c 0
 251 1042.33333333 279 1106.66666667 335 1152 c 0
 387 1193.33333333 454 1214 536 1214 c 0
 614 1214 678.666666667 1190.33333333 730 1143 c 0
 780.666666667 1096.33333333 806 1040 806 974 c 0
 806 872.666666667 754 789 650 723 c 0
 622 705 593 687 563 669 c 1
 864 326 l 1
 894.666666667 379.333333333 910 453.333333333 910 548 c 2
 910 555 l 1
 1024 555 l 1
EndSplineSet
Validated: 1
EndChar

StartChar: quotesingle
Encoding: 39 39 272
Width: 283
VWidth: 1778
GlyphClass: 2
Flags: W
LayerCount: 2
Fore
SplineSet
90 1306 m 1
 193 1306 l 1
 193 909 l 1
 90 909 l 1
 90 1306 l 1
EndSplineSet
Validated: 1
EndChar

StartChar: plus
Encoding: 43 43 273
Width: 1052
VWidth: 1650
GlyphClass: 2
Flags: W
LayerCount: 2
Fore
SplineSet
466 805 m 1
 585 805 l 1
 585 440 l 1
 962 440 l 1
 962 326 l 1
 585 326 l 1
 585 -39 l 1
 466 -39 l 1
 466 326 l 1
 90 326 l 1
 90 440 l 1
 466 440 l 1
 466 805 l 1
EndSplineSet
Validated: 1
EndChar

StartChar: comma
Encoding: 44 44 274
Width: 317
VWidth: 1551
GlyphClass: 2
Flags: W
LayerCount: 2
Fore
SplineSet
227 11 m 1
 227 -188 l 2
 227 -237.333333333 215 -277 191 -307 c 0
 167.666666667 -336.333333333 134 -358.333333333 90 -373 c 1
 90 -300 l 1
 105.333333333 -291.333333333 118.833333333 -279.833333333 130.5 -265.5 c 128
 142.166666667 -251.166666667 148 -229.333333333 148 -200 c 2
 148 -152 l 1
 90 -152 l 1
 90 11 l 1
 227 11 l 1
EndSplineSet
Validated: 1
EndChar

StartChar: hyphen
Encoding: 45 45 275
Width: 622
VWidth: 1653
GlyphClass: 2
Flags: W
LayerCount: 2
Fore
SplineSet
532 456 m 1
 532 337 l 1
 90 337 l 1
 90 456 l 1
 532 456 l 1
EndSplineSet
Validated: 1
EndChar

StartChar: semicolon
Encoding: 59 59 276
Width: 317
VWidth: 1624
GlyphClass: 2
Flags: W
LayerCount: 2
Fore
SplineSet
227 90 m 1
 227 -112 l 2
 227 -162 215 -202.333333333 191 -233 c 0
 167 -263.666666667 133.333333333 -286 90 -300 c 1
 90 -226 l 1
 105.333333333 -216.666666667 118.833333333 -204.833333333 130.5 -190.5 c 128
 142.166666667 -176.166666667 148 -153 148 -121 c 2
 148 -72 l 1
 90 -72 l 1
 90 90 l 1
 227 90 l 1
90 603 m 1
 90 766 l 1
 227 766 l 1
 227 603 l 1
 90 603 l 1
EndSplineSet
Validated: 1
EndChar

StartChar: question
Encoding: 63 63 277
Width: 942
VWidth: 1693
GlyphClass: 2
Flags: W
LayerCount: 2
Fore
SplineSet
394 297 m 1
 394 310 394 310 394 322 c 0
 394 378.666666667 398.333333333 429.666666667 407 475 c 0
 417.666666667 526.333333333 446.666666667 575.666666667 494 623 c 0
 520 649 547.333333333 674.333333333 576 699 c 0
 678.666666667 789 730 868 730 936 c 0
 730 996.666666667 707.666666667 1046.33333333 663 1085 c 0
 615.666666667 1126.33333333 550 1147 466 1147 c 0
 341.333333333 1147 260.333333333 1090.66666667 223 978 c 0
 213 948.666666667 208 914.666666667 208 876 c 0
 208 868 208 868 208 861 c 1
 92 861 l 1
 90.6666666667 875 90 888.666666667 90 902 c 0
 90 1000.66666667 122 1082 186 1146 c 0
 256.666666667 1216.66666667 351 1252 469 1252 c 0
 652.333333333 1252 771.333333333 1188 826 1060 c 0
 843.333333333 1019.33333333 852 974.333333333 852 925 c 128
 852 875.666666667 840.666666667 832.833333333 818 796.5 c 128
 795.333333333 760.166666667 768.166666667 726.833333333 736.5 696.5 c 128
 704.833333333 666.166666667 672 635.333333333 638 604 c 0
 560.666666667 532.666666667 520 467 516 407 c 0
 513.333333333 371.666666667 512 337.333333333 512 304 c 2
 512 297 l 1
 394 297 l 1
383 3 m 1
 383 166 l 1
 529 166 l 1
 529 3 l 1
 383 3 l 1
EndSplineSet
Validated: 1
EndChar

StartChar: at
Encoding: 64 64 278
Width: 1424
VWidth: 1689
GlyphClass: 2
Flags: W
LayerCount: 2
Fore
SplineSet
780 297 m 1
 721.333333333 243.666666667 653.666666667 217 577 217 c 0
 503 217 443 243.333333333 397 296 c 0
 353.666666667 344.666666667 332 401.333333333 332 466 c 0
 332 596 371.666666667 714.666666667 451 822 c 0
 488.333333333 872.666666667 533.666666667 914.5 587 947.5 c 128
 640.333333333 980.5 694 997 748 997 c 0
 846.666666667 997 916.333333333 963.666666667 957 897 c 1
 979 963 l 1
 1109 963 l 1
 933 444 l 1
 919.666666667 406.666666667 913 377.666666667 913 357 c 0
 913 342.333333333 916.333333333 331.666666667 923 325 c 0
 929 319 944.166666667 316 968.5 316 c 128
 992.833333333 316 1021.33333333 328.5 1054 353.5 c 128
 1086.66666667 378.5 1115 410.666666667 1139 450 c 0
 1192.33333333 535.333333333 1219 617.666666667 1219 697 c 0
 1219 839.666666667 1172 952 1078 1034 c 0
 987.333333333 1111.33333333 875.333333333 1150 742 1150 c 0
 586.666666667 1150 457.333333333 1096 354 988 c 0
 254.666666667 882 205 753 205 601 c 0
 205 451.666666667 256.333333333 325.666666667 359 223 c 0
 465 118.333333333 593.666666667 66 745 66 c 1
 883.666666667 66 1004 109.666666667 1106 197 c 0
 1138.66666667 225 1168.33333333 258 1195 296 c 1
 1311 296 l 1
 1225 136.666666667 1092.66666667 34.3333333333 914 -11 c 0
 858.666666667 -25 793.5 -32 718.5 -32 c 128
 643.5 -32 565.833333333 -15.1666666667 485.5 18.5 c 128
 405.166666667 52.1666666667 335.666666667 98.3333333333 277 157 c 0
 152.333333333 281.666666667 90 433.666666667 90 613 c 0
 90 701 107 783.666666667 141 861 c 0
 210.333333333 1018.33333333 325.666666667 1130.66666667 487 1198 c 0
 566.333333333 1231.33333333 648.833333333 1248 734.5 1248 c 128
 820.166666667 1248 899.666666667 1234.83333333 973 1208.5 c 128
 1046.33333333 1182.16666667 1109.33333333 1145 1162 1097 c 0
 1276.66666667 994.333333333 1334 865.666666667 1334 711 c 0
 1334 583 1290.33333333 467 1203 363 c 0
 1165 317.666666667 1121.83333333 281.5 1073.5 254.5 c 128
 1025.16666667 227.5 981.666666667 214 943 214 c 0
 859 214 804.666666667 241.666666667 780 297 c 1
557 742 m 0
 503.666666667 656 477 570.666666667 477 486 c 0
 477 448 487.833333333 413.833333333 509.5 383.5 c 128
 531.166666667 353.166666667 561.666666667 338 601 338 c 128
 640.333333333 338 676.666666667 353.333333333 710 384 c 128
 743.333333333 414.666666667 773 452 799 496 c 0
 853 588 880 677.333333333 880 764 c 0
 880 796.666666667 869.833333333 824.666666667 849.5 848 c 128
 829.166666667 871.333333333 799.5 883 760.5 883 c 128
 721.5 883 684.166666667 869.666666667 648.5 843 c 128
 612.833333333 816.333333333 582.333333333 782.666666667 557 742 c 0
EndSplineSet
Validated: 1
EndChar

StartChar: A
Encoding: 65 65 279
Width: 1288
VWidth: 1689
GlyphClass: 2
Flags: W
LayerCount: 2
Fore
SplineSet
90 0 m 1
 579 1217 l 1
 722 1217 l 1
 1198 0 l 1
 1065 0 l 1
 925 375 l 1
 367 375 l 1
 223 0 l 1
 90 0 l 1
646 1099 m 1
 412 487 l 1
 880 487 l 1
 646 1099 l 1
EndSplineSet
Validated: 1
Substitution2: "Helvetica-Light-'sups' Superscript in Latin lookup 5 subtable" ordfeminine
Substitution2: "Helvetica-Light-'aalt' Access All Alternates in Latin lookup 0 subtable" ordfeminine
EndChar

StartChar: B
Encoding: 66 66 280
Width: 1101
VWidth: 1689
GlyphClass: 2
Flags: W
LayerCount: 2
Fore
SplineSet
218 575 m 1
 218 112 l 1
 509 112 l 2
 650.333333333 112 745.666666667 125.666666667 795 153 c 0
 853.666666667 186.333333333 883 250.666666667 883 346 c 0
 883 436 851.333333333 498 788 532 c 0
 732.666666667 560.666666667 644.666666667 575 524 575 c 2
 218 575 l 1
218 1105 m 1
 218 686 l 1
 508 686 l 2
 679.333333333 686 780.333333333 728 811 812 c 0
 821 839.333333333 826 871.333333333 826 908 c 0
 826 980 801.333333333 1030.66666667 752 1060 c 0
 700.666666667 1090 610.666666667 1105 482 1105 c 2
 218 1105 l 1
1011 346 m 0
 1011 115.333333333 874.666666667 0 602 0 c 2
 90 0 l 1
 90 1217 l 1
 543 1217 l 2
 753.666666667 1217 883.666666667 1155.66666667 933 1033 c 0
 948.333333333 995 956 953.833333333 956 909.5 c 128
 956 865.166666667 950.333333333 827 939 795 c 0
 911 718.333333333 857.666666667 669 779 647 c 1
 853.666666667 631.666666667 911 598.166666667 951 546.5 c 128
 991 494.833333333 1011 428 1011 346 c 0
EndSplineSet
Validated: 1
EndChar

StartChar: C
Encoding: 67 67 281
Width: 1262
VWidth: 1689
GlyphClass: 2
Flags: W
LayerCount: 2
Fore
SplineSet
1025 850 m 1
 1001 955.333333333 957.166666667 1029.5 893.5 1072.5 c 128
 829.833333333 1115.5 753.333333333 1137 664 1137 c 128
 574.666666667 1137 503.666666667 1122.66666667 451 1094 c 0
 347 1038.66666667 278 944.666666667 244 812 c 0
 228 748.666666667 220 682.666666667 220 614 c 0
 220 370 294 207.333333333 442 126 c 0
 497.333333333 95.3333333333 559 80 627 80 c 0
 795 80 915 145.666666667 987 277 c 0
 1009 317 1025.66666667 362.666666667 1037 414 c 1
 1172 414 l 1
 1138.66666667 276 1083.33333333 170.666666667 1006 98 c 0
 913.333333333 11.3333333333 787.333333333 -32 628 -32 c 0
 444.666666667 -32 306.333333333 32 213 160 c 0
 131 272 90 421.333333333 90 608 c 0
 90 826 145 990.666666667 255 1102 c 0
 351.666666667 1199.33333333 490.333333333 1248 671 1248 c 0
 874.333333333 1248 1017.33333333 1174 1100 1026 c 0
 1127.33333333 977.333333333 1146.33333333 918.666666667 1157 850 c 1
 1025 850 l 1
EndSplineSet
Validated: 1
EndChar

StartChar: D
Encoding: 68 68 282
Width: 1202
VWidth: 1689
GlyphClass: 2
Flags: W
LayerCount: 2
Fore
SplineSet
90 0 m 1
 90 1217 l 1
 518 1217 l 2
 646.666666667 1217 746.333333333 1202.66666667 817 1174 c 0
 936.333333333 1126 1020.66666667 1029.33333333 1070 884 c 0
 1098 801.333333333 1112 710 1112 610 c 0
 1112 410.666666667 1062.33333333 257.333333333 963 150 c 0
 873 50 724.666666667 0 518 0 c 2
 90 0 l 1
219 1105 m 1
 219 112 l 1
 492 112 l 2
 545.333333333 112 595 115 641 121 c 128
 687 127 732 140.666666667 776 162 c 0
 914 230 983 379.333333333 983 610 c 0
 983 713.333333333 972.5 792.166666667 951.5 846.5 c 128
 930.5 900.833333333 906.666666667 944.666666667 880 978 c 0
 826 1045.33333333 747.666666667 1085 645 1097 c 0
 594.333333333 1102.33333333 543.333333333 1105 492 1105 c 2
 219 1105 l 1
EndSplineSet
Validated: 1
EndChar

StartChar: E
Encoding: 69 69 283
Width: 1033
VWidth: 1689
GlyphClass: 2
Flags: W
LayerCount: 2
Fore
SplineSet
90 0 m 1
 90 1217 l 1
 927 1217 l 1
 927 1105 l 1
 218 1105 l 1
 218 686 l 1
 859 686 l 1
 859 575 l 1
 218 575 l 1
 218 112 l 1
 943 112 l 1
 943 0 l 1
 90 0 l 1
EndSplineSet
Validated: 1
EndChar

StartChar: F
Encoding: 70 70 284
Width: 992
VWidth: 1689
GlyphClass: 2
Flags: W
LayerCount: 2
Fore
SplineSet
90 0 m 1
 90 1217 l 1
 902 1217 l 1
 902 1105 l 1
 219 1105 l 1
 219 686 l 1
 841 686 l 1
 841 575 l 1
 219 575 l 1
 219 0 l 1
 90 0 l 1
EndSplineSet
Validated: 1
EndChar

StartChar: G
Encoding: 71 71 285
Width: 1292
VWidth: 1689
GlyphClass: 2
Flags: W
LayerCount: 2
Fore
SplineSet
661 523 m 1
 661 636 l 1
 1202 636 l 1
 1202 0 l 1
 1091 0 l 1
 1091 190 l 1
 994.333333333 42 842.666666667 -32 636 -32 c 1
 470 -32 338.666666667 22 242 130 c 0
 140.666666667 242.666666667 90 404.333333333 90 615 c 0
 90 803.666666667 136.333333333 953.666666667 229 1065 c 0
 330.333333333 1187 476.333333333 1248 667 1248 c 0
 877.666666667 1248 1029 1175.33333333 1121 1030 c 0
 1151.66666667 981.333333333 1175 921.333333333 1191 850 c 1
 1058 850 l 1
 1028 986 944.333333333 1075.33333333 807 1118 c 0
 765.666666667 1130.66666667 713.333333333 1137 650 1137 c 128
 586.666666667 1137 526 1123.33333333 468 1096 c 0
 302 1017.33333333 219 842 219 570 c 0
 219 429.333333333 256.666666667 314.666666667 332 226 c 0
 415.333333333 128.666666667 524.333333333 80 659 80 c 1
 735.666666667 80 797.166666667 91.8333333333 843.5 115.5 c 128
 889.833333333 139.166666667 927 163.666666667 955 189 c 0
 1033.66666667 261 1074.66666667 372.333333333 1078 523 c 1
 661 523 l 1
EndSplineSet
Validated: 1
EndChar

StartChar: H
Encoding: 72 72 286
Width: 1157
VWidth: 1689
GlyphClass: 2
Flags: W
LayerCount: 2
Fore
SplineSet
90 0 m 1
 90 1217 l 1
 218 1217 l 1
 218 702 l 1
 939 702 l 1
 939 1217 l 1
 1067 1217 l 1
 1067 0 l 1
 939 0 l 1
 939 590 l 1
 218 590 l 1
 218 0 l 1
 90 0 l 1
EndSplineSet
Validated: 1
EndChar

StartChar: I
Encoding: 73 73 287
Width: 309
VWidth: 1689
GlyphClass: 2
Flags: W
LayerCount: 2
Fore
SplineSet
90 0 m 1
 90 1217 l 1
 219 1217 l 1
 219 0 l 1
 90 0 l 1
EndSplineSet
Validated: 1
EndChar

StartChar: J
Encoding: 74 74 288
Width: 873
VWidth: 1686
GlyphClass: 2
Flags: W
LayerCount: 2
Fore
SplineSet
219 396 m 1
 219 389 l 2
 219 290.333333333 227.166666667 223.5 243.5 188.5 c 128
 259.833333333 153.5 282.5 127.166666667 311.5 109.5 c 128
 340.5 91.8333333333 389.166666667 83 457.5 83 c 128
 525.833333333 83 575.666666667 104.666666667 607 148 c 128
 638.333333333 191.333333333 654 254.333333333 654 337 c 2
 654 1214 l 1
 783 1214 l 1
 783 332 l 2
 783 148.666666667 718.333333333 34 589 -12 c 0
 543.666666667 -28 486.333333333 -36 417 -36 c 0
 291.666666667 -36 202.666666667 7.66666666667 150 95 c 0
 110 161 90 259 90 389 c 2
 90 396 l 1
 219 396 l 1
EndSplineSet
Validated: 1
EndChar

StartChar: K
Encoding: 75 75 289
Width: 1168
VWidth: 1689
GlyphClass: 2
Flags: W
LayerCount: 2
Fore
SplineSet
90 0 m 1
 90 1217 l 1
 219 1217 l 1
 219 597 l 1
 846 1217 l 1
 997 1217 l 1
 500 730 l 1
 1078 0 l 1
 921 0 l 1
 404 657 l 1
 219 473 l 1
 219 0 l 1
 90 0 l 1
EndSplineSet
Validated: 1
EndChar

StartChar: L
Encoding: 76 76 290
Width: 976
VWidth: 1689
GlyphClass: 2
Flags: W
LayerCount: 2
Fore
SplineSet
90 0 m 1
 90 1217 l 1
 219 1217 l 1
 219 112 l 1
 886 112 l 1
 886 0 l 1
 90 0 l 1
EndSplineSet
Validated: 1
EndChar

StartChar: M
Encoding: 77 77 291
Width: 1352
VWidth: 1689
GlyphClass: 2
Flags: W
LayerCount: 2
Fore
SplineSet
90 0 m 1
 90 1217 l 1
 278 1217 l 1
 680 152 l 1
 1076 1217 l 1
 1262 1217 l 1
 1262 0 l 1
 1133 0 l 1
 1133 1061 l 1
 737 0 l 1
 616 0 l 1
 219 1061 l 1
 219 0 l 1
 90 0 l 1
EndSplineSet
Validated: 1
EndChar

StartChar: N
Encoding: 78 78 292
Width: 1159
VWidth: 1689
GlyphClass: 2
Flags: W
LayerCount: 2
Fore
SplineSet
924 0 m 1
 219 1049 l 1
 219 0 l 1
 90 0 l 1
 90 1217 l 1
 230 1217 l 1
 940 163 l 1
 940 1217 l 1
 1069 1217 l 1
 1069 0 l 1
 924 0 l 1
EndSplineSet
Validated: 1
EndChar

StartChar: O
Encoding: 79 79 293
Width: 1342
VWidth: 1689
GlyphClass: 2
Flags: W
LayerCount: 2
Fore
SplineSet
670 -32 m 129
 482.666666667 -32 339.166666667 28.5 239.5 149.5 c 128
 139.833333333 270.5 90 423.166666667 90 607.5 c 128
 90 791.833333333 140 944.666666667 240 1066 c 128
 340 1187.33333333 483.5 1248 670.5 1248 c 128
 857.5 1248 1001.16666667 1187.66666667 1101.5 1067 c 128
 1201.83333333 946.333333333 1252 793.833333333 1252 609.5 c 128
 1252 425.166666667 1201.83333333 272.166666667 1101.5 150.5 c 128
 1001.16666667 28.8333333333 857.333333333 -32 670 -32 c 129
1003 996 m 0
 922.333333333 1090 811 1137 669 1137 c 0
 521 1137 406.333333333 1083 325 975 c 0
 254.333333333 880.333333333 219 757.333333333 219 606 c 128
 219 454.666666667 256.333333333 329.166666667 331 229.5 c 128
 405.666666667 129.833333333 518.666666667 80 670 80 c 128
 821.333333333 80 934.5 130 1009.5 230 c 128
 1084.5 330 1122 459 1122 617 c 128
 1122 775 1082.33333333 901.333333333 1003 996 c 0
EndSplineSet
Validated: 1
Substitution2: "Helvetica-Light-'sups' Superscript in Latin lookup 5 subtable" ordmasculine
Substitution2: "Helvetica-Light-'aalt' Access All Alternates in Latin lookup 0 subtable" ordmasculine
EndChar

StartChar: P
Encoding: 80 80 294
Width: 1050
VWidth: 1689
GlyphClass: 2
Flags: W
LayerCount: 2
Fore
SplineSet
549 1217 m 2
 550 1217 550 1217 551 1217 c 0
 823.666666667 1217 960 1102.66666667 960 874 c 0
 960 750 909 658.333333333 807 599 c 0
 726.333333333 553 616.333333333 530 477 530 c 2
 219 530 l 1
 219 0 l 1
 90 0 l 1
 90 1217 l 1
 549 1217 l 2
219 642 m 1
 480 642 l 2
 600.666666667 642 687.333333333 657.666666667 740 689 c 0
 800 725 830 784.333333333 830 867 c 128
 830 949.666666667 805.5 1010 756.5 1048 c 128
 707.5 1086 627.333333333 1105 516 1105 c 2
 219 1105 l 1
 219 642 l 1
EndSplineSet
Validated: 1
EndChar

StartChar: Q
Encoding: 81 81 295
Width: 1343
VWidth: 1683
GlyphClass: 2
Flags: W
LayerCount: 2
Fore
SplineSet
1074 115 m 1
 1235 -8 l 1
 1162 -96 l 1
 981 43 l 1
 890.333333333 -11 791.666666667 -38 685 -38 c 128
 578.333333333 -38 488.333333333 -21 415 13 c 0
 271.666666667 79 175.333333333 192.333333333 126 353 c 0
 102 429.666666667 90 511.333333333 90 598 c 0
 90 778.666666667 136.666666667 928.333333333 230 1047 c 0
 332.666666667 1177 477.666666667 1242 665 1242 c 0
 846.333333333 1242 988.666666667 1187 1092 1077 c 0
 1199.33333333 962.333333333 1253 803.5 1253 600.5 c 128
 1253 397.5 1193.33333333 235.666666667 1074 115 c 1
977 190 m 1
 1074.33333333 283.333333333 1123 420 1123 600 c 0
 1123 770.666666667 1080.33333333 903.666666667 995 999 c 0
 914.333333333 1087 805.666666667 1131 669 1131 c 0
 520.333333333 1131 405.666666667 1077 325 969 c 0
 255 873 220 750 220 600 c 0
 220 448.666666667 255 326 325 232 c 0
 404.333333333 126.666666667 520 74 672 74 c 0
 746.666666667 74 815 89.6666666667 877 121 c 1
 739 224 l 1
 808 314 l 1
 977 190 l 1
EndSplineSet
Validated: 1
EndChar

StartChar: R
Encoding: 82 82 296
Width: 1107
VWidth: 1689
GlyphClass: 2
Flags: W
LayerCount: 2
Fore
SplineSet
880 888 m 0
 880 1032.66666667 781.666666667 1105 585 1105 c 2
 219 1105 l 1
 219 657 l 1
 578 657 l 2
 720 657 813 699.333333333 857 784 c 0
 872.333333333 812.666666667 880 847.333333333 880 888 c 0
1017 22 m 1
 1017 0 l 1
 880 0 l 1
 860 32 847.333333333 83.3333333333 842 154 c 128
 836.666666667 224.666666667 833.166666667 278.166666667 831.5 314.5 c 128
 829.833333333 350.833333333 826.333333333 382.666666667 821 410 c 0
 805.666666667 485.333333333 753.666666667 529 665 541 c 0
 638.333333333 544.333333333 610.333333333 546 581 546 c 2
 219 546 l 1
 219 0 l 1
 90 0 l 1
 90 1217 l 1
 581 1217 l 2
 720.333333333 1217 826.5 1191.5 899.5 1140.5 c 128
 972.5 1089.5 1009 1007.33333333 1009 894 c 0
 1009 816.666666667 993.5 756 962.5 712 c 128
 931.5 668 884.666666667 631 822 601 c 1
 905.333333333 566.333333333 951.666666667 490 961 372 c 0
 963.666666667 338.666666667 965.333333333 302.666666667 966 264 c 0
 970 124.666666667 987 44 1017 22 c 1
EndSplineSet
Validated: 1
EndChar

StartChar: S
Encoding: 83 83 297
Width: 1093
VWidth: 1689
GlyphClass: 2
Flags: W
LayerCount: 2
Fore
SplineSet
214 377 m 1
 231.333333333 179 348.666666667 80 566 80 c 1
 721.333333333 80 818.333333333 129.666666667 857 229 c 0
 868.333333333 258.333333333 874 292.333333333 874 331 c 0
 874 435 796.333333333 506 641 544 c 0
 595 555.333333333 548 566 500 576 c 0
 378.666666667 602.666666667 295.833333333 631.833333333 251.5 663.5 c 128
 207.166666667 695.166666667 174 730.666666667 152 770 c 128
 130 809.333333333 119 854.5 119 905.5 c 128
 119 956.5 128 1002 146 1042 c 0
 184 1127.33333333 254.333333333 1187 357 1221 c 0
 411.666666667 1239 474.666666667 1248 546 1248 c 128
 617.333333333 1248 679.666666667 1238.33333333 733 1219 c 128
 786.333333333 1199.66666667 830 1173 864 1139 c 0
 933.333333333 1070.33333333 968 983.333333333 968 878 c 2
 968 871 l 1
 844 871 l 1
 844 878 l 2
 844 1006 782 1087.33333333 658 1122 c 0
 621.333333333 1132 578.5 1137 529.5 1137 c 128
 480.5 1137 435.666666667 1129 395 1113 c 128
 354.333333333 1097 322.666666667 1076.66666667 300 1052 c 0
 262.666666667 1012 244 967 244 917 c 0
 244 905 245 892.333333333 247 879 c 0
 262.333333333 791 348.333333333 730.333333333 505 697 c 0
 633 669.666666667 721.166666667 647.833333333 769.5 631.5 c 128
 817.833333333 615.166666667 859 594.333333333 893 569 c 0
 966.333333333 515 1003 432.5 1003 321.5 c 128
 1003 210.5 963.333333333 123.833333333 884 61.5 c 128
 804.666666667 -0.833333333333 691.666666667 -32 545 -32 c 0
 331.666666667 -32 191.333333333 43.3333333333 124 194 c 0
 101.333333333 244 90 302.666666667 90 370 c 2
 90 377 l 1
 214 377 l 1
EndSplineSet
Validated: 1
EndChar

StartChar: T
Encoding: 84 84 298
Width: 1093
VWidth: 1689
GlyphClass: 2
Flags: W
LayerCount: 2
Fore
SplineSet
90 1217 m 1
 1003 1217 l 1
 1003 1105 l 1
 613 1105 l 1
 613 0 l 1
 480 0 l 1
 480 1105 l 1
 90 1105 l 1
 90 1217 l 1
EndSplineSet
Validated: 1
EndChar

StartChar: U
Encoding: 85 85 299
Width: 1151
VWidth: 1686
GlyphClass: 2
Flags: W
LayerCount: 2
Fore
SplineSet
90 1214 m 1
 219 1214 l 1
 219 490 l 2
 219 342.666666667 246.666666667 237 302 173 c 0
 358 109 449 77 575 77 c 0
 706.333333333 77 799.333333333 110.666666667 854 178 c 0
 906 243.333333333 932 347.333333333 932 490 c 2
 932 1214 l 1
 1061 1214 l 1
 1061 457 l 2
 1061 128.333333333 899 -36 575 -36 c 0
 409.666666667 -36 287.5 7 208.5 93 c 128
 129.5 179 90 300 90 456 c 2
 90 1214 l 1
EndSplineSet
Validated: 1
EndChar

StartChar: V
Encoding: 86 86 300
Width: 1185
VWidth: 1689
GlyphClass: 2
Flags: W
LayerCount: 2
Fore
SplineSet
90 1217 m 1
 225 1217 l 1
 594 150 l 1
 960 1217 l 1
 1095 1217 l 1
 663 0 l 1
 522 0 l 1
 90 1217 l 1
EndSplineSet
Validated: 1
EndChar

StartChar: W
Encoding: 87 87 301
Width: 1667
VWidth: 1689
GlyphClass: 2
Flags: W
LayerCount: 2
Fore
SplineSet
903 1217 m 1
 1180 178 l 1
 1445 1217 l 1
 1577 1217 l 1
 1253 0 l 1
 1113 0 l 1
 830 1060 l 1
 548 0 l 1
 410 0 l 1
 90 1217 l 1
 220 1217 l 1
 479 176 l 1
 762 1217 l 1
 903 1217 l 1
EndSplineSet
Validated: 1
EndChar

StartChar: X
Encoding: 88 88 302
Width: 1189
VWidth: 1689
GlyphClass: 2
Flags: W
LayerCount: 2
Fore
SplineSet
951 0 m 1
 593 531 l 1
 237 0 l 1
 90 0 l 1
 519 625 l 1
 106 1217 l 1
 257 1217 l 1
 593 711 l 1
 930 1217 l 1
 1081 1217 l 1
 674 625 l 1
 1099 0 l 1
 951 0 l 1
EndSplineSet
Validated: 1
EndChar

StartChar: Y
Encoding: 89 89 303
Width: 1209
VWidth: 1689
GlyphClass: 2
Flags: W
LayerCount: 2
Fore
SplineSet
238 1217 m 1
 599 636 l 1
 969 1217 l 1
 1119 1217 l 1
 667 530 l 1
 667 0 l 1
 535 0 l 1
 535 521 l 1
 90 1217 l 1
 238 1217 l 1
EndSplineSet
Validated: 1
EndChar

StartChar: Z
Encoding: 90 90 304
Width: 1135
VWidth: 1689
GlyphClass: 2
Flags: W
LayerCount: 2
Fore
SplineSet
90 0 m 1
 90 105 l 1
 877 1105 l 1
 156 1105 l 1
 156 1217 l 1
 1040 1217 l 1
 1040 1112 l 1
 254 112 l 1
 1045 112 l 1
 1045 0 l 1
 90 0 l 1
EndSplineSet
Validated: 1
EndChar

StartChar: bracketleft
Encoding: 91 91 305
Width: 518
VWidth: 1658
GlyphClass: 2
Flags: W
LayerCount: 2
Fore
SplineSet
90 -353 m 1
 90 1217 l 1
 428 1217 l 1
 428 1119 l 1
 212 1119 l 1
 212 -255 l 1
 424 -255 l 1
 424 -353 l 1
 90 -353 l 1
EndSplineSet
Validated: 1
EndChar

StartChar: backslash
Encoding: 92 92 306
Width: 690
VWidth: 1676
GlyphClass: 2
Flags: W
LayerCount: 2
Fore
SplineSet
90 1236 m 1
 199 1236 l 1
 600 -165 l 1
 491 -165 l 1
 90 1236 l 1
EndSplineSet
Validated: 1
EndChar

StartChar: bracketright
Encoding: 93 93 307
Width: 518
VWidth: 1658
GlyphClass: 2
Flags: W
LayerCount: 2
Fore
SplineSet
428 -353 m 1
 90 -353 l 1
 90 -255 l 1
 306 -255 l 1
 306 1119 l 1
 94 1119 l 1
 94 1217 l 1
 428 1217 l 1
 428 -353 l 1
EndSplineSet
Validated: 1
EndChar

StartChar: asciicircum
Encoding: 94 94 308
Width: 1083
VWidth: 1729
GlyphClass: 2
Flags: W
LayerCount: 2
Fore
SplineSet
90 454 m 1
 490 1220 l 1
 590 1220 l 1
 993 454 l 1
 881 454 l 1
 539 1109 l 1
 203 454 l 1
 90 454 l 1
EndSplineSet
Validated: 1
EndChar

StartChar: underscore
Encoding: 95 95 309
Width: 1052
VWidth: 1524
GlyphClass: 2
Flags: W
LayerCount: 2
Fore
SplineSet
962 -292 m 1
 962 -390 l 1
 90 -390 l 1
 90 -292 l 1
 962 -292 l 1
EndSplineSet
Validated: 1
EndChar

StartChar: grave
Encoding: 96 96 310
Width: 530
VWidth: 1791
GlyphClass: 2
Flags: W
LayerCount: 2
Fore
SplineSet
90 1306 m 1
 242 1306 l 1
 440 1058 l 1
 337 1058 l 1
 335 1074 l 1
 90 1306 l 1
EndSplineSet
Validated: 1
EndChar

StartChar: a
Encoding: 97 97 311
Width: 1034
VWidth: 1653
GlyphClass: 2
Flags: W
LayerCount: 2
Fore
SplineSet
722 293 m 2
 722 420 l 1
 668.666666667 399.333333333 591.333333333 385.333333333 490 378 c 128
 388.666666667 370.666666667 317.166666667 352.666666667 275.5 324 c 128
 233.833333333 295.333333333 213 252.333333333 213 195 c 0
 213 147 231.666666667 109.333333333 269 82 c 0
 304.333333333 56 348.333333333 43 401 43 c 0
 436.333333333 43 475.666666667 48.6666666667 519 60 c 0
 600.333333333 81.3333333333 659 122.333333333 695 183 c 0
 713 213.666666667 722 250.333333333 722 293 c 2
723 75 m 1
 634.333333333 -15 524 -60 392 -60 c 1
 257.333333333 -60 165 -12 115 84 c 0
 98.3333333333 115.333333333 90 152.333333333 90 195 c 0
 90 345 195.333333333 433.666666667 406 461 c 1
 552 479 l 1
 615.333333333 485 657.666666667 492.833333333 679 502.5 c 128
 700.333333333 512.166666667 712.833333333 525.333333333 716.5 542 c 128
 720.166666667 558.666666667 722 574.666666667 722 590 c 0
 722 639.333333333 705.666666667 679.666666667 673 711 c 0
 639.666666667 742.333333333 583 758 503 758 c 0
 388.333333333 758 312.666666667 725 276 659 c 0
 262 634.333333333 252.333333333 601.333333333 247 560 c 1
 131 560 l 1
 143.666666667 762 268.333333333 863 505 863 c 0
 726.333333333 863 837 771.333333333 837 588 c 2
 837 119 l 2
 837 82.3333333333 843 59.3333333333 855 50 c 0
 859 46.6666666667 865.666666667 45.3333333333 875 46 c 0
 891 46 914 51 944 61 c 1
 944 -31 l 1
 897.333333333 -43 867.166666667 -49 853.5 -49 c 128
 839.833333333 -49 824.333333333 -47.6666666667 807 -45 c 0
 755 -35.6666666667 727 4.33333333333 723 75 c 1
EndSplineSet
Validated: 1
Substitution2: "Helvetica-Light-Single Substitution lookup 8 subtable" ordfeminine
Substitution2: "Helvetica-Light-'sups' Superscript in Latin lookup 5 subtable" ordfeminine
Substitution2: "Helvetica-Light-'aalt' Access All Alternates in Latin lookup 0 subtable" ordfeminine
EndChar

StartChar: b
Encoding: 98 98 312
Width: 1013
VWidth: 1687
GlyphClass: 2
Flags: W
LayerCount: 2
Fore
SplineSet
501 79 m 0
 637.666666667 79 730 142 778 268 c 0
 793.333333333 308.666666667 801.333333333 355.666666667 802 409 c 0
 802 413.666666667 802.333333333 418.333333333 803 423 c 0
 803 528.333333333 780 614 734 680 c 0
 682.666666667 754 605 791 501 791 c 0
 409.666666667 791 337.666666667 757.166666667 285 689.5 c 128
 232.333333333 621.833333333 206 536.666666667 206 434 c 128
 206 331.333333333 231.5 246.5 282.5 179.5 c 128
 333.5 112.5 406.333333333 79 501 79 c 0
206 -3 m 1
 90 -3 l 1
 90 1214 l 1
 206 1214 l 1
 206 750 l 1
 238 795.333333333 281.666666667 831.166666667 337 857.5 c 128
 392.333333333 883.833333333 454.166666667 897 522.5 897 c 128
 590.833333333 897 650.333333333 884 701 858 c 0
 799.666666667 807.333333333 865.666666667 724 899 608 c 0
 915 552 923 492.666666667 923 430 c 0
 923 216.666666667 849.666666667 76.3333333333 703 9 c 0
 651 -14.3333333333 599 -26 547 -26 c 0
 422.333333333 -26 324.666666667 8 254 76 c 0
 235.333333333 93.3333333333 219.333333333 113.333333333 206 136 c 1
 206 -3 l 1
EndSplineSet
Validated: 1
EndChar

StartChar: c
Encoding: 99 99 313
Width: 987
VWidth: 1653
GlyphClass: 2
Flags: W
LayerCount: 2
Fore
SplineSet
507 45 m 0
 660.333333333 45 749.666666667 123.666666667 775 281 c 1
 897 281 l 1
 867.666666667 117.666666667 789.333333333 12 662 -36 c 0
 616.666666667 -52 560.833333333 -60 494.5 -60 c 128
 428.166666667 -60 368.666666667 -48 316 -24 c 0
 165.333333333 44.6666666667 90 185.666666667 90 399 c 0
 90 529 125 636.666666667 195 722 c 0
 271.666666667 816 375.666666667 863 507 863 c 0
 726.333333333 863 851.666666667 761.333333333 883 558 c 2
 884 550 l 1
 768 550 l 1
 730 688.666666667 643 758 507 758 c 0
 407 758 331 720.333333333 279 645 c 0
 234.333333333 579 212 496.833333333 212 398.5 c 128
 212 300.166666667 234 219 278 155 c 0
 329.333333333 81.6666666667 405.666666667 45 507 45 c 0
EndSplineSet
Validated: 1
EndChar

StartChar: d
Encoding: 100 100 314
Width: 1013
VWidth: 1687
GlyphClass: 2
Flags: W
LayerCount: 2
Fore
SplineSet
640 107 m 0
 751.333333333 162.333333333 807 273 807 439 c 0
 807 539 781.333333333 621.666666667 730 687 c 0
 675.333333333 756.333333333 602.333333333 791 511 791 c 0
 407.666666667 791 330.333333333 754 279 680 c 0
 234.333333333 615.333333333 212 533.333333333 212 434 c 0
 212 422 212 422 212 409 c 1
 212 307 240.333333333 225.666666667 297 165 c 0
 350.333333333 107.666666667 421.666666667 79 511 79 c 1
 559.666666667 79 602.666666667 88.3333333333 640 107 c 0
807 1214 m 1
 923 1214 l 1
 923 -3 l 1
 807 -3 l 1
 807 136 l 1
 762.333333333 60.6666666667 690.333333333 10.6666666667 591 -14 c 0
 559.666666667 -22 517.833333333 -26 465.5 -26 c 128
 413.166666667 -26 361.333333333 -14.3333333333 310 9 c 0
 163.333333333 76.3333333333 90 217.666666667 90 433 c 0
 90 640.333333333 163.666666667 782 311 858 c 0
 362.333333333 884 422.166666667 897 490.5 897 c 128
 558.833333333 897 620.666666667 883.666666667 676 857 c 128
 731.333333333 830.333333333 775 794.333333333 807 749 c 1
 807 1214 l 1
EndSplineSet
Validated: 1
EndChar

StartChar: e
Encoding: 101 101 315
Width: 995
VWidth: 1653
GlyphClass: 2
Flags: W
LayerCount: 2
Fore
SplineSet
213 462 m 1
 783 462 l 1
 781 597.333333333 729.666666667 688 629 734 c 0
 593.666666667 750 552.666666667 758 506 758 c 0
 378.666666667 758 290 695.666666667 240 571 c 0
 226.666666667 537 217.666666667 500.666666667 213 462 c 1
506 45 m 0
 650 45 739 112.333333333 773 247 c 1
 900 247 l 1
 855.333333333 98.3333333333 775.333333333 3.33333333333 660 -38 c 0
 616 -52.6666666667 561 -60 495 -60 c 0
 361.666666667 -60 259.333333333 -15.3333333333 188 74 c 0
 122.666666667 154.666666667 90 262.666666667 90 398 c 0
 90 528 126.333333333 637.333333333 199 726 c 0
 274.333333333 817.333333333 376.166666667 863 504.5 863 c 128
 632.833333333 863 732 821.333333333 802 738 c 0
 870.666666667 656 905 536.666666667 905 380 c 0
 905 375 905 375 905 371 c 1
 212 371 l 1
 214 223 268.333333333 123.333333333 375 72 c 0
 413 54 456.666666667 45 506 45 c 0
EndSplineSet
Validated: 1
EndChar

StartChar: f
Encoding: 102 102 316
Width: 595
VWidth: 1692
GlyphClass: 2
Flags: W
LayerCount: 2
Fore
SplineSet
505 1127 m 1
 473 1134.33333333 447 1138 427 1138 c 0
 409.666666667 1138 396.666666667 1135.33333333 388 1130 c 0
 358.666666667 1110.66666667 342 1080 338 1038 c 0
 336.666666667 1018.66666667 336 999 336 979 c 2
 336 878 l 1
 505 878 l 1
 505 779 l 1
 336 779 l 1
 336 2 l 1
 221 2 l 1
 221 779 l 1
 90 779 l 1
 90 878 l 1
 221 878 l 1
 221 1009 l 2
 221 1080.33333333 235.5 1137.16666667 264.5 1179.5 c 128
 293.5 1221.83333333 343 1243 413 1243 c 0
 439 1243 469.666666667 1240.33333333 505 1235 c 1
 505 1127 l 1
EndSplineSet
Validated: 1
EndChar

StartChar: g
Encoding: 103 103 317
Width: 1013
VWidth: 1618
GlyphClass: 2
Flags: W
LayerCount: 2
Fore
SplineSet
807 362 m 0
 807 528 751.333333333 638.666666667 640 694 c 0
 602.666666667 712.666666667 561 722 515 722 c 128
 469 722 427.666666667 714.833333333 391 700.5 c 128
 354.333333333 686.166666667 323 664.666666667 297 636 c 0
 240.333333333 575.333333333 212 494 212 392 c 1
 212 379 212 379 212 367 c 0
 212 267.666666667 234.333333333 186 279 122 c 0
 331 47.3333333333 408.333333333 10 511 10 c 0
 601.666666667 10 673.666666667 43.5 727 110.5 c 128
 780.333333333 177.5 807 261.333333333 807 362 c 0
807 804 m 1
 923 804 l 1
 923 18 l 2
 923 -116 895.333333333 -220 840 -294 c 0
 771.333333333 -384.666666667 657.333333333 -430 498 -430 c 0
 374 -430 277 -400.666666667 207 -342 c 0
 147 -292 115.666666667 -232.666666667 113 -164 c 1
 233 -164 l 1
 254.333333333 -252 312.333333333 -303.333333333 407 -318 c 0
 436.333333333 -322.666666667 476.333333333 -325 527 -325 c 128
 577.666666667 -325 623.666666667 -313.333333333 665 -290 c 0
 741 -248 786 -175.333333333 800 -72 c 0
 804.666666667 -36 807 1 807 39 c 0
 807 46 807 46 807 53 c 1
 775 7 731.166666667 -29.3333333333 675.5 -56 c 128
 619.833333333 -82.6666666667 558 -96 490 -96 c 128
 422 -96 362.666666667 -83.3333333333 312 -58 c 0
 212.666666667 -7.33333333333 146.666666667 76.3333333333 114 193 c 0
 98 249.666666667 90 309 90 371 c 128
 90 433 97.3333333333 492 112 548 c 0
 142.666666667 663.333333333 208.333333333 744.666666667 309 792 c 0
 361 816 413 828 465 828 c 0
 626.333333333 828 740.333333333 773.333333333 807 664 c 1
 807 804 l 1
EndSplineSet
Validated: 1
EndChar

StartChar: h
Encoding: 104 104 318
Width: 902
VWidth: 1689
GlyphClass: 2
Flags: W
LayerCount: 2
Fore
SplineSet
90 0 m 1
 90 1217 l 1
 205 1217 l 1
 205 763 l 1
 242.333333333 801 282.666666667 833.166666667 326 859.5 c 128
 369.333333333 885.833333333 422 899 484 899 c 0
 614.666666667 899 709.333333333 857 768 773 c 0
 790 741 802.833333333 708.166666667 806.5 674.5 c 128
 810.166666667 640.833333333 812 606.333333333 812 571 c 2
 812 0 l 1
 697 0 l 1
 697 568 l 2
 697 643.333333333 680.166666667 699.833333333 646.5 737.5 c 128
 612.833333333 775.166666667 554.666666667 794 472 794 c 0
 381.333333333 794 310.666666667 760 260 692 c 0
 230.666666667 652.666666667 214.166666667 613.333333333 210.5 574 c 128
 206.833333333 534.666666667 205 500 205 470 c 2
 205 0 l 1
 90 0 l 1
EndSplineSet
Validated: 1
EndChar

StartChar: i
Encoding: 105 105 319
Width: 305
VWidth: 1689
GlyphClass: 2
Flags: W
LayerCount: 2
Fore
SplineSet
95 0 m 1
 95 875 l 1
 210 875 l 1
 210 0 l 1
 95 0 l 1
90 1052 m 1
 90 1217 l 1
 215 1217 l 1
 215 1052 l 1
 90 1052 l 1
EndSplineSet
Validated: 1
EndChar

StartChar: j
Encoding: 106 106 320
Width: 441
VWidth: 1653
GlyphClass: 2
Flags: W
LayerCount: 2
Fore
SplineSet
175 -381 m 0
 141.666666667 -381 113.333333333 -378.666666667 90 -374 c 1
 90 -270 l 1
 106.666666667 -272 122 -273 136 -273 c 0
 170 -273 193.333333333 -267 206 -255 c 0
 222 -239 230 -207.333333333 230 -160 c 2
 230 839 l 1
 346 839 l 1
 346 -146 l 2
 346 -229.333333333 335.166666667 -289.333333333 313.5 -326 c 128
 291.833333333 -362.666666667 245.666666667 -381 175 -381 c 0
351 1015 m 1
 225 1015 l 1
 225 1180 l 1
 351 1180 l 1
 351 1015 l 1
EndSplineSet
Validated: 1
EndChar

StartChar: k
Encoding: 107 107 321
Width: 922
VWidth: 1689
GlyphClass: 2
Flags: W
LayerCount: 2
Fore
SplineSet
90 0 m 1
 90 1217 l 1
 206 1217 l 1
 206 470 l 1
 639 875 l 1
 797 875 l 1
 455 556 l 1
 832 0 l 1
 702 0 l 1
 364 484 l 1
 206 335 l 1
 206 0 l 1
 90 0 l 1
EndSplineSet
Validated: 1
EndChar

StartChar: l
Encoding: 108 108 322
Width: 295
VWidth: 1689
GlyphClass: 2
Flags: W
LayerCount: 2
Fore
SplineSet
90 0 m 1
 90 1217 l 1
 205 1217 l 1
 205 0 l 1
 90 0 l 1
EndSplineSet
Validated: 1
EndChar

StartChar: m
Encoding: 109 109 323
Width: 1398
VWidth: 1656
GlyphClass: 2
Flags: W
LayerCount: 2
Fore
SplineSet
738 707 m 1
 798.666666667 813 895.333333333 866 1028 866 c 0
 1138 866 1215.33333333 829.333333333 1260 756 c 0
 1292 702.666666667 1308 623 1308 517 c 2
 1308 -34 l 1
 1192 -34 l 1
 1192 567 l 2
 1192 627.666666667 1179.33333333 675 1154 709 c 128
 1128.66666667 743 1081 760 1011 760 c 0
 931 760 865.666666667 728 815 664 c 0
 776.333333333 616 757 540 757 436 c 2
 757 -34 l 1
 641 -34 l 1
 641 567 l 2
 641 627.666666667 628 675 602 709 c 128
 576 743 527.333333333 760 456 760 c 0
 376 760 311.333333333 728 262 664 c 0
 224.666666667 616.666666667 206 540.666666667 206 436 c 2
 206 -34 l 1
 90 -34 l 1
 90 842 l 1
 206 842 l 1
 206 725 l 1
 232 768.333333333 268.333333333 802.666666667 315 828 c 128
 361.666666667 853.333333333 415.333333333 866 476 866 c 0
 604.666666667 866 692 813 738 707 c 1
EndSplineSet
Validated: 1
EndChar

StartChar: n
Encoding: 110 110 324
Width: 902
VWidth: 1656
GlyphClass: 2
Flags: W
LayerCount: 2
Fore
SplineSet
205 -34 m 1
 90 -34 l 1
 90 842 l 1
 205 842 l 1
 205 730 l 1
 242.333333333 768 282.666666667 800.166666667 326 826.5 c 128
 369.333333333 852.833333333 422 866 484 866 c 0
 615.333333333 866 710 823.666666667 768 739 c 0
 790 707 802.833333333 674.166666667 806.5 640.5 c 128
 810.166666667 606.833333333 812 572.333333333 812 537 c 2
 812 -34 l 1
 697 -34 l 1
 697 534 l 2
 697 609.333333333 680.166666667 665.833333333 646.5 703.5 c 128
 612.833333333 741.166666667 554.666666667 760 472 760 c 0
 381.333333333 760 310.666666667 726 260 658 c 0
 230.666666667 618.666666667 214.166666667 579.5 210.5 540.5 c 128
 206.833333333 501.5 205 466.666666667 205 436 c 2
 205 -34 l 1
EndSplineSet
Validated: 1
EndChar

StartChar: o
Encoding: 111 111 325
Width: 1019
VWidth: 1653
GlyphClass: 2
Flags: W
LayerCount: 2
Fore
SplineSet
509 -60 m 1
 315.666666667 -55.3333333333 186.666666667 31.6666666667 122 201 c 0
 100.666666667 258.333333333 90 322 90 392 c 128
 90 462 98.3333333333 525 115 581 c 0
 149.666666667 695.666666667 218.666666667 777.333333333 322 826 c 0
 375.333333333 850.666666667 438 863 510 863 c 128
 582 863 644.333333333 850.666666667 697 826 c 0
 851.666666667 754 929 612.333333333 929 401 c 0
 929 264.333333333 891.333333333 153.333333333 816 68 c 128
 740.666666667 -17.3333333333 638.333333333 -60 509 -60 c 1
807 401 m 0
 807 567.666666667 754.333333333 677.333333333 649 730 c 0
 611.666666667 748.666666667 565.666666667 758 511 758 c 0
 409 758 332 721.666666667 280 649 c 0
 234.666666667 584.333333333 212 501.666666667 212 401 c 0
 212 293.666666667 237 207.666666667 287 143 c 0
 337 77.6666666667 411 45 509 45 c 1
 611.666666667 45 687 79.8333333333 735 149.5 c 128
 783 219.166666667 807 303 807 401 c 0
EndSplineSet
Validated: 1
Substitution2: "Helvetica-Light-Single Substitution lookup 8 subtable" ordmasculine
Substitution2: "Helvetica-Light-'sups' Superscript in Latin lookup 5 subtable" ordmasculine
Substitution2: "Helvetica-Light-'aalt' Access All Alternates in Latin lookup 0 subtable" ordmasculine
EndChar

StartChar: p
Encoding: 112 112 326
Width: 1013
VWidth: 1619
GlyphClass: 2
Flags: W
LayerCount: 2
Fore
SplineSet
801 393 m 2
 801 495 772.666666667 576.666666667 716 638 c 0
 662.666666667 695.333333333 591 724 501 724 c 0
 406.333333333 724 333.5 690.333333333 282.5 623 c 128
 231.5 555.666666667 206 470.666666667 206 368 c 128
 206 265.333333333 232.333333333 180 285 112 c 0
 338.333333333 44.6666666667 413.333333333 11 510 11 c 1
 607.333333333 11 681.333333333 47 732 119 c 0
 778 185 801 266.666666667 801 364 c 2
 801 393 l 2
206 -415 m 1
 90 -415 l 1
 90 805 l 1
 206 805 l 1
 206 665 l 1
 252.666666667 740.333333333 324.666666667 791 422 817 c 0
 453.333333333 825 495 829 547 829 c 128
 599 829 650.666666667 817 702 793 c 0
 849.333333333 725 923 583.666666667 923 369 c 0
 923 238.333333333 890.666666667 131 826 47 c 0
 754 -47 651.333333333 -94 518 -94 c 0
 452 -94 391.333333333 -80.8333333333 336 -54.5 c 128
 280.666666667 -28.1666666667 237.333333333 7.66666666667 206 53 c 1
 206 -415 l 1
EndSplineSet
Validated: 1
EndChar

StartChar: q
Encoding: 113 113 327
Width: 1013
VWidth: 1619
GlyphClass: 2
Flags: W
LayerCount: 2
Fore
SplineSet
640 39 m 0
 751.333333333 94.3333333333 807 205 807 371 c 0
 807 471 781.333333333 553.666666667 730 619 c 0
 674.666666667 689 601.666666667 724 511 724 c 0
 408.333333333 724 331 686.666666667 279 612 c 0
 234.333333333 548 212 466.333333333 212 367 c 0
 212 354 212 354 212 342 c 1
 212 239.333333333 240.333333333 157.666666667 297 97 c 0
 350.333333333 39.6666666667 421.666666667 11 511 11 c 1
 559.666666667 11 602.666666667 20.3333333333 640 39 c 0
807 805 m 1
 923 805 l 1
 923 -415 l 1
 807 -415 l 1
 807 53 l 1
 775 7.66666666667 731.166666667 -28.1666666667 675.5 -54.5 c 128
 619.833333333 -80.8333333333 558 -94 490 -94 c 128
 422 -94 362.666666667 -81.3333333333 312 -56 c 0
 212.666666667 -5.33333333333 146.666666667 78.3333333333 114 195 c 0
 98 251 90 310.166666667 90 372.5 c 128
 90 434.833333333 97.3333333333 493.666666667 112 549 c 0
 142.666666667 664.333333333 208.333333333 745.666666667 309 793 c 0
 361 817 413 829 465 829 c 0
 589 829 687 794.666666667 759 726 c 0
 777.666666667 708 793.666666667 688 807 666 c 1
 807 805 l 1
EndSplineSet
Validated: 1
EndChar

StartChar: r
Encoding: 114 114 328
Width: 585
VWidth: 1656
GlyphClass: 2
Flags: W
LayerCount: 2
Fore
SplineSet
205 -34 m 1
 90 -34 l 1
 90 842 l 1
 205 842 l 1
 205 696 l 1
 232.333333333 756 267.666666667 799.333333333 311 826 c 128
 354.333333333 852.666666667 413.333333333 866 488 866 c 2
 495 866 l 1
 495 743 l 1
 489 743 489 743 484 743 c 0
 334.666666667 743 246 672.666666667 218 532 c 0
 209.333333333 488.666666667 205 443 205 395 c 2
 205 -34 l 1
EndSplineSet
Validated: 1
EndChar

StartChar: s
Encoding: 115 115 329
Width: 898
VWidth: 1653
GlyphClass: 2
Flags: W
LayerCount: 2
Fore
SplineSet
206 252 m 1
 222.666666667 174.666666667 251 120.833333333 291 90.5 c 128
 331 60.1666666667 391.333333333 45 472 45 c 0
 576 45 643 77 673 141 c 0
 681.666666667 159 686 183 686 213 c 0
 686 266.333333333 638.666666667 306.333333333 544 333 c 0
 500 345 452.333333333 355 401 363 c 0
 285 381.666666667 202.666666667 419 154 475 c 0
 125.333333333 507.666666667 111 556.833333333 111 622.5 c 128
 111 688.166666667 138.5 744.666666667 193.5 792 c 128
 248.5 839.333333333 327.333333333 863 430 863 c 128
 532.666666667 863 614.333333333 841.333333333 675 798 c 128
 735.666666667 754.666666667 772.333333333 680 785 574 c 1
 668 574 l 1
 659.333333333 643.333333333 634.166666667 691.333333333 592.5 718 c 128
 550.833333333 744.666666667 496.5 758 429.5 758 c 128
 362.5 758 313 745 281 719 c 128
 249 693 233 660.333333333 233 621 c 128
 233 581.666666667 246 552.333333333 272 533 c 0
 313.333333333 501.666666667 396 474.333333333 520 451 c 0
 634 429 715.666666667 389.666666667 765 333 c 0
 793.666666667 300.333333333 808 259.333333333 808 210 c 0
 808 120 773 51.6666666667 703 5 c 0
 639 -38.3333333333 550.333333333 -60 437 -60 c 0
 279.666666667 -60 173.333333333 1.66666666667 118 125 c 0
 101.333333333 161.666666667 92 204 90 252 c 1
 206 252 l 1
EndSplineSet
Validated: 1
EndChar

StartChar: t
Encoding: 116 116 330
Width: 589
VWidth: 1676
GlyphClass: 2
Flags: W
LayerCount: 2
Fore
SplineSet
328 183 m 2
 328 136.333333333 332.333333333 105.666666667 341 91 c 0
 350.333333333 75 370.666666667 67 402 67 c 0
 427.333333333 67 459.666666667 72 499 82 c 1
 499 -15 l 1
 483 -17.6666666667 464.833333333 -22 444.5 -28 c 128
 424.166666667 -34 394.5 -37 355.5 -37 c 128
 316.5 -37 283 -23.8333333333 255 2.5 c 128
 227 28.8333333333 213 75 213 141 c 2
 213 763 l 1
 90 763 l 1
 90 862 l 1
 213 862 l 1
 213 1106 l 1
 328 1106 l 1
 328 862 l 1
 493 862 l 1
 493 763 l 1
 328 763 l 1
 328 183 l 2
EndSplineSet
Validated: 1
EndChar

StartChar: u
Encoding: 117 117 331
Width: 902
VWidth: 1651
GlyphClass: 2
Flags: W
LayerCount: 2
Fore
SplineSet
413 -63 m 0
 197.666666667 -63 90 45.3333333333 90 262 c 2
 90 837 l 1
 205 837 l 1
 205 265 l 2
 205 193 221.833333333 138 255.5 100 c 128
 289.166666667 62 347 43 429 43 c 0
 556.333333333 43 639.666666667 106 679 232 c 0
 691 270.666666667 697 313.666666667 697 361 c 2
 697 837 l 1
 812 837 l 1
 812 -39 l 1
 697 -39 l 1
 697 72 l 1
 662.333333333 34 632.666666667 7 608 -9 c 0
 552 -45 487 -63 413 -63 c 0
EndSplineSet
Validated: 1
EndChar

StartChar: v
Encoding: 118 118 332
Width: 1002
VWidth: 1653
GlyphClass: 2
Flags: W
LayerCount: 2
Fore
SplineSet
90 839 m 1
 215 839 l 1
 501 102 l 1
 787 839 l 1
 912 839 l 1
 563 -36 l 1
 435 -36 l 1
 90 839 l 1
EndSplineSet
Validated: 1
EndChar

StartChar: w
Encoding: 119 119 333
Width: 1382
VWidth: 1653
GlyphClass: 2
Flags: W
LayerCount: 2
Fore
SplineSet
756 839 m 1
 948 117 l 1
 1174 839 l 1
 1292 839 l 1
 1003 -36 l 1
 882 -36 l 1
 690 686 l 1
 497 -36 l 1
 361 -36 l 1
 90 839 l 1
 206 839 l 1
 428 111 l 1
 630 839 l 1
 756 839 l 1
EndSplineSet
Validated: 1
EndChar

StartChar: x
Encoding: 120 120 334
Width: 1004
VWidth: 1653
GlyphClass: 2
Flags: W
LayerCount: 2
Fore
SplineSet
775 -36 m 1
 506 338 l 1
 230 -36 l 1
 90 -36 l 1
 435 417 l 1
 117 839 l 1
 260 839 l 1
 504 496 l 1
 756 839 l 1
 903 839 l 1
 578 417 l 1
 914 -36 l 1
 775 -36 l 1
EndSplineSet
Validated: 1
EndChar

StartChar: y
Encoding: 121 121 335
Width: 998
VWidth: 1617
GlyphClass: 2
Flags: W
LayerCount: 2
Fore
SplineSet
451 -319 m 0
 404.333333333 -385 348 -418 282 -418 c 0
 246.666666667 -418 211.666666667 -413 177 -403 c 1
 177 -296 l 1
 228.333333333 -303.333333333 263 -307 281 -307 c 128
 299 -307 316.666666667 -298.333333333 334 -281 c 0
 364 -251.666666667 386 -214.333333333 400 -169 c 128
 414 -123.666666667 426.333333333 -91.3333333333 437 -72 c 1
 90 803 l 1
 218 803 l 1
 501 64 l 1
 783 803 l 1
 908 803 l 1
 575 -56 l 2
 525 -185.333333333 483.666666667 -273 451 -319 c 0
EndSplineSet
Validated: 1
EndChar

StartChar: z
Encoding: 122 122 336
Width: 940
VWidth: 1653
GlyphClass: 2
Flags: W
LayerCount: 2
Fore
SplineSet
90 -36 m 1
 90 62 l 1
 677 740 l 1
 128 740 l 1
 128 839 l 1
 829 839 l 1
 829 741 l 1
 241 62 l 1
 850 62 l 1
 850 -36 l 1
 90 -36 l 1
EndSplineSet
Validated: 1
EndChar

StartChar: bar
Encoding: 124 124 337
Width: 295
VWidth: 1650
GlyphClass: 2
Flags: W
LayerCount: 2
Fore
SplineSet
205 1228 m 1
 205 -462 l 1
 90 -462 l 1
 90 1228 l 1
 205 1228 l 1
EndSplineSet
Validated: 1
EndChar

StartChar: asciitilde
Encoding: 126 126 338
Width: 1055
VWidth: 1652
GlyphClass: 2
Flags: W
LayerCount: 2
Fore
SplineSet
722 396 m 0
 782.666666667 396 837.666666667 443.666666667 887 539 c 1
 965 475 l 1
 931 415.666666667 901.333333333 375 876 353 c 0
 826 309 774.333333333 287 721 287 c 0
 679.666666667 287 633 297.5 581 318.5 c 128
 529 339.5 493.5 353.666666667 474.5 361 c 128
 455.5 368.333333333 433.833333333 378.166666667 409.5 390.5 c 128
 385.166666667 402.833333333 361.666666667 409 339 409 c 0
 284.333333333 409 235.666666667 376.333333333 193 311 c 2
 154 251 l 1
 90 342 l 1
 129.333333333 396.666666667 160 434 182 454 c 0
 229.333333333 496.666666667 281 518 337 518 c 0
 386.333333333 518 455.333333333 497.333333333 544 456 c 0
 631.333333333 416 690.666666667 396 722 396 c 0
EndSplineSet
Validated: 1
EndChar

StartChar: exclamdown
Encoding: 161 161 339
Width: 318
VWidth: 1622
GlyphClass: 2
Flags: W
LayerCount: 2
Fore
SplineSet
204 542 m 1
 228 3 l 1
 228 -383 l 1
 90 -383 l 1
 90 3 l 1
 114 542 l 1
 204 542 l 1
90 670 m 1
 90 832 l 1
 228 832 l 1
 228 670 l 1
 90 670 l 1
EndSplineSet
Validated: 1
EndChar

StartChar: cent
Encoding: 162 162 340
Width: 987
VWidth: 1651
GlyphClass: 2
Flags: W
LayerCount: 2
Fore
SplineSet
570 756 m 1
 553.333333333 760 525.333333333 762 486 762 c 128
 446.666666667 762 408 751.666666667 370 731 c 0
 298.666666667 691.666666667 251.333333333 624.666666667 228 530 c 0
 217.333333333 486 212 436.833333333 212 382.5 c 128
 212 328.166666667 222.5 273 243.5 217 c 128
 264.5 161 296.333333333 117.666666667 339 87 c 1
 570 756 l 1
207 741.5 m 128
 243.666666667 781.166666667 287.5 811.333333333 338.5 832 c 128
 389.5 852.666666667 435.5 863 476.5 863 c 128
 517.5 863 560.333333333 860.333333333 605 855 c 1
 675 1055 l 1
 772 1055 l 1
 696 828 l 1
 800.666666667 781.333333333 863.333333333 689.333333333 884 552 c 1
 768 552 l 1
 748 626.666666667 711.666666667 682 659 718 c 1
 426 50 l 1
 467.333333333 43.3333333333 494.333333333 40 507 40 c 1
 660.333333333 40 749.666666667 117.333333333 775 272 c 1
 897 272 l 1
 873 116 795.666666667 12.6666666667 665 -38 c 0
 618.333333333 -55.3333333333 570.166666667 -64 520.5 -64 c 128
 470.833333333 -64 427.666666667 -60 391 -52 c 1
 313 -277 l 1
 219 -277 l 1
 302 -23 l 1
 229.333333333 13.6666666667 175.833333333 69 141.5 143 c 128
 107.166666667 217 90 296.333333333 90 381 c 128
 90 465.666666667 100.333333333 537 121 595 c 128
 141.666666667 653 170.333333333 701.833333333 207 741.5 c 128
EndSplineSet
Validated: 1
EndChar

StartChar: sterling
Encoding: 163 163 341
Width: 1064
VWidth: 1684
GlyphClass: 2
Flags: W
LayerCount: 2
Fore
SplineSet
112 95 m 1
 232.666666667 182.333333333 293 282 293 394 c 0
 293 442.666666667 282.333333333 489.333333333 261 534 c 1
 90 534 l 1
 90 619 l 1
 223 619 l 1
 217 631.666666667 209.333333333 645.333333333 200 660 c 0
 158.666666667 724 138 795.333333333 138 874 c 0
 138 1017.33333333 210.333333333 1113.33333333 355 1162 c 0
 404.333333333 1178 460.166666667 1186 522.5 1186 c 128
 584.833333333 1186 640.833333333 1177.5 690.5 1160.5 c 128
 740.166666667 1143.5 782.333333333 1119.33333333 817 1088 c 0
 889.666666667 1023.33333333 926 935.333333333 926 824 c 0
 926 818 926 818 926 812 c 1
 801 812 l 1
 797.666666667 901.333333333 772.666666667 968.666666667 726 1014 c 0
 677.333333333 1058.66666667 612 1081 530 1081 c 0
 456 1081 393 1063.33333333 341 1028 c 0
 287 989.333333333 260 936 260 868 c 0
 260 826.666666667 269.166666667 789.333333333 287.5 756 c 128
 305.833333333 722.666666667 321.5 696.333333333 334.5 677 c 128
 347.5 657.666666667 359.666666667 638.333333333 371 619 c 1
 666 619 l 1
 666 534 l 1
 404 534 l 1
 414.666666667 496 420 460.666666667 420 428 c 128
 420 395.333333333 415.333333333 364.333333333 406 335 c 0
 388 279.666666667 357 227 313 177 c 0
 298.333333333 159.666666667 283.666666667 143 269 127 c 1
 320.333333333 151 366 163 406 163 c 0
 462.666666667 163 512 154.833333333 554 138.5 c 128
 596 122.166666667 627.833333333 110.5 649.5 103.5 c 128
 671.166666667 96.5 698.666666667 93 732 93 c 128
 765.333333333 93 795.833333333 102.333333333 823.5 121 c 128
 851.166666667 139.666666667 879.666666667 163.666666667 909 193 c 1
 974 96 l 1
 920 46 877.333333333 14.6666666667 846 2 c 0
 771.333333333 -18.6666666667 724.333333333 -29 705 -29 c 0
 704 -29 704 -29 703 -29 c 1
 658.333333333 -29 624.333333333 -25 601 -17 c 0
 536.333333333 5.66666666667 487.833333333 21.5 455.5 30.5 c 128
 423.166666667 39.5 390.833333333 44 358.5 44 c 128
 326.166666667 44 296 38 268 26 c 0
 240.666666667 14 210.666666667 1.33333333333 178 -12 c 1
 112 95 l 1
EndSplineSet
Validated: 1
EndChar

StartChar: currency
Encoding: 164 164 342
Width: 1056
VWidth: 1668
GlyphClass: 2
Flags: W
LayerCount: 2
Fore
SplineSet
788 145 m 1
 710 91 624.333333333 63.6666666667 531 63 c 0
 530 63 530 63 529 63 c 0
 435.666666667 63 349 90.3333333333 269 145 c 1
 193 73 l 1
 96 170 l 1
 170 241 l 1
 116.666666667 320.333333333 90 404.5 90 493.5 c 128
 90 582.5 116.666666667 663.333333333 170 736 c 1
 96 809 l 1
 193 906 l 1
 269 834 l 1
 343 887.333333333 427.333333333 914 522 914 c 128
 616.666666667 914 705.333333333 887 788 833 c 1
 863 906 l 1
 961 809 l 1
 887 736 l 1
 939.666666667 660 966 578.5 966 491.5 c 128
 966 404.5 939.666666667 321 887 241 c 1
 961 170 l 1
 863 73 l 1
 788 145 l 1
536 792 m 1
 535 792 l 1
 529 792 529 792 523 792 c 0
 437.666666667 792 366.666666667 764.333333333 310 709 c 0
 254 653 226 585.666666667 226 507 c 2
 226 493 l 1
 226 493 l 1
 226 488 226 488 226 483 c 0
 226 409 254 343.333333333 310 286 c 0
 369.333333333 227.333333333 441 198 525 198 c 1
 611.666666667 198 684.666666667 226.666666667 744 284 c 0
 802.666666667 342 832 413.333333333 832 498 c 0
 832 576.666666667 803.333333333 645.666666667 746 705 c 0
 689.333333333 763 622.333333333 792 545 792 c 0
 541 792 541 792 536 792 c 1
EndSplineSet
Validated: 1
EndChar

StartChar: yen
Encoding: 165 165 343
Width: 1145
VWidth: 1689
GlyphClass: 2
Flags: W
LayerCount: 2
Fore
SplineSet
235 1217 m 1
 570 637 l 1
 915 1217 l 1
 1055 1217 l 1
 764 740 l 1
 948 740 l 1
 948 635 l 1
 699 635 l 1
 635 529 l 1
 635 467 l 1
 948 467 l 1
 948 361 l 1
 635 361 l 1
 635 0 l 1
 509 0 l 1
 509 361 l 1
 197 361 l 1
 197 467 l 1
 509 467 l 1
 509 529 l 1
 447 635 l 1
 197 635 l 1
 197 740 l 1
 380 740 l 1
 90 1217 l 1
 235 1217 l 1
EndSplineSet
Validated: 1
EndChar

StartChar: brokenbar
Encoding: 166 166 344
Width: 295
VWidth: 1650
GlyphClass: 2
Flags: W
LayerCount: 2
Fore
SplineSet
205 1101 m 1
 205 503 l 1
 90 503 l 1
 90 1101 l 1
 205 1101 l 1
205 263 m 1
 205 -335 l 1
 90 -335 l 1
 90 263 l 1
 205 263 l 1
EndSplineSet
Validated: 1
EndChar

StartChar: section
Encoding: 167 167 345
Width: 986
VWidth: 1660
GlyphClass: 2
Flags: W
LayerCount: 2
Fore
SplineSet
648 177 m 1
 743.333333333 231 791 291.666666667 791 359 c 0
 791 413.666666667 758.333333333 463.333333333 693 508 c 0
 675 520 657.333333333 531 640 541 c 2
 336 718 l 1
 242.666666667 677.333333333 196 621.333333333 196 550 c 0
 196 490.666666667 243 430.333333333 337 369 c 1
 648 177 l 1
285 -20 m 2
 285 -160 356 -230 498 -230 c 0
 550 -230 589.333333333 -220.333333333 616 -201 c 0
 662.666666667 -167 686 -126.333333333 686 -79 c 0
 686 -16.3333333333 644 42.6666666667 560 98 c 0
 537.333333333 113.333333333 515.333333333 127.666666667 494 141 c 2
 266 278 l 2
 211.333333333 311.333333333 168.333333333 348.166666667 137 388.5 c 128
 105.666666667 428.833333333 90 478.166666667 90 536.5 c 128
 90 594.833333333 107.333333333 644.5 142 685.5 c 128
 176.666666667 726.5 218 758 266 780 c 1
 242.666666667 807.333333333 222.833333333 835.166666667 206.5 863.5 c 128
 190.166666667 891.833333333 182 925 182 963 c 128
 182 1001 188.666666667 1035.33333333 202 1066 c 0
 230 1129.33333333 283 1173.66666667 361 1199 c 0
 401.666666667 1212.33333333 448.666666667 1219 502 1219 c 0
 603.333333333 1219 680 1191.33333333 732 1136 c 0
 782.666666667 1082.66666667 808 1007.66666667 808 911 c 0
 808 907 808 907 808 903 c 1
 703 903 l 1
 701 976.333333333 684 1030 652 1064 c 0
 618.666666667 1097.33333333 570.333333333 1114 507 1114 c 0
 371.666666667 1114 304 1062.33333333 304 959 c 0
 304 922.333333333 318.333333333 889.666666667 347 861 c 0
 393 814.333333333 477.666666667 759.333333333 601 696 c 0
 719 634.666666667 802.666666667 572.333333333 852 509 c 0
 881.333333333 470.333333333 896 430.333333333 896 389 c 0
 896 295 856.666666667 218.666666667 778 160 c 0
 757.333333333 144.666666667 736 129.666666667 714 115 c 1
 722 107 722 107 736 93 c 0
 784 47 808 -2.33333333333 808 -55 c 0
 808 -192.333333333 745 -280 619 -318 c 0
 580.333333333 -329.333333333 539.333333333 -335 496 -335 c 0
 393.333333333 -335 314.166666667 -306.666666667 258.5 -250 c 128
 202.833333333 -193.333333333 173 -114.333333333 169 -13 c 1
 285 -13 l 1
 285 -20 l 2
EndSplineSet
Validated: 1
EndChar

StartChar: dieresis
Encoding: 168 168 346
Width: 573
VWidth: 1788
GlyphClass: 2
Flags: W
LayerCount: 2
Fore
SplineSet
90 1258 m 1
 214 1258 l 1
 214 1071 l 1
 90 1071 l 1
 90 1258 l 1
359 1258 m 1
 483 1258 l 1
 483 1071 l 1
 359 1071 l 1
 359 1258 l 1
EndSplineSet
Validated: 1
EndChar

StartChar: copyright
Encoding: 169 169 347
Width: 1488
VWidth: 1689
GlyphClass: 2
Flags: W
LayerCount: 2
Fore
SplineSet
1001.5 18.5 m 128
 921.833333333 -15.1666666667 836.333333333 -32 745 -32 c 128
 653.666666667 -32 568 -15 488 19 c 0
 326 87 210.333333333 200.666666667 141 360 c 0
 107 438 90 521.166666667 90 609.5 c 128
 90 697.833333333 107 781 141 859 c 0
 210.333333333 1017.66666667 326 1130.66666667 488 1198 c 0
 568 1231.33333333 653.666666667 1248 745 1248 c 128
 836.333333333 1248 922 1231.33333333 1002 1198 c 0
 1164.66666667 1130 1280 1016.66666667 1348 858 c 0
 1381.33333333 780 1398 697 1398 609 c 0
 1398 431 1335.33333333 280 1210 156 c 0
 1150.66666667 98 1081.16666667 52.1666666667 1001.5 18.5 c 128
359 222.5 m 128
 461.666666667 118.166666667 590.666666667 66 746 66 c 128
 901.333333333 66 1029.83333333 118.5 1131.5 223.5 c 128
 1233.16666667 328.5 1284 457.166666667 1284 609.5 c 128
 1284 761.833333333 1233.16666667 890 1131.5 994 c 128
 1029.83333333 1098 901.166666667 1150 745.5 1150 c 128
 589.833333333 1150 460.833333333 1098.33333333 358.5 995 c 128
 256.166666667 891.666666667 205 763.166666667 205 609.5 c 128
 205 455.833333333 256.333333333 326.833333333 359 222.5 c 128
1083 500 m 1
 1075.66666667 418 1041.66666667 353.333333333 981 306 c 0
 923 260.666666667 860.333333333 238 793 238 c 128
 725.666666667 238 669.333333333 247.833333333 624 267.5 c 128
 578.666666667 287.166666667 539.666666667 313.666666667 507 347 c 0
 440.333333333 415.666666667 407 505 407 615 c 0
 407 725 439 814 503 882 c 0
 570.333333333 953.333333333 659.333333333 989 770 989 c 0
 850 989 919 967.5 977 924.5 c 128
 1035 881.5 1070.66666667 817.666666667 1084 733 c 1
 977 733 l 1
 967.666666667 785.666666667 943.5 826.833333333 904.5 856.5 c 128
 865.5 886.166666667 823 901 777 901 c 0
 652.333333333 901 572.333333333 843 537 727 c 0
 526.333333333 692.333333333 521 655.833333333 521 617.5 c 128
 521 579.166666667 526.666666667 542.333333333 538 507 c 0
 561.333333333 434.333333333 604.333333333 382 667 350 c 0
 697.666666667 334 729.5 326 762.5 326 c 128
 795.5 326 823.333333333 329.833333333 846 337.5 c 128
 868.666666667 345.166666667 889 356.333333333 907 371 c 0
 946.333333333 403 969.666666667 446 977 500 c 1
 1083 500 l 1
EndSplineSet
Validated: 1
EndChar

StartChar: ordfeminine
Encoding: 170 170 348
Width: 730
VWidth: 1766
GlyphClass: 2
Flags: W
LayerCount: 2
Fore
SplineSet
491 987 m 2
 491 1059 l 1
 457 1046.33333333 408.833333333 1037.83333333 346.5 1033.5 c 128
 284.166666667 1029.16666667 239.166666667 1018.66666667 211.5 1002 c 128
 183.833333333 985.333333333 170 961.166666667 170 929.5 c 128
 170 897.833333333 182.5 874.333333333 207.5 859 c 128
 232.5 843.666666667 259 836 287 836 c 0
 377.666666667 836 440 864 474 920 c 0
 485.333333333 938 491 960.333333333 491 987 c 2
294 1086 m 1
 385 1098 l 1
 429.666666667 1102.66666667 457.333333333 1107 468 1111 c 0
 483.333333333 1117 491 1133.83333333 491 1161.5 c 128
 491 1189.16666667 480.666666667 1212.66666667 460 1232 c 128
 439.333333333 1251.33333333 405.666666667 1261 359 1261 c 128
 312.333333333 1261 275 1252.5 247 1235.5 c 128
 219 1218.5 202 1186 196 1138 c 1
 114 1138 l 1
 124.666666667 1262.66666667 206 1325 358 1325 c 0
 422.666666667 1325 468.666666667 1315.66666667 496 1297 c 0
 546 1263 571 1217 571 1159 c 2
 571 880 l 2
 571 859.333333333 574.333333333 846.666666667 581 842 c 128
 587.666666667 837.333333333 607.333333333 840.333333333 640 851 c 1
 640 790 l 1
 618 782.666666667 596.333333333 779 575 779 c 0
 567.666666667 779 560.333333333 779.333333333 553 780 c 0
 525.666666667 783.333333333 509.166666667 792 503.5 806 c 128
 497.833333333 820 494 834 492 848 c 1
 436.666666667 797.333333333 368.333333333 772 287 772 c 0
 231.666666667 772 190.333333333 781.333333333 163 800 c 0
 114.333333333 832.666666667 90 874.333333333 90 925 c 0
 90 1015.66666667 158 1069.33333333 294 1086 c 1
EndSplineSet
Validated: 1
EndChar

StartChar: logicalnot
Encoding: 172 172 349
Width: 1052
VWidth: 1648
GlyphClass: 2
Flags: W
LayerCount: 2
Fore
SplineSet
840 148 m 1
 840 482 l 1
 90 482 l 1
 90 597 l 1
 962 597 l 1
 962 148 l 1
 840 148 l 1
EndSplineSet
Validated: 1
EndChar

StartChar: uni00AD
Encoding: 173 173 350
Width: 622
VWidth: 1653
GlyphClass: 2
Flags: W
LayerCount: 2
Fore
SplineSet
532 456 m 1
 532 337 l 1
 90 337 l 1
 90 456 l 1
 532 456 l 1
EndSplineSet
Validated: 1
EndChar

StartChar: registered
Encoding: 174 174 351
Width: 1488
VWidth: 1689
GlyphClass: 2
Flags: W
LayerCount: 2
Fore
SplineSet
1001.5 18.5 m 128
 921.833333333 -15.1666666667 836.333333333 -32 745 -32 c 128
 653.666666667 -32 568 -15 488 19 c 0
 326 87 210.333333333 200.666666667 141 360 c 0
 107 438 90 521.166666667 90 609.5 c 128
 90 697.833333333 107 781 141 859 c 0
 210.333333333 1017.66666667 326 1130.66666667 488 1198 c 0
 568 1231.33333333 653.666666667 1248 745 1248 c 128
 836.333333333 1248 922 1231.33333333 1002 1198 c 0
 1164.66666667 1130 1280 1016.66666667 1348 858 c 0
 1381.33333333 780 1398 697 1398 609 c 0
 1398 431 1335.33333333 280 1210 156 c 0
 1150.66666667 98 1081.16666667 52.1666666667 1001.5 18.5 c 128
359 222.5 m 128
 461.666666667 118.166666667 590.666666667 66 746 66 c 128
 901.333333333 66 1029.83333333 118.5 1131.5 223.5 c 128
 1233.16666667 328.5 1284 457.166666667 1284 609.5 c 128
 1284 761.833333333 1233.16666667 890 1131.5 994 c 128
 1029.83333333 1098 901.166666667 1150 745.5 1150 c 128
 589.833333333 1150 460.833333333 1098.33333333 358.5 995 c 128
 256.166666667 891.666666667 205 763.166666667 205 609.5 c 128
 205 455.833333333 256.333333333 326.833333333 359 222.5 c 128
1087 777 m 0
 1087 649.666666667 1012.66666667 582.333333333 864 575 c 1
 1084 245 l 1
 960 245 l 1
 752 575 l 1
 600 575 l 1
 600 245 l 1
 496 245 l 1
 496 973 l 1
 821 973 l 2
 919 973 987.833333333 955.5 1027.5 920.5 c 128
 1067.16666667 885.5 1087 837.666666667 1087 777 c 0
600 657 m 1
 811 657 l 2
 877.666666667 657 925 672.333333333 953 703 c 0
 968.333333333 719.666666667 976 743 976 773 c 0
 976 842.333333333 939.333333333 882.333333333 866 893 c 0
 844 895.666666667 822.333333333 897 801 897 c 2
 600 897 l 1
 600 657 l 1
EndSplineSet
Validated: 1
EndChar

StartChar: macron
Encoding: 175 175 352
Width: 694
VWidth: 1788
GlyphClass: 2
Flags: W
LayerCount: 2
Fore
SplineSet
90 1209 m 1
 604 1209 l 1
 604 1118 l 1
 90 1118 l 1
 90 1209 l 1
EndSplineSet
Validated: 1
EndChar

StartChar: degree
Encoding: 176 176 353
Width: 701
VWidth: 1759
GlyphClass: 2
Flags: W
LayerCount: 2
Fore
SplineSet
611 1008 m 0
 611 973.333333333 604 940.333333333 590 909 c 0
 562.666666667 847.666666667 516.333333333 803 451 775 c 0
 419.666666667 761 386.333333333 754 351 754 c 128
 315.666666667 754 281.833333333 760.833333333 249.5 774.5 c 128
 217.166666667 788.166666667 189.666666667 806.333333333 167 829 c 0
 115.666666667 879.666666667 90 939.333333333 90 1008 c 128
 90 1076.66666667 115.333333333 1136 166 1186 c 0
 216.666666667 1236 278.333333333 1261 351 1261 c 0
 421.666666667 1261 482.666666667 1236 534 1186 c 128
 585.333333333 1136 611 1076.66666667 611 1008 c 0
476 1128 m 128
 440 1162.66666667 397.666666667 1180 349 1180 c 0
 301.666666667 1180 259.666666667 1162.66666667 223 1128 c 0
 188.333333333 1095.33333333 171 1055.33333333 171 1008 c 0
 171 960 188.5 919.166666667 223.5 885.5 c 128
 258.5 851.833333333 301 835 351 835 c 0
 400.333333333 835 442.5 852.166666667 477.5 886.5 c 128
 512.5 920.833333333 530 961 530 1007 c 128
 530 1053 512 1093.33333333 476 1128 c 128
EndSplineSet
Validated: 1
EndChar

StartChar: plusminus
Encoding: 177 177 354
Width: 1052
VWidth: 1650
GlyphClass: 2
Flags: W
LayerCount: 2
Fore
SplineSet
466 805 m 1
 585 805 l 1
 585 525 l 1
 962 525 l 1
 962 410 l 1
 585 410 l 1
 585 123 l 1
 466 123 l 1
 466 410 l 1
 90 410 l 1
 90 525 l 1
 466 525 l 1
 466 805 l 1
90 76 m 1
 962 76 l 1
 962 -39 l 1
 90 -39 l 1
 90 76 l 1
EndSplineSet
Validated: 1
EndChar

StartChar: twosuperior
Encoding: 178 178 355
Width: 706
VWidth: 1749
GlyphClass: 2
Flags: W
LayerCount: 2
Fore
SplineSet
112 1060 m 1
 112 1067 l 2
 112 1139.66666667 135.5 1198 182.5 1242 c 128
 229.5 1286 292.333333333 1308 371 1308 c 128
 449.666666667 1308 510.166666667 1288.83333333 552.5 1250.5 c 128
 594.833333333 1212.16666667 616 1167 616 1115 c 128
 616 1063 603.333333333 1021 578 989 c 0
 538 938.333333333 470.666666667 891.333333333 376 848 c 0
 304.666666667 815.333333333 249.333333333 777.333333333 210 734 c 0
 192.666666667 715.333333333 182.333333333 691.333333333 179 662 c 1
 609 662 l 1
 609 594 l 1
 90 594 l 1
 90 601 l 2
 90 675.666666667 110.333333333 734 151 776 c 0
 192.333333333 818 238.166666667 853.166666667 288.5 881.5 c 128
 338.833333333 909.833333333 376.666666667 930.666666667 402 944 c 0
 484.666666667 987.333333333 526 1040.66666667 526 1104 c 0
 526 1148 510.166666667 1181.83333333 478.5 1205.5 c 128
 446.833333333 1229.16666667 413.333333333 1241 378 1241 c 128
 342.666666667 1241 315 1236.33333333 295 1227 c 128
 275 1217.66666667 257.666666667 1205 243 1189 c 0
 214.333333333 1157 200 1118.33333333 200 1073 c 0
 200 1067 200 1067 200 1060 c 1
 112 1060 l 1
EndSplineSet
Validated: 1
EndChar

StartChar: threesuperior
Encoding: 179 179 356
Width: 719
VWidth: 1748
GlyphClass: 2
Flags: W
LayerCount: 2
Fore
SplineSet
505 972 m 1
 587 943.333333333 628.333333333 885.333333333 629 798 c 0
 629 737.333333333 607 686.166666667 563 644.5 c 128
 519 602.833333333 455.333333333 581 372 579 c 0
 279.333333333 579 211.666666667 595.333333333 169 628 c 0
 124.333333333 662.666666667 98 724.333333333 90 813 c 1
 176 813 l 1
 176 806 l 2
 176 754 192.833333333 714.5 226.5 687.5 c 128
 260.166666667 660.5 297.666666667 647 339 647 c 0
 405 647 457.333333333 662.333333333 496 693 c 0
 528.666666667 719.666666667 545 749.333333333 545 782 c 0
 545 785 545 785 545 787 c 0
 539.666666667 883.666666667 472 932.333333333 342 933 c 0
 327.333333333 933 312 932.333333333 296 931 c 1
 296 996 l 1
 303 996 l 2
 410.333333333 996 477 1017.66666667 503 1061 c 0
 513 1077.66666667 518 1102.16666667 518 1134.5 c 128
 518 1166.83333333 502.5 1192.33333333 471.5 1211 c 128
 440.5 1229.66666667 402 1239 356 1239 c 128
 310 1239 272.5 1225.33333333 243.5 1198 c 128
 214.5 1170.66666667 200 1135.66666667 200 1093 c 2
 200 1086 l 1
 117 1086 l 1
 117 1093 l 2
 117 1157.66666667 142.333333333 1212.66666667 193 1258 c 0
 231.666666667 1290.66666667 292 1307 374 1307 c 0
 477.333333333 1307 547.333333333 1273.66666667 584 1207 c 0
 596.666666667 1184.33333333 603 1157.66666667 603 1127 c 0
 602.333333333 1055.66666667 569.666666667 1004 505 972 c 1
EndSplineSet
Validated: 1
EndChar

StartChar: acute
Encoding: 180 180 357
Width: 528
VWidth: 1791
GlyphClass: 2
Flags: W
LayerCount: 2
Fore
SplineSet
90 1058 m 1
 289 1306 l 1
 438 1306 l 1
 196 1074 l 1
 194 1058 l 1
 90 1058 l 1
EndSplineSet
Validated: 1
EndChar

StartChar: mu
Encoding: 181 181 358
Width: 902
VWidth: 1617
GlyphClass: 2
Flags: W
LayerCount: 2
Fore
SplineSet
205 -47 m 1
 205 -418 l 1
 90 -418 l 1
 90 803 l 1
 205 803 l 1
 205 231 l 2
 205 159 221.833333333 104 255.5 66 c 128
 289.166666667 28 347 9 429 9 c 0
 556.333333333 9 639.666666667 72 679 198 c 0
 691 236.666666667 697 279.666666667 697 327 c 2
 697 803 l 1
 812 803 l 1
 812 -73 l 1
 697 -73 l 1
 697 38 l 1
 662.333333333 0 632.666666667 -27 608 -43 c 0
 552 -79 485.833333333 -97 409.5 -97 c 128
 333.166666667 -97 265 -80.3333333333 205 -47 c 1
EndSplineSet
Validated: 1
EndChar

StartChar: paragraph
Encoding: 182 182 359
Width: 951
VWidth: 1663
GlyphClass: 2
Flags: W
LayerCount: 2
Fore
SplineSet
418 -273 m 1
 418 534 l 1
 329.333333333 536 253.333333333 568 190 630 c 0
 123.333333333 694 90 774.833333333 90 872.5 c 128
 90 970.166666667 123.666666667 1047.66666667 191 1105 c 128
 258.333333333 1162.33333333 355 1191 481 1191 c 2
 861 1191 l 1
 861 -273 l 1
 746 -273 l 1
 746 1063 l 1
 540 1063 l 1
 540 -273 l 1
 418 -273 l 1
EndSplineSet
Validated: 1
EndChar

StartChar: periodcentered
Encoding: 183 183 360
Width: 359
VWidth: 1685
GlyphClass: 2
Flags: W
LayerCount: 2
Fore
SplineSet
117 517 m 128
 99 535 90 556.333333333 90 581 c 128
 90 605.666666667 99.3333333333 626.5 118 643.5 c 128
 136.666666667 660.5 158 669 182 669 c 128
 206 669 226.5 660.5 243.5 643.5 c 128
 260.5 626.5 269 605.666666667 269 581 c 128
 269 556.333333333 260.5 535 243.5 517 c 128
 226.5 499 205.666666667 490 181 490 c 128
 156.333333333 490 135 499 117 517 c 128
EndSplineSet
Validated: 1
EndChar

StartChar: cedilla
Encoding: 184 184 361
Width: 540
VWidth: 1523
GlyphClass: 2
Flags: W
LayerCount: 2
Fore
SplineSet
266 -255 m 1
 284.666666667 -251 299.333333333 -249 310 -249 c 0
 348.666666667 -249 380 -258.5 404 -277.5 c 128
 428 -296.5 442.333333333 -319 447 -345 c 0
 449 -356.333333333 450 -367 450 -377 c 0
 450 -441 411 -484 333 -506 c 0
 307.666666667 -512.666666667 281.333333333 -516 254 -516 c 0
 210.666666667 -516 156 -504.333333333 90 -481 c 1
 121 -418 l 1
 143 -424.666666667 162.666666667 -430.666666667 180 -436 c 128
 197.333333333 -441.333333333 213.333333333 -444 228 -444 c 0
 300.666666667 -444 337.333333333 -421.333333333 338 -376 c 0
 338 -357.333333333 330.166666667 -343.333333333 314.5 -334 c 128
 298.833333333 -324.666666667 281 -320 261 -320 c 128
 241 -320 215.333333333 -325 184 -335 c 1
 151 -307 l 1
 258 -166 l 1
 342 -166 l 1
 266 -255 l 1
EndSplineSet
Validated: 1
EndChar

StartChar: onesuperior
Encoding: 185 185 362
Width: 464
VWidth: 1749
GlyphClass: 2
Flags: W
LayerCount: 2
Fore
SplineSet
289 594 m 1
 289 1117 l 1
 90 1117 l 1
 90 1173 l 1
 162 1176.33333333 208.333333333 1183.33333333 229 1194 c 0
 269.666666667 1215.33333333 295 1253.33333333 305 1308 c 1
 374 1308 l 1
 374 594 l 1
 289 594 l 1
EndSplineSet
Validated: 1
EndChar

StartChar: ordmasculine
Encoding: 186 186 363
Width: 721
VWidth: 1766
GlyphClass: 2
Flags: W
LayerCount: 2
Fore
SplineSet
557 848 m 128
 507.666666667 797.333333333 442 772 360 772 c 1
 236.666666667 776.666666667 154 829 112 929 c 0
 97.3333333333 963 90 1001.16666667 90 1043.5 c 128
 90 1085.83333333 95.3333333333 1123.66666667 106 1157 c 128
 116.666666667 1190.33333333 133.333333333 1219.5 156 1244.5 c 128
 178.666666667 1269.5 207.166666667 1289.16666667 241.5 1303.5 c 128
 275.833333333 1317.83333333 315.333333333 1325 360 1325 c 128
 404.666666667 1325 444.333333333 1317.66666667 479 1303 c 0
 580.333333333 1260.33333333 631 1175.66666667 631 1049 c 0
 631 965.666666667 606.333333333 898.666666667 557 848 c 128
274 1243 m 0
 204 1207.66666667 169 1143 169 1049 c 0
 169 987 185.333333333 936 218 896 c 128
 250.666666667 856 298 836 360 836 c 0
 452 836 511.666666667 880.666666667 539 970 c 0
 547 995.333333333 551 1022 551 1050 c 128
 551 1078 547.5 1105 540.5 1131 c 128
 533.5 1157 522 1179.66666667 506 1199 c 0
 472.666666667 1240.33333333 424 1261 360 1261 c 0
 326.666666667 1261 298 1255 274 1243 c 0
EndSplineSet
Validated: 1
EndChar

StartChar: onequarter
Encoding: 188 188 364
Width: 1482
VWidth: 1690
GlyphClass: 3
Flags: W
LayerCount: 2
Fore
SplineSet
1201 -6 m 1
 1201 170 l 1
 842 170 l 1
 842 235 l 1
 1211 716 l 1
 1286 716 l 1
 1286 240 l 1
 1392 240 l 1
 1392 170 l 1
 1286 170 l 1
 1286 -6 l 1
 1201 -6 l 1
1201 590 m 1
 934 240 l 1
 1201 240 l 1
 1201 590 l 1
300 -23 m 1
 1072 1206 l 1
 1177 1206 l 1
 405 -23 l 1
 300 -23 l 1
290 521 m 1
 290 1051 l 1
 90 1051 l 1
 90 1109 l 1
 162 1112.33333333 208.333333333 1119.66666667 229 1131 c 0
 269 1153 294.666666667 1192.33333333 306 1249 c 1
 376 1249 l 1
 376 521 l 1
 290 521 l 1
EndSplineSet
Validated: 1
Ligature2: "Helvetica-Light-Ligature Substitution lookup 6 subtable" one slash four
EndChar

StartChar: onehalf
Encoding: 189 189 365
Width: 1482
VWidth: 1690
GlyphClass: 3
Flags: W
LayerCount: 2
Fore
SplineSet
233 -23 m 1
 1004 1206 l 1
 1108 1206 l 1
 336 -23 l 1
 233 -23 l 1
290 521 m 1
 290 1051 l 1
 90 1051 l 1
 90 1109 l 1
 162 1112.33333333 208.333333333 1119.66666667 229 1131 c 0
 269 1153 294.666666667 1192.33333333 306 1249 c 1
 376 1249 l 1
 376 521 l 1
 290 521 l 1
883 474 m 1
 883 481 l 2
 883 553.666666667 907 612 955 656 c 128
 1003 700 1066.83333333 722 1146.5 722 c 128
 1226.16666667 722 1287 702.333333333 1329 663 c 128
 1371 623.666666667 1392 577.5 1392 524.5 c 128
 1392 471.5 1379.33333333 428.666666667 1354 396 c 0
 1313.33333333 343.333333333 1246 295.333333333 1152 252 c 0
 1079.33333333 219.333333333 1023 180.333333333 983 135 c 0
 965.666666667 115.666666667 955.333333333 91.3333333333 952 62 c 1
 1385 62 l 1
 1385 -6 l 1
 861 -6 l 1
 861 1 l 2
 861 77.6666666667 881.666666667 137.333333333 923 180 c 0
 965 223.333333333 1011.66666667 259.333333333 1063 288 c 128
 1114.33333333 316.666666667 1152.33333333 337.666666667 1177 351 c 0
 1260.33333333 395 1302 449.666666667 1302 515 c 0
 1302 560.333333333 1286.16666667 595 1254.5 619 c 128
 1222.83333333 643 1189.16666667 655 1153.5 655 c 128
 1117.83333333 655 1089.83333333 650.333333333 1069.5 641 c 128
 1049.16666667 631.666666667 1031.66666667 619 1017 603 c 0
 987.666666667 571 973 532.333333333 973 487 c 0
 973 481 973 481 973 474 c 1
 883 474 l 1
EndSplineSet
Validated: 1
Ligature2: "Helvetica-Light-Ligature Substitution lookup 6 subtable" one slash two
EndChar

StartChar: threequarters
Encoding: 190 190 366
Width: 1483
VWidth: 1690
GlyphClass: 3
Flags: W
LayerCount: 2
Fore
SplineSet
1202 590 m 1
 935 240 l 1
 1202 240 l 1
 1202 590 l 1
1202 -6 m 1
 1202 170 l 1
 843 170 l 1
 843 235 l 1
 1211 716 l 1
 1287 716 l 1
 1287 240 l 1
 1393 240 l 1
 1393 170 l 1
 1287 170 l 1
 1287 -6 l 1
 1202 -6 l 1
509 910 m 1
 593.666666667 880.666666667 636 822.666666667 636 736 c 0
 636 674.666666667 613.5 623 568.5 581 c 128
 523.5 539 459 516.666666667 375 514 c 1
 281 514 213 530.333333333 171 563 c 0
 127 597 100 658.666666667 90 748 c 1
 176 748 l 1
 176 741 l 2
 176 689 192.833333333 649.5 226.5 622.5 c 128
 260.166666667 595.5 298 582 340 582 c 0
 442 582 507.666666667 614 537 678 c 0
 545 694.666666667 549 713.666666667 549 735 c 0
 549 738 549 738 549 742 c 0
 545.666666667 830 476 874 340 874 c 0
 326.666666667 874 312.333333333 873.666666667 297 873 c 1
 297 938 l 1
 304 938 l 2
 412 938 479.333333333 959.666666667 506 1003 c 0
 516 1019.66666667 521 1044.16666667 521 1076.5 c 128
 521 1108.83333333 505.166666667 1134.5 473.5 1153.5 c 128
 441.833333333 1172.5 403 1182 357 1182 c 128
 311 1182 273.666666667 1168.16666667 245 1140.5 c 128
 216.333333333 1112.83333333 202 1077.66666667 202 1035 c 2
 202 1028 l 1
 118 1028 l 1
 118 1035 l 2
 118 1100.33333333 143.666666667 1155.33333333 195 1200 c 0
 233.666666667 1232.66666667 294 1249 376 1249 c 0
 481.333333333 1249 552.333333333 1215.33333333 589 1148 c 0
 601.666666667 1125.33333333 608 1098.66666667 608 1068 c 0
 607.333333333 994.666666667 574.333333333 942 509 910 c 1
370 -23 m 1
 1142 1206 l 1
 1244 1206 l 1
 474 -23 l 1
 370 -23 l 1
EndSplineSet
Validated: 1
Ligature2: "Helvetica-Light-Ligature Substitution lookup 6 subtable" three slash four
EndChar

StartChar: questiondown
Encoding: 191 191 367
Width: 942
VWidth: 1619
GlyphClass: 2
Flags: W
LayerCount: 2
Fore
SplineSet
850 -30 m 1
 851.333333333 -44 852 -57.6666666667 852 -71 c 0
 852 -169.666666667 820 -250.666666667 756 -314 c 0
 684 -385.333333333 589.666666667 -421 473 -421 c 0
 290.333333333 -421 171.333333333 -357 116 -229 c 0
 98.6666666667 -189 90 -144.333333333 90 -95 c 128
 90 -45.6666666667 101.166666667 -2.66666666667 123.5 34 c 128
 145.833333333 70.6666666667 172.666666667 104.333333333 204 135 c 128
 235.333333333 165.666666667 268.333333333 196 303 226 c 0
 381 294 422 360 426 424 c 0
 428.666666667 459.333333333 430 494 430 528 c 2
 430 535 l 1
 548 535 l 1
 548 522 548 522 548 510 c 0
 548 453.333333333 543.666666667 402.333333333 535 357 c 0
 524.333333333 305.666666667 495.333333333 256 448 208 c 0
 422 182 394.666666667 156.666666667 366 132 c 0
 303.333333333 77.3333333333 262 31.8333333333 242 -4.5 c 128
 222 -40.8333333333 212 -73.6666666667 212 -103 c 0
 212 -199.666666667 261.666666667 -264.666666667 361 -298 c 0
 394.333333333 -309.333333333 432.666666667 -315 476 -315 c 128
 519.333333333 -315 557.333333333 -307.833333333 590 -293.5 c 128
 622.666666667 -279.166666667 649.666666667 -259.666666667 671 -235 c 0
 713 -185.666666667 734 -122.333333333 734 -45 c 0
 734 -38 734 -38 734 -30 c 1
 850 -30 l 1
559 829 m 1
 559 665 l 1
 413 665 l 1
 413 829 l 1
 559 829 l 1
EndSplineSet
Validated: 1
EndChar

StartChar: Agrave
Encoding: 192 192 368
Width: 1288
VWidth: 1724
GlyphClass: 2
Flags: W
LayerCount: 2
Fore
SplineSet
90 28 m 1
 579 1252 l 1
 722 1252 l 1
 1198 28 l 1
 1065 28 l 1
 925 410 l 1
 367 410 l 1
 223 28 l 1
 90 28 l 1
646 1134 m 1
 412 522 l 1
 880 522 l 1
 646 1134 l 1
417 1581 m 1
 573 1581 l 1
 777 1332 l 1
 671 1332 l 1
 417 1581 l 1
EndSplineSet
Validated: 1
EndChar

StartChar: Aacute
Encoding: 193 193 369
Width: 1288
VWidth: 1724
GlyphClass: 2
Flags: W
LayerCount: 2
Fore
SplineSet
90 28 m 1
 579 1252 l 1
 722 1252 l 1
 1198 28 l 1
 1065 28 l 1
 925 410 l 1
 367 410 l 1
 223 28 l 1
 90 28 l 1
646 1134 m 1
 412 522 l 1
 880 522 l 1
 646 1134 l 1
530 1332 m 1
 735 1581 l 1
 887 1581 l 1
 637 1332 l 1
 530 1332 l 1
EndSplineSet
Validated: 1
EndChar

StartChar: Acircumflex
Encoding: 194 194 370
Width: 1288
VWidth: 1724
GlyphClass: 2
Flags: W
LayerCount: 2
Fore
SplineSet
90 28 m 1
 579 1252 l 1
 722 1252 l 1
 1198 28 l 1
 1065 28 l 1
 925 410 l 1
 367 410 l 1
 223 28 l 1
 90 28 l 1
646 1134 m 1
 412 522 l 1
 880 522 l 1
 646 1134 l 1
515 1332 m 1
 384 1332 l 1
 593 1581 l 1
 715 1581 l 1
 922 1332 l 1
 791 1332 l 1
 652 1500 l 1
 515 1332 l 1
EndSplineSet
Validated: 1
EndChar

StartChar: Atilde
Encoding: 195 195 371
Width: 1288
VWidth: 1720
GlyphClass: 2
Flags: W
LayerCount: 2
Fore
SplineSet
90 23 m 1
 579 1247 l 1
 722 1247 l 1
 1198 23 l 1
 1065 23 l 1
 925 405 l 1
 367 405 l 1
 223 23 l 1
 90 23 l 1
646 1129 m 1
 412 518 l 1
 880 518 l 1
 646 1129 l 1
378 1348 m 1
 382.666666667 1394.66666667 394.333333333 1431 413 1457 c 0
 447.666666667 1503.66666667 488.333333333 1527 535 1527 c 0
 547 1527 559.666666667 1525.33333333 573 1522 c 0
 593 1518 621 1508 657 1492 c 0
 721.666666667 1464 764.666666667 1450 786 1450 c 0
 820 1450 842.666666667 1478.33333333 854 1535 c 1
 935 1535 l 1
 931 1503 924 1475.66666667 914 1453 c 0
 885.333333333 1387.66666667 842 1355 784 1355 c 0
 750.666666667 1355 715 1364 677 1382 c 0
 606.333333333 1414.66666667 558.5 1431 533.5 1431 c 128
 508.5 1431 490.833333333 1423.16666667 480.5 1407.5 c 128
 470.166666667 1391.83333333 461 1372 453 1348 c 1
 378 1348 l 1
EndSplineSet
Validated: 1
EndChar

StartChar: Adieresis
Encoding: 196 196 372
Width: 1288
VWidth: 1719
GlyphClass: 2
Flags: W
LayerCount: 2
Fore
SplineSet
90 23 m 1
 579 1247 l 1
 722 1247 l 1
 1198 23 l 1
 1065 23 l 1
 925 405 l 1
 367 405 l 1
 223 23 l 1
 90 23 l 1
646 1129 m 1
 412 517 l 1
 880 517 l 1
 646 1129 l 1
454 1531 m 1
 581 1531 l 1
 581 1344 l 1
 454 1344 l 1
 454 1531 l 1
729 1531 m 1
 856 1531 l 1
 856 1344 l 1
 729 1344 l 1
 729 1531 l 1
EndSplineSet
Validated: 1
EndChar

StartChar: Aring
Encoding: 197 197 373
Width: 1288
VWidth: 1736
GlyphClass: 2
Flags: W
LayerCount: 2
Fore
SplineSet
90 39 m 1
 579 1263 l 1
 722 1263 l 1
 1198 39 l 1
 1065 39 l 1
 925 421 l 1
 367 421 l 1
 223 39 l 1
 90 39 l 1
646 1145 m 1
 412 534 l 1
 880 534 l 1
 646 1145 l 1
680 1350 m 0
 656 1350 633 1354.66666667 611 1364 c 0
 567.666666667 1382.66666667 535.666666667 1414 515 1458 c 0
 505 1479.33333333 500 1501.83333333 500 1525.5 c 128
 500 1549.16666667 505 1571.33333333 515 1592 c 0
 535.666666667 1635.33333333 568 1666.66666667 612 1686 c 0
 634 1696 656.833333333 1701 680.5 1701 c 128
 704.166666667 1701 726.833333333 1696.16666667 748.5 1686.5 c 128
 770.166666667 1676.83333333 789.333333333 1663.66666667 806 1647 c 0
 841.333333333 1611.66666667 859 1571 859 1525 c 0
 859 1477.66666667 841.333333333 1436.66666667 806 1402 c 128
 770.666666667 1367.33333333 728.666666667 1350 680 1350 c 0
605 1451.5 m 128
 627 1430.5 652 1420 680 1420 c 128
 708 1420 733 1430.66666667 755 1452 c 128
 777 1473.33333333 788 1497.66666667 788 1525 c 128
 788 1552.33333333 777.333333333 1576.83333333 756 1598.5 c 128
 734.666666667 1620.16666667 709.5 1631 680.5 1631 c 128
 651.5 1631 626.166666667 1620.33333333 604.5 1599 c 128
 582.833333333 1577.66666667 572 1553 572 1525 c 128
 572 1497 583 1472.5 605 1451.5 c 128
EndSplineSet
Validated: 1
EndChar

StartChar: AE
Encoding: 198 198 374
Width: 1826
VWidth: 1689
GlyphClass: 2
Flags: W
LayerCount: 2
Fore
SplineSet
90 0 m 1
 629 1217 l 1
 1716 1217 l 1
 1716 1105 l 1
 1020 1105 l 1
 1020 686 l 1
 1653 686 l 1
 1653 575 l 1
 1020 575 l 1
 1020 112 l 1
 1736 112 l 1
 1736 0 l 1
 890 0 l 1
 890 375 l 1
 383 375 l 1
 221 0 l 1
 90 0 l 1
707 1105 m 1
 437 480 l 1
 890 480 l 1
 890 1105 l 1
 707 1105 l 1
EndSplineSet
Validated: 1
EndChar

StartChar: Ccedilla
Encoding: 199 199 375
Width: 1262
VWidth: 1656
GlyphClass: 2
Flags: W
LayerCount: 2
Fore
SplineSet
577 -312 m 0
 647.666666667 -312 683 -286.666666667 683 -236 c 0
 683 -218.666666667 675 -205.166666667 659 -195.5 c 128
 643 -185.833333333 624.833333333 -181 604.5 -181 c 128
 584.166666667 -181 558 -186 526 -196 c 1
 492 -166 l 1
 570 -63 l 1
 407.333333333 -50.3333333333 285.333333333 17.6666666667 204 141 c 0
 128 254.333333333 90 398.666666667 90 574 c 0
 90 793.333333333 145 958.333333333 255 1069 c 0
 352.333333333 1166.33333333 491 1215 671 1215 c 0
 806.333333333 1215 915 1186 997 1128 c 1
 1083 1060 1136.33333333 960.666666667 1157 830 c 1
 1025 830 l 1
 1001 935.333333333 957.166666667 1009.5 893.5 1052.5 c 128
 829.833333333 1095.5 753.333333333 1117 664 1117 c 128
 574.666666667 1117 503.666666667 1102.66666667 451 1074 c 0
 347.666666667 1018 278.666666667 922.666666667 244 788 c 0
 228 724 220 657.333333333 220 588 c 0
 220 340.666666667 294 175.666666667 442 93 c 0
 497.333333333 61.6666666667 559 46 627 46 c 0
 795 46 915 112 987 244 c 0
 1009 284 1025.66666667 329.333333333 1037 380 c 1
 1172 380 l 1
 1138.66666667 244.666666667 1085.33333333 141 1012 69 c 0
 922.666666667 -18.3333333333 803 -62.6666666667 653 -64 c 1
 610 -116 l 1
 628.666666667 -112 643.666666667 -110 655 -110 c 0
 695 -110 727.333333333 -119.666666667 752 -139 c 128
 776.666666667 -158.333333333 791.333333333 -181.666666667 796 -209 c 0
 798 -220.333333333 799 -231 799 -241 c 0
 799 -307 759 -351 679 -373 c 0
 653 -380.333333333 626 -384 598 -384 c 0
 551.333333333 -384 495 -372 429 -348 c 1
 462 -286 l 1
 484 -292.666666667 503.833333333 -298.666666667 521.5 -304 c 128
 539.166666667 -309.333333333 557.666666667 -312 577 -312 c 0
EndSplineSet
Validated: 1
EndChar

StartChar: Egrave
Encoding: 200 200 376
Width: 1033
VWidth: 1724
GlyphClass: 2
Flags: W
LayerCount: 2
Fore
SplineSet
90 28 m 1
 90 1252 l 1
 927 1252 l 1
 927 1140 l 1
 218 1140 l 1
 218 721 l 1
 859 721 l 1
 859 610 l 1
 218 610 l 1
 218 140 l 1
 943 140 l 1
 943 28 l 1
 90 28 l 1
254 1581 m 1
 409 1581 l 1
 615 1332 l 1
 507 1332 l 1
 254 1581 l 1
EndSplineSet
Validated: 1
EndChar

StartChar: Eacute
Encoding: 201 201 377
Width: 1033
VWidth: 1724
GlyphClass: 2
Flags: W
LayerCount: 2
Fore
SplineSet
90 28 m 1
 90 1252 l 1
 927 1252 l 1
 927 1140 l 1
 218 1140 l 1
 218 721 l 1
 859 721 l 1
 859 610 l 1
 218 610 l 1
 218 140 l 1
 943 140 l 1
 943 28 l 1
 90 28 l 1
366 1332 m 1
 572 1581 l 1
 727 1581 l 1
 473 1332 l 1
 366 1332 l 1
EndSplineSet
Validated: 1
EndChar

StartChar: Ecircumflex
Encoding: 202 202 378
Width: 1033
VWidth: 1724
GlyphClass: 2
Flags: W
LayerCount: 2
Fore
SplineSet
90 28 m 1
 90 1252 l 1
 927 1252 l 1
 927 1140 l 1
 218 1140 l 1
 218 721 l 1
 859 721 l 1
 859 610 l 1
 218 610 l 1
 218 140 l 1
 943 140 l 1
 943 28 l 1
 90 28 l 1
349 1332 m 1
 220 1332 l 1
 427 1581 l 1
 553 1581 l 1
 761 1332 l 1
 630 1332 l 1
 490 1500 l 1
 349 1332 l 1
EndSplineSet
Validated: 1
EndChar

StartChar: Edieresis
Encoding: 203 203 379
Width: 1033
VWidth: 1719
GlyphClass: 2
Flags: W
LayerCount: 2
Fore
SplineSet
90 23 m 1
 90 1247 l 1
 927 1247 l 1
 927 1135 l 1
 218 1135 l 1
 218 716 l 1
 859 716 l 1
 859 605 l 1
 218 605 l 1
 218 135 l 1
 943 135 l 1
 943 23 l 1
 90 23 l 1
289 1531 m 1
 416 1531 l 1
 416 1344 l 1
 289 1344 l 1
 289 1531 l 1
566 1531 m 1
 695 1531 l 1
 695 1344 l 1
 566 1344 l 1
 566 1531 l 1
EndSplineSet
Validated: 1
EndChar

StartChar: Igrave
Encoding: 204 204 380
Width: 530
VWidth: 1724
GlyphClass: 2
Flags: W
LayerCount: 2
Fore
SplineSet
247 35 m 1
 247 1252 l 1
 375 1252 l 1
 375 35 l 1
 247 35 l 1
90 1581 m 1
 244 1581 l 1
 431 1346 l 1
 440 1332 l 1
 337 1332 l 1
 335 1336 l 1
 102 1571 l 1
 90 1581 l 1
EndSplineSet
Validated: 1
EndChar

StartChar: Iacute
Encoding: 205 205 381
Width: 528
VWidth: 1724
GlyphClass: 2
Flags: W
LayerCount: 2
Fore
SplineSet
172 35 m 1
 172 1252 l 1
 301 1252 l 1
 301 35 l 1
 172 35 l 1
90 1332 m 1
 286 1581 l 1
 438 1581 l 1
 194 1336 l 1
 192 1332 l 1
 90 1332 l 1
EndSplineSet
Validated: 1
EndChar

StartChar: Icircumflex
Encoding: 206 206 382
Width: 705
VWidth: 1724
GlyphClass: 2
Flags: W
LayerCount: 2
Fore
SplineSet
315 35 m 1
 315 1252 l 1
 444 1252 l 1
 444 35 l 1
 315 35 l 1
217 1332 m 1
 90 1332 l 1
 291 1581 l 1
 416 1581 l 1
 606 1346 l 1
 615 1332 l 1
 488 1332 l 1
 486 1337 l 1
 353 1502 l 1
 219 1337 l 1
 217 1332 l 1
EndSplineSet
Validated: 1
EndChar

StartChar: Idieresis
Encoding: 207 207 383
Width: 572
VWidth: 1719
GlyphClass: 2
Flags: W
LayerCount: 2
Fore
SplineSet
247 16 m 1
 247 1247 l 1
 376 1247 l 1
 376 16 l 1
 247 16 l 1
90 1531 m 1
 214 1531 l 1
 214 1344 l 1
 90 1344 l 1
 90 1531 l 1
358 1531 m 1
 482 1531 l 1
 482 1344 l 1
 358 1344 l 1
 358 1531 l 1
EndSplineSet
Validated: 1
EndChar

StartChar: Eth
Encoding: 208 208 384
Width: 1322
VWidth: 1689
GlyphClass: 2
Flags: W
LayerCount: 2
Fore
SplineSet
339 1105 m 1
 339 702 l 1
 617 702 l 1
 617 590 l 1
 339 590 l 1
 339 112 l 1
 614 112 l 2
 666.666666667 112 716 115 762 121 c 128
 808 127 853 140.666666667 897 162 c 0
 1034.33333333 230.666666667 1103 380 1103 610 c 0
 1103 713.333333333 1092.5 792.166666667 1071.5 846.5 c 128
 1050.5 900.833333333 1026.66666667 944.666666667 1000 978 c 0
 946 1045.33333333 868.333333333 1085 767 1097 c 0
 716.333333333 1102.33333333 665.333333333 1105 614 1105 c 2
 339 1105 l 1
211 1217 m 1
 640 1217 l 2
 768 1217 867 1202.66666667 937 1174 c 0
 1058.33333333 1125.33333333 1143 1028.66666667 1191 884 c 0
 1218.33333333 800.666666667 1232 709.333333333 1232 610 c 0
 1232 410.666666667 1182.33333333 257.333333333 1083 150 c 0
 993 50 845.333333333 0 640 0 c 2
 211 0 l 1
 211 590 l 1
 90 590 l 1
 90 702 l 1
 211 702 l 1
 211 1217 l 1
EndSplineSet
Validated: 1
EndChar

StartChar: Ntilde
Encoding: 209 209 385
Width: 1159
VWidth: 1720
GlyphClass: 2
Flags: W
LayerCount: 2
Fore
SplineSet
924 16 m 1
 219 1065 l 1
 219 16 l 1
 90 16 l 1
 90 1247 l 1
 230 1247 l 1
 940 194 l 1
 940 1247 l 1
 1069 1247 l 1
 1069 16 l 1
 924 16 l 1
312 1348 m 1
 316.666666667 1394.66666667 328.5 1431 347.5 1457 c 128
 366.5 1483 390 1502.33333333 418 1515 c 0
 438 1523.66666667 456.666666667 1528 474 1528 c 0
 482 1528 489.666666667 1527 497 1525 c 0
 525 1518.33333333 557 1507.33333333 593 1492 c 0
 657.666666667 1464 701 1450 723 1450 c 0
 757.666666667 1450 780.333333333 1478.33333333 791 1535 c 1
 870 1535 l 1
 866 1500.33333333 859.333333333 1472.33333333 850 1451 c 128
 840.666666667 1429.66666667 825.833333333 1408.33333333 805.5 1387 c 128
 785.166666667 1365.66666667 759.666666667 1355 729 1355 c 0
 689.666666667 1355 651 1364 613 1382 c 0
 541.666666667 1414.66666667 493.5 1431 468.5 1431 c 128
 443.5 1431 425.666666667 1423.16666667 415 1407.5 c 128
 404.333333333 1391.83333333 395.333333333 1372 388 1348 c 1
 312 1348 l 1
EndSplineSet
Validated: 1
EndChar

StartChar: Ograve
Encoding: 210 210 386
Width: 1342
VWidth: 1721
GlyphClass: 2
Flags: W
LayerCount: 2
Fore
SplineSet
670 -1 m 128
 483.333333333 -1 340 59.5 240 180.5 c 128
 140 301.5 90 454.166666667 90 638.5 c 128
 90 822.833333333 140.333333333 975.833333333 241 1097.5 c 128
 341.666666667 1219.16666667 485 1280 671 1280 c 128
 857 1280 1000.33333333 1219.5 1101 1098.5 c 128
 1201.66666667 977.5 1252 825 1252 641 c 128
 1252 457 1201.66666667 304 1101 182 c 128
 1000.33333333 60 856.666666667 -1 670 -1 c 128
1003 1027 m 0
 922.333333333 1121 811 1168 669 1168 c 0
 520.333333333 1168 405.666666667 1114.33333333 325 1007 c 0
 254.333333333 912.333333333 219 789.333333333 219 638 c 0
 219 486 256.5 360.166666667 331.5 260.5 c 128
 406.5 160.833333333 519.5 111 670.5 111 c 128
 821.5 111 934.5 161.166666667 1009.5 261.5 c 128
 1084.5 361.833333333 1122 490.833333333 1122 648.5 c 128
 1122 806.166666667 1082.33333333 932.333333333 1003 1027 c 0
445 1578 m 1
 601 1578 l 1
 804 1329 l 1
 698 1329 l 1
 445 1578 l 1
EndSplineSet
Validated: 1
EndChar

StartChar: Oacute
Encoding: 211 211 387
Width: 1342
VWidth: 1721
GlyphClass: 2
Flags: W
LayerCount: 2
Fore
SplineSet
670 -1 m 128
 483.333333333 -1 340 59.5 240 180.5 c 128
 140 301.5 90 454.166666667 90 638.5 c 128
 90 822.833333333 140.333333333 975.833333333 241 1097.5 c 128
 341.666666667 1219.16666667 485 1280 671 1280 c 128
 857 1280 1000.33333333 1219.5 1101 1098.5 c 128
 1201.66666667 977.5 1252 825 1252 641 c 128
 1252 457 1201.66666667 304 1101 182 c 128
 1000.33333333 60 856.666666667 -1 670 -1 c 128
1003 1027 m 0
 922.333333333 1121 811 1168 669 1168 c 0
 520.333333333 1168 405.666666667 1114.33333333 325 1007 c 0
 254.333333333 912.333333333 219 789.333333333 219 638 c 0
 219 486 256.5 360.166666667 331.5 260.5 c 128
 406.5 160.833333333 519.5 111 670.5 111 c 128
 821.5 111 934.5 161.166666667 1009.5 261.5 c 128
 1084.5 361.833333333 1122 490.833333333 1122 648.5 c 128
 1122 806.166666667 1082.33333333 932.333333333 1003 1027 c 0
558 1329 m 1
 762 1578 l 1
 915 1578 l 1
 664 1329 l 1
 558 1329 l 1
EndSplineSet
Validated: 1
EndChar

StartChar: Ocircumflex
Encoding: 212 212 388
Width: 1342
VWidth: 1721
GlyphClass: 2
Flags: W
LayerCount: 2
Fore
SplineSet
670 -1 m 128
 483.333333333 -1 340 59.5 240 180.5 c 128
 140 301.5 90 454.166666667 90 638.5 c 128
 90 822.833333333 140.333333333 975.833333333 241 1097.5 c 128
 341.666666667 1219.16666667 485 1280 671 1280 c 128
 857 1280 1000.33333333 1219.5 1101 1098.5 c 128
 1201.66666667 977.5 1252 825 1252 641 c 128
 1252 457 1201.66666667 304 1101 182 c 128
 1000.33333333 60 856.666666667 -1 670 -1 c 128
1003 1027 m 0
 922.333333333 1121 811 1168 669 1168 c 0
 520.333333333 1168 405.666666667 1114.33333333 325 1007 c 0
 254.333333333 912.333333333 219 789.333333333 219 638 c 0
 219 486 256.5 360.166666667 331.5 260.5 c 128
 406.5 160.833333333 519.5 111 670.5 111 c 128
 821.5 111 934.5 161.166666667 1009.5 261.5 c 128
 1084.5 361.833333333 1122 490.833333333 1122 648.5 c 128
 1122 806.166666667 1082.33333333 932.333333333 1003 1027 c 0
542 1329 m 1
 412 1329 l 1
 620 1578 l 1
 743 1578 l 1
 948 1329 l 1
 819 1329 l 1
 680 1497 l 1
 542 1329 l 1
EndSplineSet
Validated: 1
EndChar

StartChar: Otilde
Encoding: 213 213 389
Width: 1342
VWidth: 1716
GlyphClass: 2
Flags: W
LayerCount: 2
Fore
SplineSet
670 -5 m 128
 482.666666667 -5 339.166666667 55.3333333333 239.5 176 c 128
 139.833333333 296.666666667 90 449.333333333 90 634 c 128
 90 818.666666667 140.166666667 971.666666667 240.5 1093 c 128
 340.833333333 1214.33333333 484.166666667 1275 670.5 1275 c 128
 856.833333333 1275 1000.33333333 1214.5 1101 1093.5 c 128
 1201.66666667 972.5 1252 820 1252 636 c 128
 1252 452 1201.83333333 299.166666667 1101.5 177.5 c 128
 1001.16666667 55.8333333333 857.333333333 -5 670 -5 c 128
1003 1023 m 0
 922.333333333 1117 811 1164 669 1164 c 0
 521 1164 406.333333333 1110 325 1002 c 0
 254.333333333 907.333333333 219 784.333333333 219 633 c 128
 219 481.666666667 256.333333333 356.166666667 331 256.5 c 128
 405.666666667 156.833333333 518.666666667 107 670 107 c 128
 821.333333333 107 934.5 157 1009.5 257 c 128
 1084.5 357 1122 486 1122 644 c 128
 1122 802 1082.33333333 928.333333333 1003 1023 c 0
405 1345 m 1
 409.666666667 1391 421.333333333 1427.33333333 440 1454 c 0
 473.333333333 1499.33333333 514.666666667 1522 564 1522 c 0
 565 1522 565 1522 566 1522 c 0
 593.333333333 1522 622.666666667 1515.33333333 654 1502 c 0
 672 1494 690.666666667 1485.66666667 710 1477 c 0
 756 1456.33333333 790 1446 812 1446 c 128
 834 1446 849.833333333 1454.5 859.5 1471.5 c 128
 869.166666667 1488.5 876.666666667 1508.33333333 882 1531 c 1
 961 1531 l 1
 957 1499.66666667 950 1472.66666667 940 1450 c 0
 910.666666667 1384 868 1351 812 1351 c 1
 778.666666667 1351 742.666666667 1360 704 1378 c 0
 633.333333333 1410.66666667 585.666666667 1427 561 1427 c 128
 536.333333333 1427 518.666666667 1419.33333333 508 1404 c 128
 497.333333333 1388.66666667 488 1369 480 1345 c 1
 405 1345 l 1
EndSplineSet
Validated: 1
EndChar

StartChar: Odieresis
Encoding: 214 214 390
Width: 1342
VWidth: 1716
GlyphClass: 2
Flags: W
LayerCount: 2
Fore
SplineSet
670 -5 m 128
 482.666666667 -5 339.166666667 55.3333333333 239.5 176 c 128
 139.833333333 296.666666667 90 449.166666667 90 633.5 c 128
 90 817.833333333 140.333333333 970.833333333 241 1092.5 c 128
 341.666666667 1214.16666667 485 1275 671 1275 c 128
 857 1275 1000.33333333 1214.5 1101 1093.5 c 128
 1201.66666667 972.5 1252 820 1252 636 c 128
 1252 452 1201.83333333 299.166666667 1101.5 177.5 c 128
 1001.16666667 55.8333333333 857.333333333 -5 670 -5 c 128
1003 1022 m 0
 921.666666667 1116.66666667 810.333333333 1164 669 1164 c 0
 521 1164 406.333333333 1110 325 1002 c 0
 254.333333333 907.333333333 219 784.333333333 219 633 c 0
 219 481 256.333333333 355.333333333 331 256 c 0
 406.333333333 156.666666667 519.666666667 107 671 107 c 1
 822.333333333 107 935.333333333 157 1010 257 c 128
 1084.66666667 357 1122 485.833333333 1122 643.5 c 128
 1122 801.166666667 1082.33333333 927.333333333 1003 1022 c 0
482 1527 m 1
 609 1527 l 1
 609 1341 l 1
 482 1341 l 1
 482 1527 l 1
756 1527 m 1
 882 1527 l 1
 882 1341 l 1
 756 1341 l 1
 756 1527 l 1
EndSplineSet
Validated: 1
EndChar

StartChar: multiply
Encoding: 215 215 391
Width: 1050
VWidth: 1651
GlyphClass: 2
Flags: W
LayerCount: 2
Fore
SplineSet
162 -31 m 1
 90 39 l 1
 450 389 l 1
 90 739 l 1
 162 809 l 1
 526 455 l 1
 888 809 l 1
 960 739 l 1
 602 389 l 1
 960 39 l 1
 888 -31 l 1
 526 323 l 1
 162 -31 l 1
EndSplineSet
Validated: 1
EndChar

StartChar: Oslash
Encoding: 216 216 392
Width: 1387
VWidth: 1687
GlyphClass: 2
Flags: W
LayerCount: 2
Fore
SplineSet
998 1012 m 1
 919.333333333 1094 815 1135 685 1135 c 0
 537 1135 422.666666667 1080.33333333 342 971 c 0
 271.333333333 873.666666667 236 749.333333333 236 598 c 0
 236 459.333333333 265.333333333 344 324 252 c 1
 998 1012 l 1
390 186 m 1
 466 114 565.666666667 78 689 78 c 1
 839.666666667 78 954.333333333 131.666666667 1033 239 c 0
 1103.66666667 335.666666667 1139 460 1139 612 c 0
 1139 740.666666667 1113.66666667 850 1063 940 c 1
 390 186 l 1
1079 1103 m 1
 1220 1264 l 1
 1297 1195 l 1
 1149 1028 l 1
 1180.33333333 991.333333333 1208.16666667 937 1232.5 865 c 128
 1256.83333333 793 1269 709.666666667 1269 615 c 128
 1269 520.333333333 1256.66666667 434.666666667 1232 358 c 128
 1207.33333333 281.333333333 1171 213.666666667 1123 155 c 0
 1019.66666667 29 874 -34 686 -34 c 1
 535.333333333 -34 410 9.66666666667 310 97 c 1
 167 -68 l 1
 90 -1 l 1
 241 169 l 1
 151 282.333333333 106 427.666666667 106 605 c 0
 106 789.666666667 156 941.666666667 256 1061 c 0
 360.666666667 1185 498.666666667 1247 670 1247 c 128
 841.333333333 1247 977.666666667 1199 1079 1103 c 1
EndSplineSet
Validated: 1
EndChar

StartChar: Ugrave
Encoding: 217 217 393
Width: 1151
VWidth: 1721
GlyphClass: 2
Flags: W
LayerCount: 2
Fore
SplineSet
1061 490 m 2
 1061 162.666666667 899 -1 575 -1 c 0
 409.666666667 -1 287.5 42 208.5 128 c 128
 129.5 214 90 334.666666667 90 490 c 2
 90 1248 l 1
 219 1248 l 1
 219 525 l 2
 219 377.666666667 246.666666667 271.666666667 302 207 c 0
 358 143 449 111 575 111 c 0
 707 111 799.666666667 145 853 213 c 0
 905.666666667 279 932 383 932 525 c 2
 932 1248 l 1
 1061 1248 l 1
 1061 490 l 2
348 1578 m 1
 503 1578 l 1
 710 1329 l 1
 602 1329 l 1
 348 1578 l 1
EndSplineSet
Validated: 1
EndChar

StartChar: Uacute
Encoding: 218 218 394
Width: 1151
VWidth: 1721
GlyphClass: 2
Flags: W
LayerCount: 2
Fore
SplineSet
1061 490 m 2
 1061 162.666666667 899 -1 575 -1 c 0
 409.666666667 -1 287.5 42 208.5 128 c 128
 129.5 214 90 334.666666667 90 490 c 2
 90 1248 l 1
 219 1248 l 1
 219 525 l 2
 219 377.666666667 246.666666667 271.666666667 302 207 c 0
 358 143 449 111 575 111 c 0
 707 111 799.666666667 145 853 213 c 0
 905.666666667 279 932 383 932 525 c 2
 932 1248 l 1
 1061 1248 l 1
 1061 490 l 2
461 1329 m 1
 666 1578 l 1
 821 1578 l 1
 568 1329 l 1
 461 1329 l 1
EndSplineSet
Validated: 1
EndChar

StartChar: Ucircumflex
Encoding: 219 219 395
Width: 1151
VWidth: 1721
GlyphClass: 2
Flags: W
LayerCount: 2
Fore
SplineSet
1061 490 m 2
 1061 162.666666667 899 -1 575 -1 c 0
 409.666666667 -1 287.5 42 208.5 128 c 128
 129.5 214 90 334.666666667 90 490 c 2
 90 1248 l 1
 219 1248 l 1
 219 525 l 2
 219 377.666666667 246.666666667 271.666666667 302 207 c 0
 358 143 449 111 575 111 c 0
 707 111 799.666666667 145 853 213 c 0
 905.666666667 279 932 383 932 525 c 2
 932 1248 l 1
 1061 1248 l 1
 1061 490 l 2
446 1329 m 1
 314 1329 l 1
 523 1578 l 1
 646 1578 l 1
 855 1329 l 1
 724 1329 l 1
 584 1497 l 1
 446 1329 l 1
EndSplineSet
Validated: 1
EndChar

StartChar: Udieresis
Encoding: 220 220 396
Width: 1151
VWidth: 1716
GlyphClass: 2
Flags: W
LayerCount: 2
Fore
SplineSet
1061 486 m 2
 1061 158.666666667 899 -5 575 -5 c 0
 409.666666667 -5 287.5 37.8333333333 208.5 123.5 c 128
 129.5 209.166666667 90 330 90 486 c 2
 90 1244 l 1
 219 1244 l 1
 219 520 l 2
 219 372.666666667 246.666666667 267 302 203 c 0
 358 139 449 107 575 107 c 0
 706.333333333 107 799.333333333 140.666666667 854 208 c 0
 906 273.333333333 932 377.333333333 932 520 c 2
 932 1244 l 1
 1061 1244 l 1
 1061 486 l 2
383 1527 m 1
 511 1527 l 1
 511 1341 l 1
 383 1341 l 1
 383 1527 l 1
660 1527 m 1
 788 1527 l 1
 788 1341 l 1
 660 1341 l 1
 660 1527 l 1
EndSplineSet
Validated: 1
EndChar

StartChar: Yacute
Encoding: 221 221 397
Width: 1209
VWidth: 1724
GlyphClass: 2
Flags: W
LayerCount: 2
Fore
SplineSet
599 678 m 1
 967 1252 l 1
 1119 1252 l 1
 667 563 l 1
 667 35 l 1
 535 35 l 1
 535 555 l 1
 97 1245 l 1
 90 1252 l 1
 240 1252 l 1
 599 678 l 1
490 1332 m 1
 692 1581 l 1
 849 1581 l 1
 598 1336 l 1
 596 1332 l 1
 490 1332 l 1
EndSplineSet
Validated: 1
EndChar

StartChar: Thorn
Encoding: 222 222 398
Width: 1050
VWidth: 1689
GlyphClass: 2
Flags: W
LayerCount: 2
Fore
SplineSet
90 0 m 1
 90 1217 l 1
 219 1217 l 1
 219 966 l 1
 549 966 l 2
 769 966 900 895 942 753 c 0
 954 711.666666667 960 662.833333333 960 606.5 c 128
 960 550.166666667 945.666666667 499.666666667 917 455 c 0
 843 339 696.333333333 281 477 281 c 2
 219 281 l 1
 219 0 l 1
 90 0 l 1
219 389 m 1
 480 389 l 2
 602 389 688.666666667 404.666666667 740 436 c 0
 800 473.333333333 830 534 830 618 c 128
 830 702 805.5 763.166666667 756.5 801.5 c 128
 707.5 839.833333333 627.333333333 859 516 859 c 2
 219 859 l 1
 219 389 l 1
EndSplineSet
Validated: 1
EndChar

StartChar: germandbls
Encoding: 223 223 399
Width: 896
VWidth: 1689
GlyphClass: 2
Flags: W
LayerCount: 2
Fore
SplineSet
435 -24 m 0
 407.666666667 -24 383 -20.3333333333 361 -13 c 1
 361 88 l 1
 387 83.3333333333 411.666666667 81 435 81 c 0
 497 81 549.666666667 97 593 129 c 0
 653.666666667 174.333333333 684 246.333333333 684 345 c 128
 684 443.666666667 659.666666667 514.666666667 611 558 c 128
 562.333333333 601.333333333 481.333333333 623 368 623 c 2
 361 623 l 1
 361 720 l 1
 452.333333333 723.333333333 520.333333333 738.666666667 565 766 c 0
 614.333333333 798 639 847.166666667 639 913.5 c 128
 639 979.833333333 623 1033.33333333 591 1074 c 0
 558.333333333 1114.66666667 503 1135 425 1135 c 0
 333 1135 271.666666667 1113.33333333 241 1070 c 0
 217 1036 205 977.333333333 205 894 c 2
 205 0 l 1
 90 0 l 1
 90 912 l 2
 90 1130.66666667 199.333333333 1240 418 1240 c 0
 523.333333333 1240 606.666666667 1211.33333333 668 1154 c 0
 730 1095.33333333 761 1018.66666667 761 924 c 128
 761 829.333333333 716 748 626 680 c 1
 712 644.666666667 768 576.333333333 794 475 c 0
 802 443 806 411.333333333 806 380 c 0
 806 248 774.166666667 147.666666667 710.5 79 c 128
 646.833333333 10.3333333333 555 -24 435 -24 c 0
EndSplineSet
Validated: 1
EndChar

StartChar: agrave
Encoding: 224 224 400
Width: 1034
VWidth: 1685
GlyphClass: 2
Flags: W
LayerCount: 2
Fore
SplineSet
722 326 m 2
 722 453 l 1
 666.666666667 431.666666667 588.833333333 417.333333333 488.5 410 c 128
 388.166666667 402.666666667 317.166666667 384.833333333 275.5 356.5 c 128
 233.833333333 328.166666667 213 285.333333333 213 228 c 0
 213 180.666666667 231.666666667 143 269 115 c 0
 301 90.3333333333 341 78 389 78 c 0
 539 78 641 123.666666667 695 215 c 0
 713 246.333333333 722 283.333333333 722 326 c 2
723 107 m 1
 634.333333333 17 524 -28 392 -28 c 1
 257.333333333 -28 165 19.6666666667 115 115 c 0
 98.3333333333 146.333333333 90 183.666666667 90 227 c 0
 90 377 195.333333333 465.666666667 406 493 c 1
 552 511 l 1
 615.333333333 517 657.666666667 524.833333333 679 534.5 c 128
 700.333333333 544.166666667 712.833333333 557.5 716.5 574.5 c 128
 720.166666667 591.5 722 607.666666667 722 623 c 0
 722 672.333333333 705.5 712.5 672.5 743.5 c 128
 639.5 774.5 583 790 503 790 c 0
 388.333333333 790 312.666666667 757.333333333 276 692 c 0
 262 667.333333333 252.333333333 634 247 592 c 1
 131 592 l 1
 143.666666667 794 268.333333333 895 505 895 c 0
 726.333333333 895 837 803.333333333 837 620 c 2
 837 151 l 2
 837 114.333333333 843 91.6666666667 855 83 c 0
 859 79.6666666667 865.333333333 78 874 78 c 0
 890 78 913.333333333 83.3333333333 944 94 c 1
 944 1 l 1
 897.333333333 -11 867 -17 853 -17 c 0
 811.666666667 -17 784.333333333 -11 771 1 c 0
 741.666666667 26.3333333333 725.666666667 61.6666666667 723 107 c 1
269 1201 m 1
 424 1201 l 1
 631 952 l 1
 522 952 l 1
 269 1201 l 1
EndSplineSet
Validated: 1
EndChar

